<svg width="98" height="38" viewBox="0 0 98 38" fill="none" xmlns="http://www.w3.org/2000/svg">
<path d="M77.7259 37.5C80.9004 37.5 83.9772 36.8645 86.7853 35.618C92.0842 33.2472 96.0645 28.6767 97.432 23.3973C98.3355 19.9022 98.1645 15.9183 96.8948 11.9099C95.7715 8.29254 94.0133 5.48178 91.718 3.57536C89.6424 1.86446 86.9318 0.78903 84.1237 0.544616C80.119 0.226877 76.212 1.62002 73.648 4.28413C72.2805 5.70173 71.3526 7.46151 70.913 9.29462C70.8398 9.17241 70.7421 9.05023 70.6689 8.95246C69.2281 7.09492 66.5421 6.31279 64.1246 7.02159C63.1723 7.31488 62.2688 7.82815 61.4874 8.51251C61.1699 6.21501 60.0955 3.99086 58.435 2.35329L57.5803 1.52227L56.8234 2.45103C55.1873 4.45522 54.3082 7.02159 54.3326 9.58793C52.1837 7.60818 49.693 5.67731 46.8116 4.33303C43.7837 2.89099 40.5848 2.30438 37.6301 2.57323C34.4801 2.89097 31.1102 4.40636 31.0858 7.73039C31.0614 9.68571 32.4777 11.5432 34.358 12.0565C35.6766 12.4231 37.044 12.0565 37.9719 11.2499C37.3615 11.9587 36.8487 12.7653 36.4336 13.6208C35.9452 14.6717 35.6277 15.7961 35.3103 16.8959C34.7975 18.7046 34.3091 20.391 33.137 21.5153C32.9417 21.7109 32.6975 21.9064 32.4533 22.1019C31.4765 22.884 30.28 23.8861 30.3044 25.4993L30.3288 26.7458L31.5498 26.5503C32.5021 26.3792 33.43 26.1348 34.3335 25.817C34.2603 25.8659 34.187 25.8904 34.1138 25.9392C32.7707 26.648 31.7695 27.9679 31.3544 29.5321C30.9637 30.9986 31.1591 32.4406 31.9161 33.6138C33.1859 35.6424 35.8475 36.6446 39.022 36.3268C42.1476 36.0091 45.3465 34.6404 48.3011 32.3429C50.0593 30.9742 51.6221 29.3855 53.014 27.7968C53.0628 30.2165 53.5024 32.6117 54.3326 34.8848L54.7722 36.1313L55.8954 35.4469C57.9954 34.2004 59.4606 32.074 59.9978 29.7277C62.5618 32.7828 66.2735 35.1781 70.5956 36.449C72.9643 37.1334 75.3817 37.5 77.7259 37.5ZM82.9272 2.69544C83.2446 2.69544 83.5865 2.7199 83.9039 2.74434C86.297 2.93987 88.5679 3.84421 90.3017 5.28625C92.2796 6.92383 93.7936 9.36794 94.7947 12.5942C95.918 16.2115 96.0889 19.78 95.3075 22.8841C94.111 27.5279 90.5703 31.5608 85.8818 33.6627C81.5353 35.5936 76.1875 35.8624 71.2061 34.396C66.2002 32.905 62.0978 29.8254 59.9734 25.9148L57.9466 26.6236C58.3373 28.8233 57.4827 31.2186 55.871 32.7584C55.1384 30.1431 54.9431 27.4057 55.3338 24.7416L55.7977 21.3442C56.457 21.3931 57.0675 21.1732 57.5315 20.7332C58.0687 20.2199 58.3862 19.4623 58.3862 18.6557V18.6068C58.3129 17.0426 57.3606 16.0649 55.871 16.0649H55.8466C55.0164 16.0649 54.3082 16.3337 53.8442 16.847C53.5512 17.1648 53.2582 17.7025 53.3314 18.509C53.4047 19.1445 53.6001 21.0021 55.4559 21.3198L53.3803 23.935C53.3559 23.9595 53.3314 23.9839 53.307 24.0328L52.1105 23.0307C50.7186 24.155 49.0581 24.8638 47.3 25.206C49.7174 24.5216 51.8175 22.6641 52.5989 20.2444C53.7221 16.7981 52.0128 12.692 48.7895 11.0789C46.9825 10.1745 44.8825 10.0768 43.1732 10.7856C41.2685 11.5921 39.8766 13.4497 39.7545 15.4294C39.6569 17.0181 40.3162 18.5335 41.5371 19.3645C41.9767 19.6578 42.465 19.8533 42.9534 19.9511L43.1732 20.4644C42.9778 20.4399 42.7581 20.4155 42.5383 20.391C41.5615 20.2688 40.4627 20.0977 39.3638 20.4888C38.5824 20.7576 37.9475 21.2465 37.4103 21.662C37.3126 21.7353 37.215 21.8086 37.1173 21.8819C36.1649 22.6152 35.1149 23.2018 34.0161 23.6417C34.2114 23.4706 34.4068 23.324 34.5777 23.1529C36.2138 21.6131 36.7998 19.5356 37.3615 17.5314C37.6545 16.4804 37.9475 15.4783 38.3627 14.574C39.608 11.8854 42.3185 9.95454 45.2488 9.6368C48.1791 9.31907 51.2314 10.6389 53.0384 12.9853L54.0396 12.3254C54.4059 12.6675 54.7477 13.0097 55.0896 13.3519L56.8966 12.2521C56.1396 9.85679 56.4815 7.09489 57.7513 4.89517C59.1675 6.85048 59.7536 9.44128 59.2164 11.8121L61.2676 12.4476C61.7804 11.1522 62.7083 10.1012 63.7827 9.49016C62.4641 10.2967 61.4629 11.7388 61.0722 13.4497C60.6083 15.4539 60.9502 17.4336 61.3164 18.949L61.585 20.0733L62.6839 19.7311C65.8583 18.7779 68.6909 18.0691 71.2061 18.949C71.4991 19.0467 71.7677 19.1689 72.0363 19.3156C68.8374 18.7779 65.5165 20 62.342 21.3442L61.3164 21.7842L61.7804 22.7863C64.0269 27.7968 69.6677 31.1941 76.1387 31.4386C80.3387 31.6096 84.319 30.4853 87.347 28.2856C90.7412 25.817 92.8901 21.8575 92.9389 17.9958C92.9878 13.7919 90.5947 9.46571 86.6632 6.72827C83.8795 4.7974 80.9492 4.21081 78.5806 5.13958C75.6259 6.31277 74.0143 9.95454 75.1375 12.9364C75.748 14.574 77.091 15.796 78.605 16.1138C80.4608 16.5048 82.4144 15.4294 82.9272 13.7185C83.1469 13.0342 83.0737 12.252 82.7562 11.5432C83.1225 11.7143 83.4644 11.9832 83.6841 12.3009C84.3679 13.303 84.3679 14.8673 83.6353 16.1138C82.5853 17.9224 80.2411 18.949 78.0678 18.5579C75.9434 18.1669 74.0387 16.5537 73.2084 14.3784C72.134 11.6166 72.9398 8.07257 75.1375 5.77508C77.091 3.81977 79.9236 2.69544 82.9272 2.69544ZM49.4733 26.8436C47.0558 29.6788 43.7837 31.8052 40.2185 32.8317C39.1685 33.125 36.6045 33.6872 35.2614 32.3184C34.6754 31.7074 34.4312 30.7542 34.6998 29.9232C34.6998 29.8987 34.7242 29.8743 34.7242 29.8254C34.651 30.2898 34.6754 30.7542 34.8219 31.1697C35.2859 32.4162 36.6289 33.2228 38.0452 33.0761C39.1929 32.9539 40.2185 32.1962 40.7557 31.023C41.3418 29.7276 41.2441 28.1878 40.4871 27.1124C40.2917 26.8436 40.072 26.5991 39.8278 26.4036C42.8313 27.7479 46.3232 27.8701 49.4733 26.8436ZM36.9219 28.2612C37.4836 28.2856 37.9964 28.53 38.1917 28.9211C38.2894 29.1166 38.2894 29.4099 38.1673 29.6543C38.1429 29.7032 38.0208 29.8987 37.8743 29.9232C37.7766 29.8987 37.6301 29.6788 37.6301 29.5565C37.6301 29.581 37.6057 29.6299 37.5812 29.6543L36.9219 28.2612ZM79.7771 29.0922C78.7271 29.2632 77.6282 29.3366 76.505 29.3121C77.1887 28.9455 77.7748 28.4567 78.2876 27.9679C78.7027 28.4322 79.1911 28.8477 79.7771 29.0922ZM80.9737 6.92382C82.8539 6.92382 84.6365 7.99922 85.4423 8.56138C88.7633 10.8833 90.8145 14.5007 90.7656 18.0202C90.7412 21.222 88.9342 24.4972 86.0772 26.5747C85.2958 27.1369 84.4167 27.6257 83.4888 28.0412C83.5376 27.9434 83.5865 27.8701 83.6109 27.7723L83.9772 26.8436L83.0737 26.4036C81.2178 25.4748 79.8015 23.8373 78.2876 22.1019C77.848 21.5886 77.384 21.0754 76.9201 20.5621C77.1643 20.6355 77.4085 20.6843 77.6771 20.7332C80.7783 21.2954 83.9772 19.8533 85.4911 17.2381C86.6388 15.2583 86.6144 12.7897 85.4423 11.1033C84.7586 10.1012 83.5865 9.41684 82.3411 9.22131C81.1934 9.05022 80.0946 9.31907 79.2643 9.97899L77.0178 11.7632C76.6026 9.979 77.6282 7.87702 79.362 7.19266C79.9236 6.99713 80.4609 6.92382 80.9737 6.92382ZM71.6212 23.6906C70.8398 24.1061 70.3026 24.8638 70.1317 25.817C70.0096 26.5747 70.1316 27.3568 70.4491 28.0168C67.9584 26.9658 65.6874 25.3037 64.2955 22.9329C67.3479 21.6864 70.4735 20.7821 73.1596 21.9064C74.1608 22.3219 74.9177 22.9818 75.3084 23.7884C75.7236 24.5949 75.6992 25.5482 75.2596 26.2081C74.8445 26.8191 73.9654 27.088 73.4038 26.8191C73.1352 26.6969 72.9398 26.4036 72.8666 26.0614C72.8421 25.9392 72.7933 25.5971 72.9642 25.3526L71.6212 23.6906ZM36.6045 25.3037C36.0673 25.3037 35.5301 25.3771 34.9928 25.5482C35.6766 25.2549 36.3359 24.9371 36.9708 24.5461L36.8731 24.6927L37.8254 25.3282C37.8987 25.3771 37.9964 25.426 38.0696 25.4993C37.6057 25.3771 37.1173 25.3037 36.6045 25.3037ZM78.0434 25.0593L77.7748 25.3526C77.7992 25.1571 77.7992 24.9616 77.7748 24.766C77.8724 24.8638 77.9457 24.9616 78.0434 25.0593ZM41.122 24.6194C41.6104 24.6927 42.0987 24.8149 42.5871 24.9616C42.929 25.0593 43.2709 25.1571 43.6371 25.2304C42.7825 25.1327 41.9278 24.9127 41.122 24.6194ZM47.0802 12.6431C47.3488 12.7164 47.593 12.8386 47.8372 12.9608C50.1081 14.1096 51.3535 17.0914 50.5721 19.5111C49.7907 21.9308 47.0069 23.6173 44.5162 23.2018C44.1011 23.1285 43.6615 23.0063 43.1976 22.8841C42.636 22.713 42.0499 22.5663 41.4394 22.4685C41.0243 22.4197 40.6336 22.3952 40.2673 22.4441C40.8534 22.2975 41.5371 22.3952 42.2941 22.493C42.9534 22.5907 43.6127 22.6641 44.3209 22.6396C45.9569 22.5419 47.5442 21.5642 48.5209 20.0244C49.4977 18.4846 49.7419 16.6515 49.1558 15.1117C48.7163 14.0363 47.9593 13.1808 47.0802 12.6431ZM45.9081 14.4762C46.4453 14.794 46.8849 15.3317 47.0802 15.8694C47.4221 16.7737 47.2756 17.8736 46.6651 18.8268C46.0546 19.78 45.1267 20.3666 44.1499 20.4399C43.8569 20.4644 43.5639 20.4399 43.2709 20.4155L43.3197 19.9511C44.3209 20.0489 45.3465 19.7311 46.0546 19.0223C46.6895 18.3868 47.0314 17.4581 46.9581 16.5293C46.8849 15.6983 46.5186 14.965 45.9081 14.4762ZM56.2373 18.6068C56.2373 18.8023 56.164 18.9734 56.0664 19.0712C56.0175 19.1201 55.9687 19.1201 55.8954 19.1201C55.7245 19.0956 55.6024 19.0956 55.5047 18.2157C55.578 18.1913 55.6757 18.1669 55.8466 18.1669C56.1396 18.1669 56.2129 18.1669 56.2373 18.6068ZM44.272 16.0893C44.3697 16.0893 44.4674 16.1138 44.5406 16.1627C44.6871 16.2604 44.7848 16.4804 44.8092 16.7248C44.8337 17.0181 44.736 17.3359 44.565 17.507C44.3209 17.7514 43.9302 17.8491 43.5395 17.8247L43.6616 16.4804C43.686 16.3582 43.8325 16.236 43.9546 16.1871C44.0278 16.1138 44.1499 16.0893 44.272 16.0893ZM66.0781 16.6515C65.0769 16.8226 64.1002 17.0914 63.1967 17.3358C62.9525 15.9916 62.9525 14.9406 63.1967 13.963C63.5385 12.5453 64.4664 11.421 65.5653 11.0544C65.5897 11.0544 65.5897 11.0544 65.6142 11.03C64.906 11.3722 64.3688 12.0565 64.149 12.9364C63.8804 14.0607 64.2223 15.2583 65.0281 15.9916C65.3455 16.2849 65.6874 16.5049 66.0781 16.6515ZM71.0596 14.7206C71.1084 14.8917 71.1572 15.0384 71.2305 15.2095C71.4747 15.8449 71.7921 16.4559 72.1584 16.9937C72.0851 16.9692 72.0363 16.9448 71.9631 16.9204C71.084 16.6026 70.2049 16.456 69.3014 16.4071C69.5944 16.2604 69.8875 16.0649 70.1561 15.8205C70.4979 15.5272 70.8154 15.1361 71.0596 14.7206ZM80.119 11.9099C80.3876 11.9099 80.5829 12.1543 80.6562 12.2276C80.876 12.4964 80.9736 12.8631 80.876 13.1319C80.6806 13.7674 79.826 14.1829 79.069 14.0363C78.2876 13.8652 77.5306 13.1564 77.1887 12.2276C77.1887 12.2276 77.1887 12.2032 77.1643 12.2032L80.0701 11.9343C80.0946 11.9099 80.119 11.9099 80.119 11.9099ZM66.2246 10.9811C66.6397 10.9811 67.0304 11.0789 67.3967 11.2744C67.8363 11.5188 68.1537 11.861 68.2758 12.2765C68.4223 12.7653 68.2514 13.3519 67.9095 13.6452C67.5921 13.8896 67.0793 13.8896 66.8351 13.6208C66.7374 13.523 66.6886 13.3519 66.713 13.1564C66.7374 13.0097 66.7863 12.912 66.8595 12.8631L66.0293 10.9566C66.1269 10.9811 66.1758 10.9811 66.2246 10.9811ZM45.6395 7.41264C45.4441 7.41264 45.2244 7.43707 45.029 7.46151C42.5383 7.73037 40.1941 8.92801 38.4359 10.7122C38.6068 10.4923 38.7289 10.2234 38.8266 9.95455C39.1929 8.9769 38.9487 7.77926 38.1917 6.92382C37.7278 6.3861 37.1173 6.04392 36.458 5.97059C36.4824 5.97059 36.5068 5.94616 36.5312 5.94616C39.4127 5.11515 42.5383 6.1417 45.493 7.36377C45.5662 7.38821 45.6151 7.3882 45.6395 7.41264ZM34.4801 7.43708L35.3347 7.97481C35.5056 8.07257 35.6033 8.34141 35.5545 8.53694C35.5057 8.73247 35.2859 8.90356 35.0905 8.90356C34.8952 8.90356 34.7487 8.75692 34.651 8.63471C34.4312 8.31697 34.358 7.87702 34.4556 7.55929C34.4556 7.5104 34.4556 7.48596 34.4801 7.43708Z" fill="url(#paint0_linear_85_3709)"/>
<path d="M25.5681 29.1414C27.6437 29.1414 29.353 28.1148 30.6961 26.1106C31.5507 24.8152 31.4286 23.5443 31.3065 22.5178C31.2821 22.3467 31.2821 22.1756 31.2577 22.0045C31.1356 20.4891 30.2565 19.1693 28.8891 18.4849C27.5216 17.8006 25.9344 17.8494 24.6158 18.6804C23.175 19.5848 22.5401 21.5645 23.175 23.2265C23.2483 23.4221 23.346 23.6176 23.4436 23.7887C23.2727 23.642 23.1506 23.471 23.0285 23.2754C22.0762 21.8334 22.296 20.0492 23.5902 18.9982C25.3972 17.5073 27.4239 17.1895 29.5728 18.0694C30.4763 18.436 31.3554 19.0226 32.2833 19.6092C32.7228 19.9025 33.1868 20.1958 33.6508 20.4891L34.5542 21.0268L35.1159 20.1469C35.8485 18.9982 36.6787 17.6783 35.1892 16.5051C32.3077 14.1832 28.3519 11.7635 23.2727 13.45C22.1494 13.8166 20.9773 14.3543 19.6587 15.0387C18.9261 15.4297 18.1936 15.8452 17.4854 16.2363C15.1412 17.5806 12.9191 18.8271 10.3795 19.4137C9.5737 19.6092 8.74348 19.7314 7.83998 19.8781C7.40044 19.9514 6.93646 20.0247 6.4725 20.098L3.07829 20.7091L6.2039 22.1511C8.47486 23.2021 10.5505 23.5443 12.5284 23.2265C13.8959 23.0066 15.1901 22.6644 16.5575 22.2978C16.7773 22.2489 17.0215 22.1756 17.2657 22.1022C17.3145 22.3955 17.3878 22.7133 17.4366 23.0066C17.925 25.5974 19.4389 27.4305 21.8564 28.2859C22.6622 28.5792 23.4681 28.7992 24.2495 28.9458C24.7134 29.0925 25.153 29.1414 25.5681 29.1414ZM27.2286 15.4053C25.446 15.4053 23.7611 16.0408 22.2227 17.3117C20.0738 19.0959 19.6587 22.1023 21.2459 24.4731C22.1006 25.744 23.4192 26.5994 24.8599 26.8927C24.8111 26.8927 24.7378 26.8683 24.6646 26.8683C24.0053 26.7461 23.2971 26.5506 22.6134 26.3062C20.9285 25.6951 19.9517 24.5219 19.6099 22.6644C19.5122 22.1756 19.4145 21.6623 19.3169 21.1979C19.268 21.0024 19.2436 20.8068 19.1948 20.6113L18.975 19.5115L17.8761 19.7803C17.2413 19.9269 16.6308 20.098 16.0447 20.2447C14.8482 20.5624 13.7249 20.8557 12.6017 21.0513C14.7505 20.318 16.6796 19.1937 18.5843 18.1427C19.268 17.7517 20.0006 17.3362 20.7087 16.9695C21.9053 16.3341 22.9797 15.8697 23.9809 15.5275C26.7402 14.5987 29.2798 15.0631 32.2589 17.0429C31.6728 16.6763 31.0623 16.3585 30.403 16.0897C29.3286 15.6253 28.2786 15.4053 27.2286 15.4053ZM26.4716 21.4179L26.3495 21.8823C26.3495 21.9067 26.3251 21.9311 26.3251 21.9556C26.2762 21.9311 26.2763 21.9067 26.2763 21.9067C26.2763 21.9067 26.2762 21.7845 26.3739 21.589C26.3983 21.5401 26.4228 21.4668 26.4716 21.4179Z" fill="url(#paint1_linear_85_3709)"/>
<path d="M12.3072 26.3309C13.5526 26.3309 14.8468 26.2331 16.2387 26.0131C17.0201 25.8909 17.9724 25.7443 18.4364 24.9622C18.9003 24.18 18.534 23.2757 18.2654 22.5669L17.9236 21.7114L17.0201 21.907C16.4829 22.0048 15.9945 22.1514 15.5061 22.2736C14.4561 22.5425 13.4549 22.7869 12.4537 22.8602C11.0863 22.9579 9.54789 22.8846 7.86299 22.5913C6.91065 22.4447 5.9583 22.1514 4.98155 21.8337C4.54201 21.687 4.07805 21.5404 3.61409 21.4182L8.4474e-05 20.3916L2.51524 23.1779C2.90595 23.6179 3.36991 23.96 3.95596 24.3022C6.44669 25.6709 9.15718 26.3309 12.3072 26.3309Z" fill="url(#paint2_linear_85_3709)"/>
<path d="M52.8192 23.813C48.8145 27.0392 42.6854 27.3081 38.4365 24.4484C39.0714 23.6174 40.2435 23.3975 41.2935 23.5441C42.3435 23.6908 43.3203 24.1063 44.3459 24.2774C47.3982 24.7906 50.6704 22.7864 51.6227 19.8535C52.575 16.9205 51.1099 13.3765 48.3506 11.9833C46.9098 11.2501 45.1273 11.1034 43.6377 11.7389C42.1482 12.3744 40.9761 13.8409 40.8784 15.454C40.8051 16.5783 41.2691 17.7759 42.197 18.4359C43.1249 19.0958 44.5168 19.0714 45.3226 18.2648C46.1285 17.4582 46.104 15.9428 45.1761 15.2829C44.2482 14.623 42.6854 15.234 42.5877 16.3583C41.9772 14.9896 43.1982 13.2787 44.6877 13.1321C46.1773 12.9854 47.5936 14.1097 48.1308 15.5029C49.132 18.0937 47.032 21.3689 44.2482 21.5399C42.7342 21.6377 41.1958 20.9778 39.7795 21.4666C39.047 21.711 38.4609 22.2487 37.826 22.7131C35.9458 24.1307 33.7237 25.1084 31.4039 25.4994C31.355 24.1063 32.8934 23.2997 33.8946 22.3465C36.0923 20.269 36.1655 16.8472 37.4353 14.1098C38.8516 11.1035 41.8796 8.90371 45.2005 8.56153C48.5215 8.21936 51.9401 9.68584 53.9669 12.35C52.3553 9.3681 49.132 7.7061 46.0064 6.41071C42.9296 5.11532 39.5109 4.01545 36.3121 4.94423C35.0911 5.2864 33.8701 6.04409 33.455 7.24172C33.0399 8.43935 33.8702 10.0525 35.1399 10.028C35.8237 10.0036 36.4586 9.51477 36.6295 8.85485C36.8004 8.19493 36.5074 7.43723 35.9458 7.09505C37.2156 6.8262 38.3388 8.4149 37.8749 9.61253C37.4353 10.8346 35.8969 11.3968 34.6516 11.0546C33.2353 10.6635 32.1608 9.24591 32.1853 7.77942C32.2097 4.94422 35.4574 3.91769 37.7528 3.69772C40.7075 3.40442 43.711 4.08876 46.3726 5.35972C50.0111 7.07062 53.0878 9.78362 55.9204 12.6433C54.9193 9.46588 55.603 5.77521 57.7274 3.18443C60.0228 5.45748 61.0484 8.9526 60.3403 12.1055C61.0728 10.2724 62.5868 8.7082 64.467 8.12161C66.3717 7.55946 68.6183 8.12159 69.8392 9.6614C71.0602 11.2012 70.9625 13.7431 69.4974 15.0385C68.4962 15.9184 66.8113 16.1384 65.8345 15.234C64.8578 14.3297 65.1019 12.35 66.3961 11.9833C65.6147 12.4722 65.4927 13.7431 66.1275 14.403C66.7624 15.063 67.9345 15.0874 68.6671 14.5252C69.3997 13.9631 69.6683 12.8877 69.3997 12.0078C68.9357 10.3947 66.9089 9.56365 65.3217 10.0769C63.7101 10.5902 62.6112 12.13 62.2205 13.7676C61.8298 15.4051 62.074 17.116 62.4647 18.7536C65.4682 17.8493 68.7159 16.945 71.6706 17.9959C76.2614 19.6091 78.3126 25.255 82.708 27.4059C82.3905 28.2369 81.2429 28.5302 80.4126 28.188C79.5824 27.8458 78.9719 27.1126 78.4835 26.3549C77.6288 27.3325 76.6521 28.2613 75.4556 28.7013C74.259 29.1412 72.7206 28.9946 71.866 28.0414C71.0113 27.0881 71.109 25.3039 72.2567 24.6929C71.4997 25.6461 71.9637 27.2592 73.0625 27.7969C74.1614 28.3346 75.6021 27.8458 76.2858 26.8437C76.9695 25.8416 76.9695 24.424 76.4079 23.3241C75.8463 22.2243 74.8451 21.4177 73.6974 20.9289C70.2543 19.4869 66.3473 20.9533 62.9043 22.3954C65.1508 27.4059 70.816 30.1922 76.3102 30.4122C80.0219 30.5588 83.8313 29.6545 86.8348 27.4792C89.8383 25.3039 91.9383 21.7599 91.9628 18.0448C92.0116 13.9387 89.5453 10.0525 86.1511 7.68165C84.0999 6.23961 81.4138 5.28639 79.094 6.21517C76.7009 7.16838 75.3579 10.1991 76.2614 12.6188C76.7009 13.8165 77.7021 14.843 78.9475 15.1118C80.1928 15.3807 81.6336 14.6719 81.9998 13.4743C82.3661 12.2767 81.3405 10.7613 80.0707 10.8835C81.4382 9.80805 83.6603 10.3213 84.6615 11.7634C85.6627 13.2054 85.5406 15.234 84.6615 16.725C83.3673 18.9736 80.5347 20.1468 77.9707 19.7068C75.4067 19.2669 73.2335 17.2871 72.3055 14.8674C71.0358 11.5923 72.0369 7.65721 74.4788 5.1153C76.9207 2.5734 80.5835 1.40021 84.0754 1.69351C86.615 1.91348 89.1057 2.84226 91.0837 4.47983C93.4767 6.45959 94.9907 9.31923 95.9186 12.3011C97.0175 15.8206 97.3593 19.6335 96.4314 23.1775C95.1128 28.2613 91.2058 32.5141 86.3952 34.665C81.5847 36.8158 76.0172 36.938 70.9625 35.4471C66.0787 34.005 61.5124 30.9254 59.0949 26.4527C59.6321 29.5567 58.0937 32.9541 55.3832 34.5672C54.2355 31.3898 53.8692 27.9436 54.3332 24.5951C52.3308 27.1126 50.2308 29.5567 47.6913 31.5365C45.1517 33.4918 42.1482 34.9583 38.9737 35.3004C36.7272 35.5204 34.1144 35.0071 32.8934 33.1007C31.6236 31.0721 32.5759 28.0902 34.676 26.9659C36.2876 26.086 38.583 26.3549 39.633 27.8702C40.683 29.3856 39.8039 31.952 37.9725 32.1231C37.1179 32.2208 36.1899 31.732 35.8969 30.9254C35.6039 30.1189 36.0923 29.0679 36.9469 28.8968C36.1167 29.6056 36.9958 31.2432 38.0946 31.0721C39.1935 30.901 39.7551 29.4589 39.2179 28.4813C38.7051 27.5036 37.4353 27.1126 36.3609 27.3081C35.1399 27.5525 34.0655 28.5057 33.6992 29.7033C33.3329 30.901 33.6504 32.2942 34.5295 33.174C36.019 34.6894 38.5098 34.5428 40.561 33.9562C45.7378 32.3919 50.3041 28.6524 52.8192 23.813ZM57.3367 18.5825C57.2879 17.7271 56.8972 17.0916 55.896 17.0672C55.0902 17.0672 54.3576 17.4093 54.4553 18.3137C54.5285 19.1202 54.6995 20.0735 55.8228 20.1957C56.6774 20.269 57.3367 19.5846 57.3367 18.5825Z" fill="url(#paint3_linear_85_3709)"/>
<path d="M34.2123 19.5608C32.7716 18.6809 31.4774 17.6544 29.9878 17.0678C27.4971 16.0412 25.0552 16.3834 22.9063 18.1432C21.197 19.5608 20.8796 21.956 22.1249 23.8625C23.3459 25.6956 25.8854 26.4532 27.6924 25.5245C28.5471 25.0845 29.3041 23.5936 29.2064 22.4937C29.1087 21.4183 28.7913 20.4895 27.5947 20.1474C26.5936 19.8541 25.8122 20.1718 25.3482 21.0762C25.0063 21.7361 25.0308 22.4693 25.7878 22.8848C26.5692 23.3003 27.1064 22.9826 27.3506 22.1271C27.961 23.1292 27.5947 24.0091 26.4959 24.1313C25.4215 24.2535 24.5912 23.8625 24.1761 22.7871C23.7366 21.6383 24.2005 20.1718 25.1773 19.5608C27.2529 18.2654 29.9634 19.6341 30.1587 22.0538C30.2564 23.2026 30.525 24.3024 29.768 25.4512C28.4738 27.4065 26.7401 28.3353 24.4447 27.8953C23.6877 27.7487 22.9307 27.5531 22.2226 27.2843C20.1226 26.5266 18.926 25.0112 18.5109 22.8359C18.3888 22.1271 18.2179 21.4183 18.0958 20.8073C16.0935 21.2961 14.262 21.8583 12.3574 22.176C10.4527 22.4938 8.59685 22.0782 6.66775 21.1984C8.10847 20.9295 9.37824 20.7584 10.6236 20.4896C14.1155 19.683 17.0458 17.6543 20.1714 15.9923C21.2703 15.4057 22.418 14.868 23.6145 14.477C27.8389 13.0594 31.3308 14.7703 34.5297 17.3366C35.189 17.8743 35.0669 18.2165 34.2123 19.5608Z" fill="url(#paint4_linear_85_3709)"/>
<path d="M17.2414 22.982C17.8275 24.4974 17.7053 24.7174 16.0693 24.9618C12.0646 25.5484 8.13313 25.3773 4.49471 23.3731C4.07959 23.1531 3.68891 22.8598 3.32262 22.4688C4.78776 22.8843 6.20403 23.422 7.69358 23.6664C9.28081 23.9352 10.9169 24.0574 12.5285 23.9352C14.0913 23.813 15.6053 23.3242 17.2414 22.982Z" fill="url(#paint5_linear_85_3709)"/>
<defs>
<linearGradient id="paint0_linear_85_3709" x1="64.152" y1="0.5" x2="64.152" y2="37.5" gradientUnits="userSpaceOnUse">
<stop stop-color="#66A3B0"/>
<stop offset="1" stop-color="#A3C8D0"/>
</linearGradient>
<linearGradient id="paint1_linear_85_3709" x1="19.5482" y1="12.8867" x2="19.5482" y2="29.1414" gradientUnits="userSpaceOnUse">
<stop stop-color="#66A3B0"/>
<stop offset="1" stop-color="#A3C8D0"/>
</linearGradient>
<linearGradient id="paint2_linear_85_3709" x1="9.32914" y1="20.3916" x2="9.32914" y2="26.3309" gradientUnits="userSpaceOnUse">
<stop stop-color="#66A3B0"/>
<stop offset="1" stop-color="#A3C8D0"/>
</linearGradient>
<linearGradient id="paint3_linear_85_3709" x1="64.1855" y1="1.64941" x2="64.1855" y2="36.4428" gradientUnits="userSpaceOnUse">
<stop stop-color="#3C7886"/>
<stop offset="0.5" stop-color="#4891A1"/>
<stop offset="1" stop-color="#66A3B0"/>
</linearGradient>
<linearGradient id="paint4_linear_85_3709" x1="20.8092" y1="13.9648" x2="20.8092" y2="28.0028" gradientUnits="userSpaceOnUse">
<stop stop-color="#3C7886"/>
<stop offset="0.5" stop-color="#4891A1"/>
<stop offset="1" stop-color="#66A3B0"/>
</linearGradient>
<linearGradient id="paint5_linear_85_3709" x1="10.4423" y1="22.4688" x2="10.4423" y2="25.257" gradientUnits="userSpaceOnUse">
<stop stop-color="#3C7886"/>
<stop offset="0.5" stop-color="#4891A1"/>
<stop offset="1" stop-color="#66A3B0"/>
</linearGradient>
</defs>
</svg>
