<svg width="97" height="38" viewBox="0 0 97 38" fill="none" xmlns="http://www.w3.org/2000/svg">
<path d="M20.0672 37.5C16.9251 37.5 13.8798 36.8645 11.1002 35.618C5.8554 33.2472 1.91573 28.6767 0.562221 23.3973C-0.332059 19.9022 -0.162868 15.9183 1.09396 11.9099C2.20577 8.29254 3.94597 5.48178 6.21793 3.57536C8.27236 1.86446 10.9552 0.78903 13.7347 0.544616C17.6986 0.226877 21.5657 1.62002 24.1035 4.28413C25.457 5.70173 26.3755 7.46151 26.8106 9.29462C26.8831 9.17241 26.9797 9.05023 27.0523 8.95246C28.4783 7.09492 31.1369 6.31279 33.5297 7.02159C34.4723 7.31488 35.3666 7.82815 36.1401 8.51251C36.4543 6.21501 37.5177 3.99086 39.1613 2.35329L40.0072 1.52227L40.7565 2.45103C42.3758 4.45522 43.246 7.02159 43.2218 9.58793C45.3487 7.60818 47.814 5.67731 50.6661 4.33303C53.6631 2.89099 56.8293 2.30438 59.7539 2.57323C62.8718 2.89097 66.2072 4.40636 66.2314 7.73039C66.2555 9.68571 64.8537 11.5432 62.9926 12.0565C61.6875 12.4231 60.334 12.0565 59.4155 11.2499C60.0198 11.9587 60.5273 12.7653 60.9382 13.6208C61.4216 14.6717 61.7358 15.7961 62.05 16.8959C62.5576 18.7046 63.041 20.391 64.2011 21.5153C64.3945 21.7109 64.6362 21.9064 64.8779 22.1019C65.8447 22.884 67.029 23.8861 67.0048 25.4993L66.9806 26.7458L65.7721 26.5503C64.8295 26.3792 63.9111 26.1348 63.0168 25.817C63.0893 25.8659 63.1618 25.8904 63.2343 25.9392C64.5637 26.648 65.5546 27.9679 65.9655 29.5321C66.3522 30.9986 66.1589 32.4406 65.4096 33.6138C64.1528 35.6424 61.5183 36.6446 58.3762 36.3268C55.2825 36.0091 52.1163 34.6404 49.1917 32.3429C47.4515 30.9742 45.9046 29.3855 44.5269 27.7968C44.4786 30.2165 44.0436 32.6117 43.2218 34.8848L42.7867 36.1313L41.6749 35.4469C39.5963 34.2004 38.1461 32.074 37.6144 29.7277C35.0766 32.7828 31.4028 35.1781 27.1247 36.449C24.7803 37.1334 22.3875 37.5 20.0672 37.5ZM14.919 2.69544C14.6048 2.69544 14.2664 2.7199 13.9522 2.74434C11.5836 2.93987 9.33584 3.84421 7.61978 5.28625C5.66204 6.92383 4.16351 9.36794 3.17255 12.5942C2.06074 16.2115 1.89156 19.78 2.66499 22.8841C3.84931 27.5279 7.35391 31.5608 11.9945 33.6627C16.2967 35.5936 21.5899 35.8624 26.5205 34.396C31.4753 32.905 35.5358 29.8254 37.6386 25.9148L39.6447 26.6236C39.258 28.8233 40.1039 31.2186 41.6991 32.7584C42.4242 30.1431 42.6175 27.4057 42.2308 24.7416L41.7716 21.3442C41.119 21.3931 40.5148 21.1732 40.0555 20.7332C39.5238 20.2199 39.2096 19.4623 39.2096 18.6557V18.6068C39.2821 17.0426 40.2247 16.0649 41.6991 16.0649H41.7233C42.545 16.0649 43.246 16.3337 43.7052 16.847C43.9952 17.1648 44.2853 17.7025 44.2128 18.509C44.1403 19.1445 43.9469 21.0021 42.11 21.3198L44.1644 23.935C44.1886 23.9595 44.2128 23.9839 44.2369 24.0328L45.4212 23.0307C46.7989 24.155 48.4425 24.8638 50.1827 25.206C47.7899 24.5216 45.7113 22.6641 44.9379 20.2444C43.826 16.7981 45.5179 12.692 48.7083 11.0789C50.4969 10.1745 52.5755 10.0768 54.2674 10.7856C56.1526 11.5921 57.5303 13.4497 57.6511 15.4294C57.7478 17.0181 57.0952 18.5335 55.8867 19.3645C55.4517 19.6578 54.9683 19.8533 54.4849 19.9511L54.2674 20.4644C54.4607 20.4399 54.6782 20.4155 54.8958 20.391C55.8626 20.2688 56.9502 20.0977 58.0378 20.4888C58.8113 20.7576 59.4397 21.2465 59.9714 21.662C60.0681 21.7353 60.1648 21.8086 60.2615 21.8819C61.2041 22.6152 62.2434 23.2018 63.331 23.6417C63.1377 23.4706 62.9443 23.324 62.7751 23.1529C61.1557 21.6131 60.5757 19.5356 60.0198 17.5314C59.7297 16.4804 59.4397 15.4783 59.0288 14.574C57.7961 11.8854 55.1133 9.95454 52.2129 9.6368C49.3126 9.31907 46.2913 10.6389 44.5028 12.9853L43.5118 12.3254C43.1493 12.6675 42.8109 13.0097 42.4725 13.3519L40.684 12.2521C41.4332 9.85679 41.0949 7.09489 39.838 4.89517C38.4362 6.85048 37.8561 9.44128 38.3879 11.8121L36.3576 12.4476C35.85 11.1522 34.9316 10.1012 33.8681 9.49016C35.1733 10.2967 36.1642 11.7388 36.5509 13.4497C37.0102 15.4539 36.6718 17.4336 36.3092 18.949L36.0434 20.0733L34.9557 19.7311C31.8137 18.7779 29.01 18.0691 26.5205 18.949C26.2305 19.0467 25.9646 19.1689 25.6988 19.3156C28.865 18.7779 32.1521 20 35.2941 21.3442L36.3092 21.7842L35.85 22.7863C33.6264 27.7968 28.0432 31.1941 21.6382 31.4386C17.481 31.6096 13.5414 30.4853 10.5443 28.2856C7.18472 25.817 5.05778 21.8575 5.00944 17.9958C4.9611 13.7919 7.32975 9.46571 11.2211 6.72827C13.9764 4.7974 16.8768 4.21081 19.2213 5.13958C22.1458 6.31277 23.741 9.95454 22.6292 12.9364C22.0249 14.574 20.6956 15.796 19.1971 16.1138C17.3602 16.5048 15.4266 15.4294 14.919 13.7185C14.7015 13.0342 14.774 12.252 15.0882 11.5432C14.7257 11.7143 14.3873 11.9832 14.1698 12.3009C13.493 13.303 13.493 14.8673 14.2181 16.1138C15.2574 17.9224 17.5777 18.949 19.7288 18.5579C21.8316 18.1669 23.7168 16.5537 24.5386 14.3784C25.6021 11.6166 24.8045 8.07257 22.6292 5.77508C20.6956 3.81977 17.8919 2.69544 14.919 2.69544ZM48.0316 26.8436C50.4244 29.6788 53.6631 31.8052 57.1919 32.8317C58.2312 33.125 60.769 33.6872 62.0984 32.3184C62.6784 31.7074 62.9201 30.7542 62.6542 29.9232C62.6542 29.8987 62.6301 29.8743 62.6301 29.8254C62.7026 30.2898 62.6784 30.7542 62.5334 31.1697C62.0742 32.4162 60.7448 33.2228 59.343 33.0761C58.207 32.9539 57.1919 32.1962 56.6602 31.023C56.0801 29.7276 56.1768 28.1878 56.926 27.1124C57.1194 26.8436 57.3369 26.5991 57.5786 26.4036C54.6057 27.7479 51.1495 27.8701 48.0316 26.8436ZM60.4548 28.2612C59.8989 28.2856 59.3913 28.53 59.198 28.9211C59.1013 29.1166 59.1013 29.4099 59.2222 29.6543C59.2463 29.7032 59.3672 29.8987 59.5122 29.9232C59.6089 29.8987 59.7539 29.6788 59.7539 29.5565C59.7539 29.581 59.7781 29.6299 59.8022 29.6543L60.4548 28.2612ZM18.0369 29.0922C19.0762 29.2632 20.1639 29.3366 21.2757 29.3121C20.5989 28.9455 20.0188 28.4567 19.5113 27.9679C19.1004 28.4322 18.617 28.8477 18.0369 29.0922ZM16.8526 6.92382C14.9915 6.92382 13.2272 7.99922 12.4296 8.56138C9.14248 10.8833 7.11221 14.5007 7.16055 18.0202C7.18472 21.222 8.9733 24.4972 11.8012 26.5747C12.5746 27.1369 13.4447 27.6257 14.3631 28.0412C14.3148 27.9434 14.2665 27.8701 14.2423 27.7723L13.8798 26.8436L14.774 26.4036C16.6109 25.4748 18.0128 23.8373 19.5113 22.1019C19.9463 21.5886 20.4056 21.0754 20.8648 20.5621C20.6231 20.6355 20.3814 20.6843 20.1155 20.7332C17.046 21.2954 13.8797 19.8533 12.3812 17.2381C11.2452 15.2583 11.2694 12.7897 12.4296 11.1033C13.1063 10.1012 14.2665 9.41684 15.4991 9.22131C16.6351 9.05022 17.7227 9.31907 18.5445 9.97899L20.7681 11.7632C21.179 9.979 20.1639 7.87702 18.4478 7.19266C17.8919 6.99713 17.3602 6.92382 16.8526 6.92382ZM26.1096 23.6906C26.8831 24.1061 27.4148 24.8638 27.584 25.817C27.7048 26.5747 27.584 27.3568 27.2698 28.0168C29.7351 26.9658 31.9829 25.3037 33.3605 22.9329C30.3393 21.6864 27.2456 20.7821 24.5869 21.9064C23.596 22.3219 22.8467 22.9818 22.46 23.7884C22.0491 24.5949 22.0733 25.5482 22.5083 26.2081C22.9192 26.8191 23.7893 27.088 24.3452 26.8191C24.6111 26.6969 24.8045 26.4036 24.877 26.0614C24.9011 25.9392 24.9495 25.5971 24.7803 25.3526L26.1096 23.6906ZM60.769 25.3037C61.3008 25.3037 61.8325 25.3771 62.3642 25.5482C61.6875 25.2549 61.0349 24.9371 60.4065 24.5461L60.5032 24.6927L59.5605 25.3282C59.488 25.3771 59.3913 25.426 59.3188 25.4993C59.7781 25.3771 60.2615 25.3037 60.769 25.3037ZM19.753 25.0593L20.0189 25.3526C19.9947 25.1571 19.9947 24.9616 20.0189 24.766C19.9222 24.8638 19.8497 24.9616 19.753 25.0593ZM56.2976 24.6194C55.8142 24.6927 55.3308 24.8149 54.8474 24.9616C54.5091 25.0593 54.1707 25.1571 53.8081 25.2304C54.6541 25.1327 55.5 24.9127 56.2976 24.6194ZM50.4002 12.6431C50.1343 12.7164 49.8926 12.8386 49.6509 12.9608C47.4032 14.1096 46.1705 17.0914 46.9439 19.5111C47.7174 21.9308 50.4727 23.6173 52.938 23.2018C53.3489 23.1285 53.784 23.0063 54.2432 22.8841C54.7991 22.713 55.3792 22.5663 55.9834 22.4685C56.3943 22.4197 56.781 22.3952 57.1436 22.4441C56.5635 22.2975 55.8867 22.3952 55.1375 22.493C54.4849 22.5907 53.8323 22.6641 53.1314 22.6396C51.512 22.5419 49.941 21.5642 48.9742 20.0244C48.0074 18.4846 47.7657 16.6515 48.3458 15.1117C48.7808 14.0363 49.5301 13.1808 50.4002 12.6431ZM51.5604 14.4762C51.0286 14.794 50.5936 15.3317 50.4002 15.8694C50.0618 16.7737 50.2068 17.8736 50.8111 18.8268C51.4153 19.78 52.3338 20.3666 53.3006 20.4399C53.5906 20.4644 53.8806 20.4399 54.1707 20.4155L54.1223 19.9511C53.1314 20.0489 52.1162 19.7311 51.4153 19.0223C50.7869 18.3868 50.4485 17.4581 50.5211 16.5293C50.5936 15.6983 50.9561 14.965 51.5604 14.4762ZM41.3366 18.6068C41.3366 18.8023 41.4091 18.9734 41.5057 19.0712C41.5541 19.1201 41.6024 19.1201 41.6749 19.1201C41.8441 19.0956 41.965 19.0956 42.0616 18.2157C41.9891 18.1913 41.8925 18.1669 41.7233 18.1669C41.4332 18.1669 41.3607 18.1669 41.3366 18.6068ZM53.1797 16.0893C53.083 16.0893 52.9864 16.1138 52.9139 16.1627C52.7688 16.2604 52.6722 16.4804 52.648 16.7248C52.6238 17.0181 52.7205 17.3359 52.8897 17.507C53.1314 17.7514 53.5181 17.8491 53.9048 17.8247L53.784 16.4804C53.7598 16.3582 53.6148 16.236 53.4939 16.1871C53.4214 16.1138 53.3006 16.0893 53.1797 16.0893ZM31.5961 16.6515C32.5871 16.8226 33.5539 17.0914 34.4482 17.3358C34.6899 15.9916 34.6899 14.9406 34.4482 13.963C34.1098 12.5453 33.1914 11.421 32.1037 11.0544C32.0796 11.0544 32.0795 11.0544 32.0554 11.03C32.7563 11.3722 33.288 12.0565 33.5056 12.9364C33.7714 14.0607 33.4331 15.2583 32.6355 15.9916C32.3212 16.2849 31.9829 16.5049 31.5961 16.6515ZM26.6655 14.7206C26.6172 14.8917 26.5688 15.0384 26.4963 15.2095C26.2546 15.8449 25.9405 16.4559 25.5779 16.9937C25.6504 16.9692 25.6987 16.9448 25.7712 16.9204C26.6414 16.6026 27.5115 16.456 28.4058 16.4071C28.1157 16.2604 27.8257 16.0649 27.5598 15.8205C27.2214 15.5272 26.9072 15.1361 26.6655 14.7206ZM17.6986 11.9099C17.4327 11.9099 17.2393 12.1543 17.1668 12.2276C16.9493 12.4964 16.8526 12.8631 16.9493 13.1319C17.1427 13.7674 17.9886 14.1829 18.7379 14.0363C19.5113 13.8652 20.2605 13.1564 20.5989 12.2276C20.5989 12.2276 20.5989 12.2032 20.6231 12.2032L17.7469 11.9343C17.7227 11.9099 17.6986 11.9099 17.6986 11.9099ZM31.4511 10.9811C31.0402 10.9811 30.6535 11.0789 30.291 11.2744C29.8559 11.5188 29.5417 11.861 29.4209 12.2765C29.2759 12.7653 29.445 13.3519 29.7834 13.6452C30.0976 13.8896 30.6052 13.8896 30.8469 13.6208C30.9436 13.523 30.9919 13.3519 30.9677 13.1564C30.9436 13.0097 30.8952 12.912 30.8227 12.8631L31.6445 10.9566C31.5478 10.9811 31.4995 10.9811 31.4511 10.9811ZM51.8262 7.41264C52.0196 7.41264 52.2371 7.43707 52.4305 7.46151C54.8958 7.73037 57.2161 8.92801 58.9563 10.7122C58.7871 10.4923 58.6663 10.2234 58.5696 9.95455C58.207 8.9769 58.4487 7.77926 59.198 6.92382C59.6572 6.3861 60.2615 6.04392 60.914 5.97059C60.8899 5.97059 60.8657 5.94616 60.8415 5.94616C57.9895 5.11515 54.8958 6.1417 51.9712 7.36377C51.8987 7.38821 51.8504 7.3882 51.8262 7.41264ZM62.8718 7.43708L62.0258 7.97481C61.8566 8.07257 61.76 8.34141 61.8083 8.53694C61.8566 8.73247 62.0742 8.90356 62.2675 8.90356C62.4609 8.90356 62.6059 8.75692 62.7026 8.63471C62.9201 8.31697 62.9926 7.87702 62.8959 7.55929C62.8959 7.5104 62.8959 7.48596 62.8718 7.43708Z" fill="url(#paint0_linear_85_3464)"/>
<path d="M71.6929 29.1414C69.6385 29.1414 67.9466 28.1148 66.6173 26.1106C65.7714 24.8152 65.8922 23.5443 66.0131 22.5178C66.0372 22.3467 66.0372 22.1756 66.0614 22.0045C66.1823 20.4891 67.0524 19.1693 68.4059 18.4849C69.7594 17.8006 71.3304 17.8494 72.6356 18.6804C74.0616 19.5848 74.69 21.5645 74.0616 23.2265C73.9891 23.4221 73.8924 23.6176 73.7957 23.7887C73.9649 23.642 74.0858 23.471 74.2066 23.2754C75.1492 21.8334 74.9317 20.0492 73.6507 18.9982C71.8621 17.5073 69.856 17.1895 67.7291 18.0694C66.8348 18.436 65.9647 19.0226 65.0463 19.6092C64.6112 19.9025 64.152 20.1958 63.6928 20.4891L62.7985 21.0268L62.2426 20.1469C61.5175 18.9982 60.6957 17.6783 62.1701 16.5051C65.0221 14.1832 68.9376 11.7635 73.9649 13.45C75.0767 13.8166 76.2369 14.3543 77.542 15.0387C78.2671 15.4297 78.9922 15.8452 79.6931 16.2363C82.0134 17.5806 84.2129 18.8271 86.7265 19.4137C87.5241 19.6092 88.3459 19.7314 89.2402 19.8781C89.6752 19.9514 90.1345 20.0247 90.5937 20.098L93.9533 20.7091L90.8596 22.1511C88.6118 23.2021 86.5573 23.5443 84.5996 23.2265C83.2461 23.0066 81.9651 22.6644 80.6116 22.2978C80.3941 22.2489 80.1523 22.1756 79.9107 22.1022C79.8623 22.3955 79.7898 22.7133 79.7415 23.0066C79.2581 25.5974 77.7596 27.4305 75.3668 28.2859C74.5692 28.5792 73.7715 28.7992 72.9981 28.9458C72.5389 29.0925 72.1038 29.1414 71.6929 29.1414ZM70.0494 15.4053C71.8138 15.4053 73.4815 16.0408 75.0042 17.3117C77.1312 19.0959 77.542 22.1023 75.971 24.4731C75.1251 25.744 73.8199 26.5994 72.3939 26.8927C72.4422 26.8927 72.5147 26.8683 72.5872 26.8683C73.2398 26.7461 73.9407 26.5506 74.6175 26.3062C76.2852 25.6951 77.252 24.5219 77.5904 22.6644C77.687 22.1756 77.7837 21.6623 77.8804 21.1979C77.9287 21.0024 77.9529 20.8068 78.0012 20.6113L78.2188 19.5115L79.3064 19.7803C79.9348 19.9269 80.5391 20.098 81.1191 20.2447C82.3035 20.5624 83.4153 20.8557 84.5271 21.0513C82.4001 20.318 80.4907 19.1937 78.6055 18.1427C77.9287 17.7517 77.2036 17.3362 76.5027 16.9695C75.3184 16.3341 74.2549 15.8697 73.264 15.5275C70.5328 14.5987 68.0191 15.0631 65.0704 17.0429C65.6505 16.6763 66.2548 16.3585 66.9074 16.0897C67.9708 15.6253 69.0101 15.4053 70.0494 15.4053ZM70.7987 21.4179L70.9195 21.8823C70.9195 21.9067 70.9437 21.9311 70.9437 21.9556C70.992 21.9311 70.992 21.9067 70.992 21.9067C70.992 21.9067 70.992 21.7845 70.8954 21.589C70.8712 21.5401 70.847 21.4668 70.7987 21.4179Z" fill="url(#paint1_linear_85_3464)"/>
<path d="M84.8184 26.3309C83.5858 26.3309 82.3048 26.2331 80.9271 26.0131C80.1537 25.8909 79.211 25.7443 78.7518 24.9622C78.2926 24.18 78.6551 23.2757 78.921 22.5669L79.2594 21.7114L80.1536 21.907C80.6854 22.0048 81.1688 22.1514 81.6522 22.2736C82.6915 22.5425 83.6824 22.7869 84.6734 22.8602C86.0269 22.9579 87.5496 22.8846 89.2173 22.5913C90.1599 22.4447 91.1025 22.1514 92.0693 21.8337C92.5044 21.687 92.9636 21.5404 93.4228 21.4182L97 20.3916L94.5105 23.1779C94.1238 23.6179 93.6645 23.96 93.0844 24.3022C90.6191 25.6709 87.9363 26.3309 84.8184 26.3309Z" fill="url(#paint2_linear_85_3464)"/>
<path d="M44.7195 23.813C48.6834 27.0392 54.75 27.3081 58.9555 24.4484C58.3271 23.6174 57.1669 23.3975 56.1276 23.5441C55.0883 23.6908 54.1215 24.1063 53.1064 24.2774C50.0852 24.7906 46.8465 22.7864 45.9038 19.8535C44.9612 16.9205 46.4114 13.3765 49.1426 11.9833C50.5686 11.2501 52.333 11.1034 53.8073 11.7389C55.2817 12.3744 56.4419 13.8409 56.5385 15.454C56.611 16.5783 56.1518 17.7759 55.2334 18.4359C54.3149 19.0958 52.9372 19.0714 52.1396 18.2648C51.342 17.4582 51.3662 15.9428 52.2847 15.2829C53.2031 14.623 54.75 15.234 54.8466 16.3583C55.4509 14.9896 54.2424 13.2787 52.7681 13.1321C51.2937 12.9854 49.8918 14.1097 49.3601 15.5029C48.3691 18.0937 50.4477 21.3689 53.2031 21.5399C54.7016 21.6377 56.2243 20.9778 57.6262 21.4666C58.3513 21.711 58.9313 22.2487 59.5597 22.7131C61.4208 24.1307 63.6203 25.1084 65.9164 25.4994C65.9647 24.1063 64.442 23.2997 63.4511 22.3465C61.2758 20.269 61.2033 16.8472 59.9465 14.1098C58.5446 11.1035 55.5476 8.90371 52.2605 8.56153C48.9734 8.21936 45.5896 9.68584 43.5836 12.35C45.1788 9.3681 48.3692 7.7061 51.4629 6.41071C54.5083 5.11532 57.892 4.01545 61.0583 4.94423C62.2667 5.2864 63.4753 6.04409 63.8861 7.24172C64.297 8.43935 63.4752 10.0525 62.2184 10.028C61.5417 10.0036 60.9133 9.51477 60.7441 8.85485C60.5749 8.19493 60.8649 7.43723 61.4208 7.09505C60.164 6.8262 59.0522 8.4149 59.5114 9.61253C59.9464 10.8346 61.4692 11.3968 62.7018 11.0546C64.1037 10.6635 65.1671 9.24591 65.143 7.77942C65.1188 4.94422 61.9042 3.91769 59.6322 3.69772C56.7077 3.40442 53.7348 4.08876 51.1003 5.35972C47.499 7.07062 44.4537 9.78362 41.65 12.6433C42.6409 9.46588 41.9642 5.77521 39.8614 3.18443C37.5895 5.45748 36.5743 8.9526 37.2752 12.1055C36.5501 10.2724 35.0516 8.7082 33.1906 8.12161C31.3053 7.55946 29.0817 8.12159 27.8732 9.6614C26.6647 11.2012 26.7614 13.7431 28.2116 15.0385C29.2025 15.9184 30.8702 16.1384 31.837 15.234C32.8038 14.3297 32.5621 12.35 31.2812 11.9833C32.0546 12.4722 32.1754 13.7431 31.547 14.403C30.9186 15.063 29.7584 15.0874 29.0334 14.5252C28.3083 13.9631 28.0424 12.8877 28.3083 12.0078C28.7675 10.3947 30.7736 9.56365 32.3446 10.0769C33.9398 10.5902 35.0275 12.13 35.4142 13.7676C35.8009 15.4051 35.5592 17.116 35.1725 18.7536C32.1996 17.8493 28.985 16.945 26.0605 17.9959C21.5166 19.6091 19.4863 25.255 15.1358 27.4059C15.45 28.2369 16.5859 28.5302 17.4077 28.188C18.2295 27.8458 18.8337 27.1126 19.3171 26.3549C20.1631 27.3325 21.1299 28.2613 22.3142 28.7013C23.4985 29.1412 25.0212 28.9946 25.8671 28.0414C26.7131 27.0881 26.6164 25.3039 25.4804 24.6929C26.2297 25.6461 25.7704 27.2592 24.6828 27.7969C23.5952 28.3346 22.1692 27.8458 21.4924 26.8437C20.8157 25.8416 20.8157 24.424 21.3716 23.3241C21.9275 22.2243 22.9184 21.4177 24.0544 20.9289C27.4623 19.4869 31.3295 20.9533 34.7374 22.3954C32.5138 27.4059 26.9064 30.1922 21.4682 30.4122C17.7944 30.5588 14.0239 29.6545 11.0511 27.4792C8.07818 25.3039 5.99958 21.7599 5.97541 18.0448C5.92708 13.9387 8.36823 10.0525 11.7278 7.68165C13.7581 6.23961 16.4168 5.28639 18.7129 6.21517C21.0815 7.16838 22.4109 10.1991 21.5166 12.6188C21.0815 13.8165 20.0906 14.843 18.8579 15.1118C17.6252 15.3807 16.1992 14.6719 15.8367 13.4743C15.4741 12.2767 16.4893 10.7613 17.7461 10.8835C16.3926 9.80805 14.1931 10.3213 13.2022 11.7634C12.2112 13.2054 12.3321 15.234 13.2022 16.725C14.4832 18.9736 17.2869 20.1468 19.8247 19.7068C22.3625 19.2669 24.5136 17.2871 25.4321 14.8674C26.6889 11.5923 25.6979 7.65721 23.281 5.1153C20.864 2.5734 17.2385 1.40021 13.7823 1.69351C11.2686 1.91348 8.8033 2.84226 6.84555 4.47983C4.47691 6.45959 2.97838 9.31923 2.05993 12.3011C0.97229 15.8206 0.63392 19.6335 1.55237 23.1775C2.85754 28.2613 6.72469 32.5141 11.4861 34.665C16.2476 36.8158 21.7583 36.938 26.7614 35.4471C31.5953 34.005 36.1151 30.9254 38.5079 26.4527C37.9762 29.5567 39.4989 32.9541 42.1817 34.5672C43.3177 31.3898 43.6802 27.9436 43.221 24.5951C45.2029 27.1126 47.2815 29.5567 49.7952 31.5365C52.3088 33.4918 55.2817 34.9583 58.4238 35.3004C60.6474 35.5204 63.2335 35.0071 64.442 33.1007C65.6989 31.0721 64.7562 28.0902 62.6777 26.9659C61.0824 26.086 58.8105 26.3549 57.7712 27.8702C56.7319 29.3856 57.602 31.952 59.4147 32.1231C60.2607 32.2208 61.1791 31.732 61.4692 30.9254C61.7592 30.1189 61.2758 29.0679 60.4299 28.8968C61.2516 29.6056 60.3815 31.2432 59.2939 31.0721C58.2062 30.901 57.6503 29.4589 58.1821 28.4813C58.6896 27.5036 59.9465 27.1126 61.0099 27.3081C62.2184 27.5525 63.2819 28.5057 63.6444 29.7033C64.007 30.901 63.6928 32.2942 62.8227 33.174C61.3483 34.6894 58.883 34.5428 56.8527 33.9562C51.7287 32.3919 47.209 28.6524 44.7195 23.813ZM40.2481 18.5825C40.2965 17.7271 40.6832 17.0916 41.6741 17.0672C42.4717 17.0672 43.1968 17.4093 43.1002 18.3137C43.0277 19.1202 42.8584 20.0735 41.7466 20.1957C40.9007 20.269 40.2481 19.5846 40.2481 18.5825Z" fill="url(#paint3_linear_85_3464)"/>
<path d="M63.1366 19.5608C64.5626 18.6809 65.8436 17.6544 67.318 17.0678C69.7833 16.0412 72.2003 16.3834 74.3272 18.1432C76.0191 19.5608 76.3333 21.956 75.1006 23.8625C73.8922 25.6956 71.3785 26.4532 69.59 25.5245C68.744 25.0845 67.9947 23.5936 68.0914 22.4937C68.1881 21.4183 68.5023 20.4895 69.6866 20.1474C70.6776 19.8541 71.451 20.1718 71.9102 21.0762C72.2486 21.7361 72.2244 22.4693 71.4752 22.8848C70.7017 23.3003 70.17 22.9826 69.9283 22.1271C69.3241 23.1292 69.6866 24.0091 70.7743 24.1313C71.8377 24.2535 72.6595 23.8625 73.0704 22.7871C73.5055 21.6383 73.0462 20.1718 72.0794 19.5608C70.025 18.2654 67.3422 19.6341 67.1488 22.0538C67.0521 23.2026 66.7863 24.3024 67.5355 25.4512C68.8165 27.4065 70.5326 28.3353 72.8045 27.8953C73.5538 27.7487 74.3031 27.5531 75.004 27.2843C77.0826 26.5266 78.2669 25.0112 78.6778 22.8359C78.7986 22.1271 78.9678 21.4183 79.0886 20.8073C81.0706 21.2961 82.8833 21.8583 84.7685 22.176C86.6538 22.4938 88.4907 22.0782 90.4001 21.1984C88.9741 20.9295 87.7173 20.7584 86.4846 20.4896C83.0283 19.683 80.1279 17.6543 77.0342 15.9923C75.9466 15.4057 74.8106 14.868 73.6263 14.477C69.4449 13.0594 65.9887 14.7703 62.8224 17.3366C62.1699 17.8743 62.2907 18.2165 63.1366 19.5608Z" fill="url(#paint4_linear_85_3464)"/>
<path d="M79.9345 22.982C79.3545 24.4974 79.4753 24.7174 81.0947 24.9618C85.0585 25.5484 88.9499 25.3773 92.5511 23.3731C92.962 23.1531 93.3487 22.8598 93.7113 22.4688C92.2611 22.8843 90.8593 23.422 89.3849 23.6664C87.8139 23.9352 86.1945 24.0574 84.5993 23.9352C83.0524 23.813 81.5539 23.3242 79.9345 22.982Z" fill="url(#paint5_linear_85_3464)"/>
<defs>
<linearGradient id="paint0_linear_85_3464" x1="33.5026" y1="0.5" x2="33.5026" y2="37.5" gradientUnits="userSpaceOnUse">
<stop stop-color="#66A3B0"/>
<stop offset="1" stop-color="#A3C8D0"/>
</linearGradient>
<linearGradient id="paint1_linear_85_3464" x1="77.6514" y1="12.8867" x2="77.6514" y2="29.1414" gradientUnits="userSpaceOnUse">
<stop stop-color="#66A3B0"/>
<stop offset="1" stop-color="#A3C8D0"/>
</linearGradient>
<linearGradient id="paint2_linear_85_3464" x1="87.7661" y1="20.3916" x2="87.7661" y2="26.3309" gradientUnits="userSpaceOnUse">
<stop stop-color="#66A3B0"/>
<stop offset="1" stop-color="#A3C8D0"/>
</linearGradient>
<linearGradient id="paint3_linear_85_3464" x1="33.4692" y1="1.64941" x2="33.4692" y2="36.4428" gradientUnits="userSpaceOnUse">
<stop stop-color="#3C7886"/>
<stop offset="0.5" stop-color="#4891A1"/>
<stop offset="1" stop-color="#66A3B0"/>
</linearGradient>
<linearGradient id="paint4_linear_85_3464" x1="76.4029" y1="13.9648" x2="76.4029" y2="28.0028" gradientUnits="userSpaceOnUse">
<stop stop-color="#3C7886"/>
<stop offset="0.5" stop-color="#4891A1"/>
<stop offset="1" stop-color="#66A3B0"/>
</linearGradient>
<linearGradient id="paint5_linear_85_3464" x1="86.6642" y1="22.4688" x2="86.6642" y2="25.257" gradientUnits="userSpaceOnUse">
<stop stop-color="#3C7886"/>
<stop offset="0.5" stop-color="#4891A1"/>
<stop offset="1" stop-color="#66A3B0"/>
</linearGradient>
</defs>
</svg>
