<svg width="390" height="852" viewBox="0 0 390 852" fill="none" xmlns="http://www.w3.org/2000/svg">
<g opacity="0.08">
<path d="M95.7133 -29.1334C94.3961 -29.9005 84.9928 -34.8941 76.323 -31.8546C68.0868 -28.9597 65.4525 -20.5212 65.069 -19.2909C62.8516 -12.1407 65.7693 -6.06156 67.3532 -2.77592C70.3542 3.47693 73.0886 3.78092 77.4068 10.0193C82.8253 17.8643 83.9591 25.2895 84.9094 31.5713C86.4933 42.1375 84.7927 51.0102 83.9924 55.0919C82.6086 61.9961 81.1414 64.5001 78.9573 71.4188C78.5239 72.8083 73.6554 88.4115 73.4053 100.961C73.0719 117.635 80.6246 142.805 99.3979 148.653C100.265 148.928 111.869 152.358 120.305 146.786C127.608 141.966 129.325 132.514 126.741 125.856C123.64 117.881 115.67 116.752 109.618 111.006C98.3976 100.324 103.933 83.2297 107.434 64.1238C110.502 47.2903 121.739 -13.9789 95.7133 -29.1334Z" fill="url(#paint0_linear_0_1)"/>
<path d="M103.132 -29.2358C101.815 -28.1792 107.4 -22.9829 111.702 -11.8668C114.586 -4.42703 115.27 1.47847 115.887 7.02208C118.738 32.9743 110.385 42.0785 117.421 59.462C119.371 64.2964 121.789 67.9439 125.59 70.969C132.993 76.8745 142.28 77.6561 146.381 77.7719C143.43 72.3586 139.362 63.703 137.094 52.6447C131.192 23.8845 144.114 11.4801 134.243 -6.59813C125.39 -22.7224 105.216 -30.9148 103.132 -29.2358Z" fill="#3C7886"/>
<path d="M124.508 113.206C120.256 113.206 115.905 111.382 112.587 108.212C108.969 104.753 107.169 100.324 107.652 96.0685C108.152 91.5959 111.253 85.5458 123.208 82.0285C125.925 81.2325 128.793 80.8271 131.727 80.8271C133.878 80.8271 136.029 81.0443 138.163 81.4785L146.366 83.143L144.615 90.3077C143.915 93.1881 142.881 95.9961 141.531 98.6883C138.413 104.927 134.545 112.699 125.325 113.206C125.058 113.191 124.775 113.206 124.508 113.206Z" fill="#3C7886"/>
<path d="M142.347 93.6804C140.88 97.5595 139.279 100.281 138.245 102.061C136.195 105.549 135.128 107.315 133.16 108.734C132.21 109.414 129.326 111.484 125.574 111.455C120.272 111.397 114.92 107.243 114.404 103.074C113.587 96.3581 125.558 90.8145 130.743 88.4262C136.395 85.8064 141.563 84.6485 144.948 84.084C144.298 87.9631 143.281 91.2053 142.347 93.6804Z" fill="white" fill-opacity="0.35"/>
<path d="M135.494 74.5012C133.827 73.8643 124.64 70.376 125.29 65.9325C125.84 62.1692 133.226 59.0428 136.544 60.6639C138.828 61.7784 138.061 64.5719 140.979 70.6945C142.13 73.1117 143.347 75.0078 144.23 76.2381C142.213 76.1513 139.028 75.8328 135.494 74.5012Z" fill="white" fill-opacity="0.35"/>
<path d="M107.451 145.15C115.757 145.15 122.49 139.304 122.49 132.094C122.49 124.883 115.757 119.038 107.451 119.038C99.1457 119.038 92.4126 124.883 92.4126 132.094C92.4126 139.304 99.1457 145.15 107.451 145.15Z" fill="#3C7886"/>
<path d="M225.384 -164.089C224.067 -164.857 214.663 -169.85 205.993 -166.811C197.757 -163.916 195.123 -155.477 194.739 -154.247C192.522 -147.097 195.44 -141.018 197.024 -137.732C200.025 -131.479 202.759 -131.175 207.077 -124.937C212.496 -117.092 213.629 -109.667 214.58 -103.385C216.164 -92.8186 214.463 -83.9459 213.663 -79.8642C212.279 -72.96 210.812 -70.456 208.628 -63.5373C208.194 -62.1478 203.326 -46.5446 203.076 -33.9955C202.742 -17.3212 210.295 7.84942 229.068 13.697C229.935 13.972 241.539 17.4024 249.976 11.8298C257.278 7.0099 258.996 -2.44173 256.411 -9.09986C253.31 -17.0751 245.341 -18.2041 239.289 -23.9504C228.068 -34.6323 233.603 -51.7264 237.105 -70.8323C240.172 -87.6658 251.41 -148.935 225.384 -164.089Z" fill="url(#paint1_linear_0_1)"/>
<path d="M237.122 10.1945C245.428 10.1945 252.161 4.34922 252.161 -2.86125C252.161 -10.0717 245.428 -15.917 237.122 -15.917C228.817 -15.917 222.083 -10.0717 222.083 -2.86125C222.083 4.34922 228.817 10.1945 237.122 10.1945Z" fill="#3C7886"/>
<path d="M31.4462 36.6996C30.129 35.9325 20.7257 30.9389 12.056 33.9785C3.8197 36.8733 1.18543 45.3118 0.801957 46.5421C-1.4155 53.6923 1.5022 59.7714 3.08609 63.0571C6.08716 69.3099 8.82146 69.6139 13.1397 75.8523C18.5583 83.6973 19.692 91.1225 20.6423 97.4043C22.2262 107.97 20.5256 116.843 19.7254 120.925C18.3415 127.829 16.8744 130.333 14.6902 137.252C14.2568 138.641 9.38834 154.244 9.13825 166.794C8.8048 183.468 16.3575 208.638 35.1308 214.486C35.9978 214.761 47.6019 218.191 56.0382 212.619C63.3408 207.799 65.0581 198.347 62.4738 191.689C59.3727 183.714 51.4033 182.585 45.3511 176.839C34.1305 166.157 39.6658 149.063 43.167 129.957C46.2348 113.123 57.4721 51.8541 31.4462 36.6996Z" fill="url(#paint2_linear_0_1)"/>
<path d="M38.8652 36.5992C37.5481 37.6558 43.1334 42.852 47.4349 53.9682C50.3193 61.4079 51.0029 67.3134 51.6198 72.857C54.4708 98.8093 46.1178 107.913 53.1536 125.297C55.1043 130.131 57.5218 133.779 61.3232 136.804C68.7258 142.709 78.0124 143.491 82.1139 143.607C79.1628 138.194 75.0948 129.538 72.8273 118.48C66.9252 89.7194 79.8464 77.3151 69.9762 59.2368C61.1231 43.1126 40.9493 34.9202 38.8652 36.5992Z" fill="#3C7886"/>
<path d="M60.2409 179.04C55.9894 179.04 51.6379 177.216 48.32 174.046C44.7021 170.587 42.9014 166.158 43.3849 161.902C43.8851 157.43 46.9862 151.38 58.9404 147.863C61.6581 147.066 64.5258 146.661 67.4602 146.661C69.6109 146.661 71.7617 146.878 73.8958 147.312L82.0987 148.977L80.348 156.142C79.6478 159.022 78.6141 161.83 77.2637 164.522C74.1459 170.761 70.2778 178.533 61.0579 179.04C60.7911 179.025 60.5077 179.04 60.2409 179.04Z" fill="#3C7886"/>
<path d="M78.0798 159.513C76.6126 163.392 75.012 166.114 73.9783 167.894C71.9276 171.382 70.8605 173.148 68.8932 174.567C67.9428 175.247 65.0585 177.317 61.3071 177.288C56.0053 177.23 50.6533 173.076 50.1365 168.907C49.3195 162.191 61.2905 156.647 66.4757 154.259C72.1277 151.639 77.2962 150.481 80.6807 149.917C80.0305 153.796 79.0134 157.038 78.0798 159.513Z" fill="white" fill-opacity="0.35"/>
<path d="M64.1917 2.80144C68.4265 3.20672 72.5113 5.43574 75.4123 8.90955C78.5634 12.6873 79.7972 17.2611 78.7969 21.4442C77.7298 25.8298 73.8785 31.5617 61.5574 33.9209C58.7397 34.4565 55.8387 34.5867 52.9377 34.3117C50.8036 34.1091 48.6862 33.6893 46.6354 33.0525L38.6826 30.6208L41.3336 23.6732C42.4006 20.8797 43.7844 18.173 45.4517 15.64C49.3364 9.73457 54.1715 2.38169 63.3914 2.75802C63.6415 2.75802 63.9082 2.78696 64.1917 2.80144Z" fill="#3C7886"/>
<path d="M44.0006 20.503C45.9513 16.7832 47.8686 14.2357 49.1357 12.5712C51.6199 9.30003 52.9037 7.64994 55.0378 6.43411C56.0715 5.84067 59.206 4.06036 62.924 4.46564C68.1925 5.03013 72.9775 9.67633 72.9609 13.8594C72.9275 20.6188 60.3397 24.9755 54.8711 26.8717C48.919 28.927 43.6338 29.5928 40.1992 29.8389C41.333 26.0177 42.7501 22.8768 44.0006 20.503Z" fill="white" fill-opacity="0.35"/>
<path d="M71.2267 140.335C69.5595 139.698 60.3729 136.21 61.0231 131.766C61.5733 128.003 68.9593 124.877 72.2771 126.498C74.5613 127.612 73.7943 130.406 76.712 136.528C77.8624 138.946 79.0796 140.842 79.9632 142.072C77.9458 141.985 74.7613 141.667 71.2267 140.335Z" fill="white" fill-opacity="0.35"/>
<path d="M48.8699 40.7238C49.7202 41.1435 61.0742 46.8898 59.5903 51.3478C58.74 53.9242 53.7049 55.8204 50.5705 54.6769C47.9862 53.7361 47.8028 51.1307 44.7684 45.2976C43.0344 41.9396 41.3172 39.3632 40.2168 37.8145C42.3009 38.2342 45.452 39.0303 48.8699 40.7238Z" fill="white" fill-opacity="0.35"/>
<path d="M43.1842 210.983C51.4899 210.983 58.2229 205.137 58.2229 197.927C58.2229 190.716 51.4899 184.871 43.1842 184.871C34.8786 184.871 28.1455 190.716 28.1455 197.927C28.1455 205.137 34.8786 210.983 43.1842 210.983Z" fill="#3C7886"/>
<path d="M19.2906 62.4933C27.5962 62.4933 34.3293 56.6481 34.3293 49.4376C34.3293 42.2271 27.5962 36.3818 19.2906 36.3818C10.985 36.3818 4.25195 42.2271 4.25195 49.4376C4.25195 56.6481 10.985 62.4933 19.2906 62.4933Z" fill="#3C7886"/>
<path d="M161.12 -98.2545C159.802 -99.0216 150.399 -104.015 141.729 -100.976C133.493 -98.0808 130.859 -89.6423 130.475 -88.412C128.258 -81.2618 131.176 -75.1827 132.759 -71.897C135.76 -65.6442 138.495 -65.3402 142.813 -59.1018C148.232 -51.2568 149.365 -43.8316 150.316 -37.5498C151.9 -26.9836 150.199 -18.1109 149.399 -14.0292C148.015 -7.12502 146.548 -4.62099 144.364 2.29767C143.93 3.68719 139.062 19.2904 138.812 31.8395C138.478 48.5138 146.031 73.6844 164.804 79.5319C165.671 79.807 177.275 83.2373 185.712 77.6648C193.014 72.8449 194.731 63.3932 192.147 56.7351C189.046 48.7598 181.077 47.6308 175.024 41.8846C163.804 31.2026 169.339 14.1086 172.84 -4.99733C175.908 -21.8308 187.145 -83.1 161.12 -98.2545Z" fill="url(#paint3_linear_0_1)"/>
<path d="M168.538 -98.3559C167.221 -97.2993 172.806 -92.103 177.108 -80.9869C179.992 -73.5471 180.676 -67.6417 181.293 -62.098C184.144 -36.1458 175.791 -27.0416 182.826 -9.6581C184.777 -4.82372 187.195 -1.17621 190.996 1.8489C198.399 7.75437 207.685 8.53599 211.787 8.65178C208.836 3.23844 204.768 -5.41715 202.5 -16.4754C196.598 -45.2356 209.519 -57.64 199.649 -75.7183C190.796 -91.8425 170.622 -100.035 168.538 -98.3559Z" fill="#3C7886"/>
<path d="M189.914 44.0848C185.663 44.0848 181.311 42.2611 177.993 39.0912C174.375 35.6319 172.575 31.2028 173.058 26.9474C173.558 22.4748 176.66 16.4247 188.614 12.9074C191.331 12.1114 194.199 11.7061 197.134 11.7061C199.284 11.7061 201.435 11.9232 203.569 12.3574L211.772 14.0219L210.021 21.1866C209.321 24.067 208.287 26.875 206.937 29.5672C203.819 35.8056 199.951 43.5782 190.731 44.0848C190.464 44.0703 190.181 44.0848 189.914 44.0848Z" fill="#3C7886"/>
<path d="M207.752 24.5593C206.284 28.4384 204.684 31.1595 203.65 32.9399C201.599 36.4281 200.532 38.194 198.565 39.6124C197.615 40.2927 194.73 42.3625 190.979 42.3336C185.677 42.2757 180.325 38.1216 179.808 33.953C178.991 27.237 190.962 21.6934 196.148 19.3051C201.8 16.6853 206.968 15.5274 210.353 14.9629C209.702 18.842 208.685 22.0842 207.752 24.5593Z" fill="white" fill-opacity="0.35"/>
<path d="M200.901 5.38109C199.234 4.74422 190.047 1.25592 190.697 -3.18765C191.248 -6.95094 198.634 -10.0773 201.951 -8.45623C204.236 -7.34172 203.469 -4.54821 206.386 1.57437C207.537 3.99156 208.754 5.8877 209.638 7.11801C207.62 7.03116 204.436 6.71271 200.901 5.38109Z" fill="white" fill-opacity="0.35"/>
<path d="M172.857 76.0294C181.162 76.0294 187.895 70.1842 187.895 62.9737C187.895 55.7632 181.162 49.918 172.857 49.918C164.551 49.918 157.818 55.7632 157.818 62.9737C157.818 70.1842 164.551 76.0294 172.857 76.0294Z" fill="#3C7886"/>
<path d="M95.7133 236.648C94.3961 235.881 84.9928 230.887 76.323 233.927C68.0868 236.822 65.4525 245.26 65.069 246.49C62.8516 253.641 65.7693 259.72 67.3532 263.005C70.3542 269.258 73.0886 269.562 77.4068 275.801C82.8253 283.646 83.9591 291.071 84.9094 297.353C86.4933 307.919 84.7927 316.791 83.9924 320.873C82.6086 327.777 81.1414 330.281 78.9573 337.2C78.5239 338.59 73.6554 354.193 73.4053 366.742C73.0719 383.416 80.6246 408.587 99.3979 414.434C100.265 414.709 111.869 418.14 120.305 412.567C127.608 407.747 129.325 398.296 126.741 391.637C123.64 383.662 115.67 382.533 109.618 376.787C98.3976 366.105 103.933 349.011 107.434 329.905C110.502 313.072 121.739 251.802 95.7133 236.648Z" fill="url(#paint4_linear_0_1)"/>
<path d="M103.132 236.545C101.815 237.602 107.4 242.798 111.702 253.914C114.586 261.354 115.27 267.26 115.887 272.803C118.738 298.756 110.385 307.86 117.421 325.243C119.371 330.078 121.789 333.725 125.59 336.75C132.993 342.656 142.28 343.437 146.381 343.553C143.43 338.14 139.362 329.484 137.094 318.426C131.192 289.666 144.114 277.261 134.243 259.183C125.39 243.059 105.216 234.866 103.132 236.545Z" fill="#3C7886"/>
<path d="M124.508 378.987C120.256 378.987 115.905 377.163 112.587 373.994C108.969 370.534 107.169 366.105 107.652 361.85C108.152 357.377 111.253 351.327 123.208 347.81C125.925 347.014 128.793 346.608 131.727 346.608C133.878 346.608 136.029 346.826 138.163 347.26L146.366 348.924L144.615 356.089C143.915 358.969 142.881 361.777 141.531 364.47C138.413 370.708 134.545 378.481 125.325 378.987C125.058 378.973 124.775 378.987 124.508 378.987Z" fill="#3C7886"/>
<path d="M142.347 359.462C140.88 363.341 139.279 366.062 138.245 367.842C136.195 371.33 135.128 373.096 133.16 374.515C132.21 375.195 129.326 377.265 125.574 377.236C120.272 377.178 114.92 373.024 114.404 368.855C113.587 362.139 125.558 356.596 130.743 354.207C136.395 351.588 141.563 350.43 144.948 349.865C144.298 353.744 143.281 356.987 142.347 359.462Z" fill="white" fill-opacity="0.35"/>
<path d="M128.459 202.749C132.694 203.154 136.778 205.383 139.679 208.857C142.831 212.635 144.064 217.208 143.064 221.391C141.997 225.777 138.146 231.509 125.825 233.868C123.007 234.404 120.106 234.534 117.205 234.259C115.071 234.056 112.953 233.637 110.903 233L102.95 230.568L105.601 223.62C106.668 220.827 108.052 218.12 109.719 215.587C113.603 209.682 118.439 202.329 127.658 202.705C127.909 202.705 128.175 202.734 128.459 202.749Z" fill="#3C7886"/>
<path d="M108.268 220.451C110.218 216.731 112.136 214.184 113.403 212.519C115.887 209.248 117.171 207.598 119.305 206.382C120.339 205.789 123.473 204.009 127.191 204.414C132.46 204.978 137.245 209.625 137.228 213.808C137.195 220.567 124.607 224.924 119.138 226.82C113.186 228.875 107.901 229.541 104.466 229.787C105.6 225.966 107.017 222.825 108.268 220.451Z" fill="white" fill-opacity="0.35"/>
<path d="M135.494 340.282C133.827 339.646 124.64 336.157 125.29 331.714C125.84 327.95 133.226 324.824 136.544 326.445C138.828 327.56 138.061 330.353 140.979 336.476C142.13 338.893 143.347 340.789 144.23 342.019C142.213 341.933 139.028 341.614 135.494 340.282Z" fill="white" fill-opacity="0.35"/>
<path d="M113.136 240.671C113.986 241.091 125.34 246.837 123.856 251.295C123.006 253.871 117.971 255.768 114.837 254.624C112.252 253.683 112.069 251.078 109.034 245.245C107.301 241.887 105.583 239.31 104.483 237.762C106.567 238.181 109.718 238.978 113.136 240.671Z" fill="white" fill-opacity="0.35"/>
<path d="M107.451 410.931C115.757 410.931 122.49 405.086 122.49 397.875C122.49 390.665 115.757 384.819 107.451 384.819C99.1457 384.819 92.4126 390.665 92.4126 397.875C92.4126 405.086 99.1457 410.931 107.451 410.931Z" fill="#3C7886"/>
<path d="M83.5577 262.441C91.8633 262.441 98.5964 256.595 98.5964 249.385C98.5964 242.174 91.8633 236.329 83.5577 236.329C75.2521 236.329 68.519 242.174 68.519 249.385C68.519 256.595 75.2521 262.441 83.5577 262.441Z" fill="#3C7886"/>
<path d="M225.384 101.692C224.067 100.925 214.663 95.9311 205.993 98.9706C197.757 101.865 195.123 110.304 194.739 111.534C192.522 118.685 195.44 124.764 197.024 128.049C200.025 134.302 202.759 134.606 207.077 140.844C212.496 148.689 213.629 156.115 214.58 162.397C216.164 172.963 214.463 181.835 213.663 185.917C212.279 192.821 210.812 195.325 208.628 202.244C208.194 203.633 203.326 219.237 203.076 231.786C202.742 248.46 210.295 273.631 229.068 279.478C229.935 279.753 241.539 283.184 249.976 277.611C257.278 272.791 258.996 263.34 256.411 256.681C253.31 248.706 245.341 247.577 239.289 241.831C228.068 231.149 233.603 214.055 237.105 194.949C240.172 178.115 251.41 116.846 225.384 101.692Z" fill="url(#paint5_linear_0_1)"/>
<path d="M232.803 101.59C231.486 102.647 237.071 107.843 241.372 118.959C244.257 126.399 244.94 132.305 245.557 137.848C248.408 163.8 240.055 172.905 247.091 190.288C249.042 195.123 251.459 198.77 255.261 201.795C262.663 207.701 271.95 208.482 276.051 208.598C273.1 203.185 269.032 194.529 266.765 183.471C260.863 154.711 273.784 142.306 263.914 124.228C255.061 108.104 234.887 99.9114 232.803 101.59Z" fill="#3C7886"/>
<path d="M254.177 244.032C249.926 244.032 245.574 242.208 242.257 239.038C238.639 235.579 236.838 231.15 237.321 226.895C237.822 222.422 240.923 216.372 252.877 212.855C255.595 212.059 258.462 211.653 261.397 211.653C263.547 211.653 265.698 211.87 267.832 212.305L276.035 213.969L274.285 221.134C273.584 224.014 272.551 226.822 271.2 229.514C268.082 235.753 264.214 243.525 254.994 244.032C254.728 244.018 254.444 244.032 254.177 244.032Z" fill="#3C7886"/>
<path d="M272.016 224.506C270.549 228.385 268.949 231.106 267.915 232.886C265.864 236.374 264.797 238.14 262.83 239.559C261.879 240.239 258.995 242.309 255.244 242.28C249.942 242.222 244.59 238.068 244.073 233.899C243.256 227.183 255.227 221.64 260.412 219.251C266.064 216.632 271.233 215.474 274.617 214.909C273.967 218.788 272.95 222.03 272.016 224.506Z" fill="white" fill-opacity="0.35"/>
<path d="M258.129 67.7936C262.364 68.1989 266.449 70.4279 269.35 73.9017C272.501 77.6795 273.735 82.2533 272.734 86.4363C271.667 90.822 267.816 96.5538 255.495 98.9131C252.677 99.4487 249.776 99.5789 246.875 99.3039C244.741 99.1013 242.624 98.6815 240.573 98.0447L232.62 95.613L235.271 88.6654C236.338 85.8719 237.722 83.1652 239.389 80.6322C243.274 74.7268 248.109 67.3739 257.329 67.7502C257.579 67.7502 257.846 67.7792 258.129 67.7936Z" fill="#3C7886"/>
<path d="M237.938 85.4952C239.889 81.7753 241.806 79.2279 243.073 77.5634C245.557 74.2922 246.841 72.6421 248.975 71.4263C250.009 70.8329 253.143 69.0525 256.861 69.4578C262.13 70.0223 266.915 74.6685 266.898 78.8516C266.865 85.611 254.277 89.9677 248.809 91.8638C242.856 93.9192 237.571 94.585 234.137 94.8311C235.27 91.0099 236.688 87.869 237.938 85.4952Z" fill="white" fill-opacity="0.35"/>
<path d="M265.164 205.327C263.497 204.691 254.31 201.202 254.961 196.759C255.511 192.995 262.897 189.869 266.215 191.49C268.499 192.605 267.732 195.398 270.65 201.521C271.8 203.938 273.017 205.834 273.901 207.064C271.883 206.977 268.699 206.659 265.164 205.327Z" fill="white" fill-opacity="0.35"/>
<path d="M242.807 105.716C243.658 106.136 255.012 111.882 253.528 116.34C252.678 118.916 247.642 120.813 244.508 119.669C241.924 118.728 241.74 116.123 238.706 110.29C236.972 106.932 235.255 104.355 234.154 102.807C236.238 103.226 239.389 104.022 242.807 105.716Z" fill="white" fill-opacity="0.35"/>
<path d="M237.122 275.976C245.428 275.976 252.161 270.13 252.161 262.92C252.161 255.71 245.428 249.864 237.122 249.864C228.817 249.864 222.083 255.71 222.083 262.92C222.083 270.13 228.817 275.976 237.122 275.976Z" fill="#3C7886"/>
<path d="M213.228 127.485C221.534 127.485 228.267 121.64 228.267 114.43C228.267 107.219 221.534 101.374 213.228 101.374C204.922 101.374 198.189 107.219 198.189 114.43C198.189 121.64 204.922 127.485 213.228 127.485Z" fill="#3C7886"/>
<path d="M355.054 -33.2633C353.736 -34.0304 344.333 -39.024 335.663 -35.9844C327.427 -33.0896 324.793 -24.6511 324.409 -23.4208C322.192 -16.2706 325.11 -10.1914 326.694 -6.90581C329.695 -0.652958 332.429 -0.348961 336.747 5.88941C342.166 13.7344 343.299 21.1597 344.25 27.4414C345.834 38.0076 344.133 46.8803 343.333 50.962C341.949 57.8662 340.482 60.3702 338.298 67.2889C337.864 68.6784 332.996 84.2816 332.746 96.8307C332.412 113.505 339.965 138.676 358.738 144.523C359.605 144.798 371.209 148.229 379.646 142.656C386.948 137.836 388.666 128.384 386.081 121.726C382.98 113.751 375.011 112.622 368.959 106.876C357.738 96.1938 363.273 79.0998 366.774 59.9939C369.842 43.1604 381.08 -18.1088 355.054 -33.2633Z" fill="url(#paint6_linear_0_1)"/>
<path d="M362.473 -33.3647C361.156 -32.3081 366.741 -27.1118 371.042 -15.9957C373.927 -8.55593 374.61 -2.65044 375.227 2.89317C378.078 28.8454 369.725 37.9496 376.761 55.3331C378.712 60.1675 381.129 63.815 384.931 66.8401C392.333 72.7456 401.62 73.5272 405.721 73.643C402.77 68.2296 398.702 59.5741 396.435 48.5158C390.533 19.7556 403.454 7.35122 393.584 -10.727C384.731 -26.8513 364.557 -35.0437 362.473 -33.3647Z" fill="#3C7886"/>
<path d="M383.848 109.076C379.597 109.076 375.245 107.252 371.927 104.082C368.309 100.623 366.509 96.194 366.992 91.9386C367.493 87.4661 370.594 81.4159 382.548 77.8986C385.266 77.1026 388.133 76.6973 391.068 76.6973C393.218 76.6973 395.369 76.9144 397.503 77.3486L405.706 79.0131L403.955 86.1778C403.255 89.0582 402.222 91.8662 400.871 94.5584C397.753 100.797 393.885 108.569 384.665 109.076C384.399 109.062 384.115 109.076 383.848 109.076Z" fill="#3C7886"/>
<path d="M401.686 89.5505C400.219 93.4296 398.618 96.1507 397.585 97.9311C395.534 101.419 394.467 103.185 392.5 104.604C391.549 105.284 388.665 107.354 384.914 107.325C379.612 107.267 374.26 103.113 373.743 98.9442C372.926 92.2282 384.897 86.6846 390.082 84.2964C395.734 81.6765 400.903 80.5186 404.287 79.9541C403.637 83.8332 402.62 87.0754 401.686 89.5505Z" fill="white" fill-opacity="0.35"/>
<path d="M394.835 70.3713C393.168 69.7345 383.981 66.2462 384.632 61.8026C385.182 58.0393 392.568 54.9129 395.886 56.534C398.17 57.6485 397.403 60.442 400.32 66.5646C401.471 68.9818 402.688 70.8779 403.572 72.1082C401.554 72.0214 398.37 71.7029 394.835 70.3713Z" fill="white" fill-opacity="0.35"/>
<path d="M366.792 141.02C375.097 141.02 381.83 135.174 381.83 127.964C381.83 120.753 375.097 114.908 366.792 114.908C358.486 114.908 351.753 120.753 351.753 127.964C351.753 135.174 358.486 141.02 366.792 141.02Z" fill="#3C7886"/>
<path d="M31.4462 302.481C30.129 301.714 20.7257 296.72 12.056 299.76C3.8197 302.655 1.18543 311.093 0.801957 312.323C-1.4155 319.474 1.5022 325.553 3.08609 328.838C6.08716 335.091 8.82146 335.395 13.1397 341.634C18.5583 349.479 19.692 356.904 20.6423 363.186C22.2262 373.752 20.5256 382.624 19.7254 386.706C18.3415 393.61 16.8744 396.114 14.6902 403.033C14.2568 404.423 9.38834 420.026 9.13825 432.575C8.8048 449.249 16.3575 474.42 35.1308 480.267C35.9978 480.542 47.6019 483.973 56.0382 478.4C63.3408 473.58 65.0581 464.129 62.4738 457.47C59.3727 449.495 51.4033 448.366 45.3511 442.62C34.1305 431.938 39.6658 414.844 43.167 395.738C46.2348 378.905 57.4721 317.635 31.4462 302.481Z" fill="url(#paint7_linear_0_1)"/>
<path d="M38.8652 302.38C37.5481 303.437 43.1334 308.633 47.4349 319.749C50.3193 327.189 51.0029 333.095 51.6198 338.638C54.4708 364.591 46.1178 373.695 53.1536 391.078C55.1043 395.913 57.5218 399.56 61.3232 402.585C68.7258 408.491 78.0124 409.272 82.1139 409.388C79.1628 403.975 75.0948 395.319 72.8273 384.261C66.9252 355.501 79.8464 343.096 69.9762 325.018C61.1231 308.894 40.9493 300.701 38.8652 302.38Z" fill="#3C7886"/>
<path d="M60.2409 444.821C55.9894 444.821 51.6379 442.997 48.32 439.828C44.7021 436.368 42.9014 431.939 43.3849 427.684C43.8851 423.211 46.9862 417.161 58.9404 413.644C61.6581 412.848 64.5258 412.442 67.4602 412.442C69.6109 412.442 71.7617 412.66 73.8958 413.094L82.0987 414.758L80.348 421.923C79.6478 424.803 78.6141 427.611 77.2637 430.304C74.1459 436.542 70.2778 444.315 61.0579 444.821C60.7911 444.807 60.5077 444.821 60.2409 444.821Z" fill="#3C7886"/>
<path d="M78.0798 425.295C76.6126 429.174 75.012 431.895 73.9783 433.675C71.9276 437.163 70.8605 438.929 68.8932 440.348C67.9428 441.028 65.0585 443.098 61.3071 443.069C56.0053 443.011 50.6533 438.857 50.1365 434.688C49.3195 427.972 61.2905 422.429 66.4757 420.04C72.1277 417.421 77.2962 416.263 80.6807 415.698C80.0305 419.577 79.0134 422.82 78.0798 425.295Z" fill="white" fill-opacity="0.35"/>
<path d="M64.1917 268.583C68.4265 268.988 72.5113 271.217 75.4123 274.691C78.5634 278.469 79.7972 283.042 78.7969 287.225C77.7298 291.611 73.8785 297.343 61.5574 299.702C58.7397 300.238 55.8387 300.368 52.9377 300.093C50.8036 299.89 48.6862 299.471 46.6354 298.834L38.6826 296.402L41.3336 289.454C42.4006 286.661 43.7844 283.954 45.4517 281.421C49.3364 275.516 54.1715 268.163 63.3914 268.539C63.6415 268.539 63.9082 268.568 64.1917 268.583Z" fill="#3C7886"/>
<path d="M44.0006 286.284C45.9513 282.564 47.8686 280.017 49.1357 278.352C51.6199 275.081 52.9037 273.431 55.0378 272.215C56.0715 271.622 59.206 269.842 62.924 270.247C68.1925 270.811 72.9775 275.458 72.9609 279.641C72.9275 286.4 60.3397 290.757 54.8711 292.653C48.919 294.708 43.6338 295.374 40.1992 295.62C41.333 291.799 42.7501 288.658 44.0006 286.284Z" fill="white" fill-opacity="0.35"/>
<path d="M71.2267 406.116C69.5595 405.48 60.3729 401.991 61.0231 397.548C61.5733 393.784 68.9593 390.658 72.2771 392.279C74.5613 393.394 73.7943 396.187 76.712 402.31C77.8624 404.727 79.0796 406.623 79.9632 407.853C77.9458 407.767 74.7613 407.448 71.2267 406.116Z" fill="white" fill-opacity="0.35"/>
<path d="M48.8699 306.505C49.7202 306.925 61.0742 312.671 59.5903 317.129C58.74 319.705 53.7049 321.602 50.5705 320.458C47.9862 319.517 47.8028 316.912 44.7684 311.079C43.0344 307.721 41.3172 305.144 40.2168 303.596C42.3009 304.015 45.452 304.812 48.8699 306.505Z" fill="white" fill-opacity="0.35"/>
<path d="M43.1842 476.764C51.4899 476.764 58.2229 470.919 58.2229 463.708C58.2229 456.498 51.4899 450.652 43.1842 450.652C34.8786 450.652 28.1455 456.498 28.1455 463.708C28.1455 470.919 34.8786 476.764 43.1842 476.764Z" fill="#3C7886"/>
<path d="M19.2906 328.275C27.5962 328.275 34.3293 322.429 34.3293 315.219C34.3293 308.008 27.5962 302.163 19.2906 302.163C10.985 302.163 4.25195 308.008 4.25195 315.219C4.25195 322.429 10.985 328.275 19.2906 328.275Z" fill="#3C7886"/>
<path d="M161.12 167.527C159.802 166.76 150.399 161.766 141.729 164.806C133.493 167.7 130.859 176.139 130.475 177.369C128.258 184.519 131.176 190.599 132.759 193.884C135.76 200.137 138.495 200.441 142.813 206.679C148.232 214.524 149.365 221.95 150.316 228.231C151.9 238.798 150.199 247.67 149.399 251.752C148.015 258.656 146.548 261.16 144.364 268.079C143.93 269.468 139.062 285.072 138.812 297.621C138.478 314.295 146.031 339.466 164.804 345.313C165.671 345.588 177.275 349.019 185.712 343.446C193.014 338.626 194.731 329.174 192.147 322.516C189.046 314.541 181.077 313.412 175.024 307.666C163.804 296.984 169.339 279.89 172.84 260.784C175.908 243.95 187.145 182.681 161.12 167.527Z" fill="url(#paint8_linear_0_1)"/>
<path d="M168.538 167.425C167.221 168.482 172.806 173.678 177.108 184.794C179.992 192.234 180.676 198.14 181.293 203.683C184.144 229.635 175.791 238.74 182.826 256.123C184.777 260.958 187.195 264.605 190.996 267.63C198.399 273.536 207.685 274.317 211.787 274.433C208.836 269.02 204.768 260.364 202.5 249.306C196.598 220.546 209.519 208.141 199.649 190.063C190.796 173.939 170.622 165.746 168.538 167.425Z" fill="#3C7886"/>
<path d="M189.914 309.866C185.663 309.866 181.311 308.042 177.993 304.872C174.375 301.413 172.575 296.984 173.058 292.729C173.558 288.256 176.66 282.206 188.614 278.689C191.331 277.893 194.199 277.487 197.134 277.487C199.284 277.487 201.435 277.704 203.569 278.139L211.772 279.803L210.021 286.968C209.321 289.848 208.287 292.656 206.937 295.348C203.819 301.587 199.951 309.359 190.731 309.866C190.464 309.852 190.181 309.866 189.914 309.866Z" fill="#3C7886"/>
<path d="M207.752 290.341C206.284 294.22 204.684 296.941 203.65 298.721C201.599 302.209 200.532 303.975 198.565 305.394C197.615 306.074 194.73 308.144 190.979 308.115C185.677 308.057 180.325 303.903 179.808 299.734C178.991 293.018 190.962 287.475 196.148 285.086C201.8 282.467 206.968 281.309 210.353 280.744C209.702 284.623 208.685 287.865 207.752 290.341Z" fill="white" fill-opacity="0.35"/>
<path d="M193.865 133.629C198.1 134.034 202.185 136.263 205.086 139.737C208.237 143.514 209.471 148.088 208.47 152.271C207.403 156.657 203.552 162.389 191.231 164.748C188.413 165.284 185.512 165.414 182.611 165.139C180.477 164.936 178.359 164.516 176.309 163.88L168.356 161.448L171.007 154.5C172.074 151.707 173.458 149 175.125 146.467C179.01 140.562 183.845 133.209 193.065 133.585C193.315 133.585 193.582 133.614 193.865 133.629Z" fill="#3C7886"/>
<path d="M173.675 151.331C175.626 147.611 177.543 145.064 178.81 143.399C181.294 140.128 182.578 138.478 184.712 137.262C185.746 136.669 188.88 134.888 192.598 135.294C197.867 135.858 202.652 140.504 202.635 144.687C202.602 151.447 190.014 155.804 184.545 157.7C178.593 159.755 173.308 160.421 169.874 160.667C171.007 156.846 172.424 153.705 173.675 151.331Z" fill="white" fill-opacity="0.35"/>
<path d="M200.901 271.162C199.234 270.525 190.047 267.037 190.697 262.594C191.248 258.83 198.634 255.704 201.951 257.325C204.236 258.44 203.469 261.233 206.386 267.356C207.537 269.773 208.754 271.669 209.638 272.899C207.62 272.812 204.436 272.494 200.901 271.162Z" fill="white" fill-opacity="0.35"/>
<path d="M178.542 171.552C179.393 171.972 190.747 177.718 189.263 182.176C188.412 184.752 183.377 186.649 180.243 185.505C177.659 184.564 177.475 181.959 174.441 176.126C172.707 172.768 170.99 170.191 169.889 168.643C171.973 169.062 175.124 169.858 178.542 171.552Z" fill="white" fill-opacity="0.35"/>
<path d="M172.857 341.811C181.162 341.811 187.895 335.965 187.895 328.755C187.895 321.544 181.162 315.699 172.857 315.699C164.551 315.699 157.818 321.544 157.818 328.755C157.818 335.965 164.551 341.811 172.857 341.811Z" fill="#3C7886"/>
<path d="M148.964 193.32C157.27 193.32 164.003 187.475 164.003 180.265C164.003 173.054 157.27 167.209 148.964 167.209C140.658 167.209 133.925 173.054 133.925 180.265C133.925 187.475 140.658 193.32 148.964 193.32Z" fill="#3C7886"/>
<path d="M290.789 32.5717C289.472 31.8045 280.069 26.8109 271.399 29.8505C263.163 32.7454 260.529 41.1838 260.145 42.4141C257.928 49.5644 260.845 55.6435 262.429 58.9292C265.43 65.182 268.165 65.486 272.483 71.7244C277.902 79.5694 279.035 86.9946 279.986 93.2764C281.569 103.843 279.869 112.715 279.069 116.797C277.685 123.701 276.218 126.205 274.034 133.124C273.6 134.513 268.732 150.117 268.482 162.666C268.148 179.34 275.701 204.511 294.474 210.358C295.341 210.633 306.945 214.063 315.382 208.491C322.684 203.671 324.401 194.219 321.817 187.561C318.716 179.586 310.747 178.457 304.694 172.711C293.474 162.029 299.009 144.935 302.51 125.829C305.578 108.995 316.815 47.7261 290.789 32.5717Z" fill="url(#paint9_linear_0_1)"/>
<path d="M298.209 32.4713C296.892 33.5279 302.477 38.7241 306.779 49.8403C309.663 57.28 310.347 63.1855 310.964 68.7291C313.815 94.6813 305.462 103.786 312.497 121.169C314.448 126.003 316.866 129.651 320.667 132.676C328.07 138.582 337.356 139.363 341.458 139.479C338.507 134.066 334.439 125.41 332.171 114.352C326.269 85.5915 339.19 73.1872 329.32 55.1089C320.467 38.9847 300.293 30.7922 298.209 32.4713Z" fill="#3C7886"/>
<path d="M319.584 174.912C315.333 174.912 310.981 173.088 307.663 169.918C304.045 166.459 302.245 162.03 302.728 157.775C303.228 153.302 306.329 147.252 318.284 143.735C321.001 142.939 323.869 142.533 326.803 142.533C328.954 142.533 331.105 142.75 333.239 143.185L341.442 144.849L339.691 152.014C338.991 154.894 337.957 157.702 336.607 160.394C333.489 166.633 329.621 174.405 320.401 174.912C320.134 174.897 319.851 174.912 319.584 174.912Z" fill="#3C7886"/>
<path d="M337.422 155.385C335.954 159.265 334.354 161.986 333.32 163.766C331.269 167.254 330.202 169.02 328.235 170.439C327.285 171.119 324.4 173.189 320.649 173.16C315.347 173.102 309.995 168.948 309.478 164.779C308.661 158.063 320.632 152.52 325.817 150.131C331.469 147.511 336.638 146.354 340.022 145.789C339.372 149.668 338.355 152.91 337.422 155.385Z" fill="white" fill-opacity="0.35"/>
<path d="M323.534 -1.32649C327.769 -0.921213 331.854 1.30781 334.755 4.78162C337.906 8.55938 339.14 13.1332 338.139 17.3162C337.072 21.7019 333.221 27.4337 320.9 29.793C318.082 30.3286 315.181 30.4588 312.28 30.1838C310.146 29.9812 308.028 29.5614 305.978 28.9246L298.025 26.4929L300.676 19.5453C301.743 16.7517 303.127 14.0451 304.794 11.5121C308.679 5.60664 313.514 -1.74624 322.734 -1.36991C322.984 -1.36991 323.251 -1.34096 323.534 -1.32649Z" fill="#3C7886"/>
<path d="M303.345 16.3761C305.295 12.6562 307.213 10.1088 308.48 8.44424C310.964 5.17307 312.248 3.52299 314.382 2.30715C315.416 1.71371 318.55 -0.0665907 322.268 0.338686C327.537 0.90318 332.322 5.54938 332.305 9.73242C332.272 16.4919 319.684 20.8486 314.215 22.7447C308.263 24.8 302.978 25.4659 299.543 25.7119C300.677 21.8907 302.094 18.7498 303.345 16.3761Z" fill="white" fill-opacity="0.35"/>
<path d="M330.57 136.207C328.903 135.57 319.716 132.082 320.366 127.639C320.917 123.875 328.303 120.749 331.62 122.37C333.905 123.484 333.138 126.278 336.055 132.401C337.206 134.818 338.423 136.714 339.306 137.944C337.289 137.857 334.105 137.539 330.57 136.207Z" fill="white" fill-opacity="0.35"/>
<path d="M308.212 36.5949C309.062 37.0146 320.416 42.7609 318.933 47.2189C318.082 49.7953 313.047 51.6915 309.913 50.548C307.328 49.6072 307.145 47.0018 304.111 41.1687C302.377 37.8107 300.659 35.2343 299.559 33.6855C301.643 34.1053 304.794 34.9014 308.212 36.5949Z" fill="white" fill-opacity="0.35"/>
<path d="M302.527 206.856C310.833 206.856 317.566 201.01 317.566 193.8C317.566 186.589 310.833 180.744 302.527 180.744C294.222 180.744 287.489 186.589 287.489 193.8C287.489 201.01 294.222 206.856 302.527 206.856Z" fill="#3C7886"/>
<path d="M278.634 58.3653C286.94 58.3653 293.673 52.5201 293.673 45.3097C293.673 38.0992 286.94 32.2539 278.634 32.2539C270.328 32.2539 263.595 38.0992 263.595 45.3097C263.595 52.5201 270.328 58.3653 278.634 58.3653Z" fill="#3C7886"/>
<path d="M95.7133 502.429C94.3961 501.662 84.9928 496.668 76.323 499.708C68.0868 502.603 65.4525 511.041 65.069 512.272C62.8516 519.422 65.7693 525.501 67.3532 528.787C70.3542 535.039 73.0886 535.343 77.4068 541.582C82.8253 549.427 83.9591 556.852 84.9094 563.134C86.4933 573.7 84.7927 582.573 83.9924 586.654C82.6086 593.559 81.1414 596.063 78.9573 602.981C78.5239 604.371 73.6554 619.974 73.4053 632.523C73.0719 649.197 80.6246 674.368 99.3979 680.216C100.265 680.491 111.869 683.921 120.305 678.348C127.608 673.528 129.325 664.077 126.741 657.419C123.64 649.443 115.67 648.314 109.618 642.568C98.3976 631.886 103.933 614.792 107.434 595.686C110.502 578.853 121.739 517.584 95.7133 502.429Z" fill="url(#paint10_linear_0_1)"/>
<path d="M103.132 502.327C101.815 503.383 107.4 508.58 111.702 519.696C114.586 527.135 115.27 533.041 115.887 538.585C118.738 564.537 110.385 573.641 117.421 591.025C119.371 595.859 121.789 599.506 125.59 602.532C132.993 608.437 142.28 609.219 146.381 609.334C143.43 603.921 139.362 595.265 137.094 584.207C131.192 555.447 144.114 543.043 134.243 524.964C125.39 508.84 105.216 500.648 103.132 502.327Z" fill="#3C7886"/>
<path d="M124.508 644.768C120.256 644.768 115.905 642.945 112.587 639.775C108.969 636.315 107.169 631.886 107.652 627.631C108.152 623.158 111.253 617.108 123.208 613.591C125.925 612.795 128.793 612.39 131.727 612.39C133.878 612.39 136.029 612.607 138.163 613.041L146.366 614.706L144.615 621.87C143.915 624.751 142.881 627.559 141.531 630.251C138.413 636.489 134.545 644.262 125.325 644.768C125.058 644.754 124.775 644.768 124.508 644.768Z" fill="#3C7886"/>
<path d="M142.347 625.243C140.88 629.122 139.279 631.843 138.245 633.623C136.195 637.112 135.128 638.878 133.16 640.296C132.21 640.976 129.326 643.046 125.574 643.017C120.272 642.959 114.92 638.805 114.404 634.637C113.587 627.921 125.558 622.377 130.743 619.989C136.395 617.369 141.563 616.211 144.948 615.646C144.298 619.526 143.281 622.768 142.347 625.243Z" fill="white" fill-opacity="0.35"/>
<path d="M128.459 468.53C132.694 468.935 136.778 471.164 139.679 474.638C142.831 478.416 144.064 482.99 143.064 487.173C141.997 491.558 138.146 497.29 125.825 499.649C123.007 500.185 120.106 500.315 117.205 500.04C115.071 499.838 112.953 499.418 110.903 498.781L102.95 496.349L105.601 489.402C106.668 486.608 108.052 483.902 109.719 481.369C113.603 475.463 118.439 468.11 127.658 468.487C127.909 468.487 128.175 468.515 128.459 468.53Z" fill="#3C7886"/>
<path d="M108.268 486.233C110.218 482.513 112.136 479.965 113.403 478.301C115.887 475.03 117.171 473.379 119.305 472.164C120.339 471.57 123.473 469.79 127.191 470.195C132.46 470.76 137.245 475.406 137.228 479.589C137.195 486.348 124.607 490.705 119.138 492.601C113.186 494.656 107.901 495.322 104.466 495.568C105.6 491.747 107.017 488.606 108.268 486.233Z" fill="white" fill-opacity="0.35"/>
<path d="M135.494 606.064C133.827 605.427 124.64 601.939 125.29 597.495C125.84 593.732 133.226 590.605 136.544 592.226C138.828 593.341 138.061 596.134 140.979 602.257C142.13 604.674 143.347 606.57 144.23 607.801C142.213 607.714 139.028 607.395 135.494 606.064Z" fill="white" fill-opacity="0.35"/>
<path d="M113.136 506.452C113.986 506.872 125.34 512.618 123.856 517.076C123.006 519.653 117.971 521.549 114.837 520.405C112.252 519.465 112.069 516.859 109.034 511.026C107.301 507.668 105.583 505.092 104.483 503.543C106.567 503.963 109.718 504.759 113.136 506.452Z" fill="white" fill-opacity="0.35"/>
<path d="M107.451 676.712C115.757 676.712 122.49 670.867 122.49 663.656C122.49 656.446 115.757 650.601 107.451 650.601C99.1457 650.601 92.4126 656.446 92.4126 663.656C92.4126 670.867 99.1457 676.712 107.451 676.712Z" fill="#3C7886"/>
<path d="M83.5577 528.222C91.8633 528.222 98.5964 522.377 98.5964 515.166C98.5964 507.956 91.8633 502.11 83.5577 502.11C75.2521 502.11 68.519 507.956 68.519 515.166C68.519 522.377 75.2521 528.222 83.5577 528.222Z" fill="#3C7886"/>
<path d="M225.384 367.473C224.067 366.706 214.663 361.712 205.993 364.752C197.757 367.647 195.123 376.085 194.739 377.316C192.522 384.466 195.44 390.545 197.024 393.831C200.025 400.083 202.759 400.387 207.077 406.626C212.496 414.471 213.629 421.896 214.58 428.178C216.164 438.744 214.463 447.617 213.663 451.698C212.279 458.603 210.812 461.107 208.628 468.025C208.194 469.415 203.326 485.018 203.076 497.567C202.742 514.241 210.295 539.412 229.068 545.259C229.935 545.534 241.539 548.965 249.976 543.392C257.278 538.572 258.996 529.121 256.411 522.463C253.31 514.487 245.341 513.358 239.289 507.612C228.068 496.93 233.603 479.836 237.105 460.73C240.172 443.897 251.41 382.628 225.384 367.473Z" fill="url(#paint11_linear_0_1)"/>
<path d="M232.803 367.372C231.486 368.428 237.071 373.624 241.372 384.741C244.257 392.18 244.94 398.086 245.557 403.63C248.408 429.582 240.055 438.686 247.091 456.069C249.042 460.904 251.459 464.551 255.261 467.576C262.663 473.482 271.95 474.264 276.051 474.379C273.1 468.966 269.032 460.31 266.765 449.252C260.863 420.492 273.784 408.088 263.914 390.009C255.061 373.885 234.887 365.693 232.803 367.372Z" fill="#3C7886"/>
<path d="M254.177 509.813C249.926 509.813 245.574 507.99 242.257 504.82C238.639 501.36 236.838 496.931 237.321 492.676C237.822 488.203 240.923 482.153 252.877 478.636C255.595 477.84 258.462 477.435 261.397 477.435C263.547 477.435 265.698 477.652 267.832 478.086L276.035 479.75L274.285 486.915C273.584 489.796 272.551 492.604 271.2 495.296C268.082 501.534 264.214 509.307 254.994 509.813C254.728 509.799 254.444 509.813 254.177 509.813Z" fill="#3C7886"/>
<path d="M272.016 490.287C270.549 494.166 268.949 496.887 267.915 498.667C265.864 502.156 264.797 503.921 262.83 505.34C261.879 506.02 258.995 508.09 255.244 508.061C249.942 508.003 244.59 503.849 244.073 499.681C243.256 492.965 255.227 487.421 260.412 485.033C266.064 482.413 271.233 481.255 274.617 480.69C273.967 484.57 272.95 487.812 272.016 490.287Z" fill="white" fill-opacity="0.35"/>
<path d="M258.129 333.575C262.364 333.98 266.449 336.209 269.35 339.683C272.501 343.461 273.735 348.035 272.734 352.218C271.667 356.603 267.816 362.335 255.495 364.694C252.677 365.23 249.776 365.36 246.875 365.085C244.741 364.883 242.624 364.463 240.573 363.826L232.62 361.394L235.271 354.447C236.338 351.653 237.722 348.946 239.389 346.413C243.274 340.508 248.109 333.155 257.329 333.531C257.579 333.531 257.846 333.56 258.129 333.575Z" fill="#3C7886"/>
<path d="M237.938 351.276C239.889 347.557 241.806 345.009 243.073 343.345C245.557 340.073 246.841 338.423 248.975 337.208C250.009 336.614 253.143 334.834 256.861 335.239C262.13 335.804 266.915 340.45 266.898 344.633C266.865 351.392 254.277 355.749 248.809 357.645C242.856 359.7 237.571 360.366 234.137 360.612C235.27 356.791 236.688 353.65 237.938 351.276Z" fill="white" fill-opacity="0.35"/>
<path d="M265.164 471.109C263.497 470.472 254.31 466.983 254.961 462.54C255.511 458.777 262.897 455.65 266.215 457.271C268.499 458.386 267.732 461.179 270.65 467.302C271.8 469.719 273.017 471.615 273.901 472.846C271.883 472.759 268.699 472.44 265.164 471.109Z" fill="white" fill-opacity="0.35"/>
<path d="M242.807 371.497C243.658 371.917 255.012 377.663 253.528 382.121C252.678 384.698 247.642 386.594 244.508 385.45C241.924 384.51 241.74 381.904 238.706 376.071C236.972 372.713 235.255 370.137 234.154 368.588C236.238 369.008 239.389 369.804 242.807 371.497Z" fill="white" fill-opacity="0.35"/>
<path d="M237.122 541.757C245.428 541.757 252.161 535.912 252.161 528.701C252.161 521.491 245.428 515.646 237.122 515.646C228.817 515.646 222.083 521.491 222.083 528.701C222.083 535.912 228.817 541.757 237.122 541.757Z" fill="#3C7886"/>
<path d="M213.228 393.267C221.534 393.267 228.267 387.421 228.267 380.211C228.267 373.001 221.534 367.155 213.228 367.155C204.922 367.155 198.189 373.001 198.189 380.211C198.189 387.421 204.922 393.267 213.228 393.267Z" fill="#3C7886"/>
<path d="M355.054 232.518C353.736 231.751 344.333 226.757 335.663 229.797C327.427 232.692 324.793 241.13 324.409 242.36C322.192 249.511 325.11 255.59 326.694 258.875C329.695 265.128 332.429 265.432 336.747 271.671C342.166 279.516 343.299 286.941 344.25 293.223C345.834 303.789 344.133 312.662 343.333 316.743C341.949 323.647 340.482 326.151 338.298 333.07C337.864 334.46 332.996 350.063 332.746 362.612C332.412 379.286 339.965 404.457 358.738 410.304C359.605 410.579 371.209 414.01 379.646 408.437C386.948 403.617 388.666 394.166 386.081 387.508C382.98 379.532 375.011 378.403 368.959 372.657C357.738 361.975 363.273 344.881 366.774 325.775C369.842 308.942 381.08 247.672 355.054 232.518Z" fill="url(#paint12_linear_0_1)"/>
<path d="M362.473 232.417C361.156 233.473 366.741 238.669 371.042 249.786C373.927 257.225 374.61 263.131 375.227 268.674C378.078 294.627 369.725 303.731 376.761 321.114C378.712 325.949 381.129 329.596 384.931 332.621C392.333 338.527 401.62 339.308 405.721 339.424C402.77 334.011 398.702 325.355 396.435 314.297C390.533 285.537 403.454 273.132 393.584 255.054C384.731 238.93 364.557 230.738 362.473 232.417Z" fill="#3C7886"/>
<path d="M383.848 374.857C379.597 374.857 375.245 373.034 371.927 369.864C368.309 366.404 366.509 361.975 366.992 357.72C367.493 353.247 370.594 347.197 382.548 343.68C385.266 342.884 388.133 342.479 391.068 342.479C393.218 342.479 395.369 342.696 397.503 343.13L405.706 344.794L403.955 351.959C403.255 354.839 402.222 357.647 400.871 360.34C397.753 366.578 393.885 374.351 384.665 374.857C384.399 374.843 384.115 374.857 383.848 374.857Z" fill="#3C7886"/>
<path d="M401.686 355.332C400.219 359.211 398.618 361.932 397.585 363.712C395.534 367.201 394.467 368.966 392.5 370.385C391.549 371.065 388.665 373.135 384.914 373.106C379.612 373.048 374.26 368.894 373.743 364.725C372.926 358.009 384.897 352.466 390.082 350.078C395.734 347.458 400.903 346.3 404.287 345.735C403.637 349.614 402.62 352.857 401.686 355.332Z" fill="white" fill-opacity="0.35"/>
<path d="M387.799 198.62C392.034 199.025 396.119 201.254 399.02 204.728C402.171 208.506 403.405 213.079 402.404 217.263C401.337 221.648 397.486 227.38 385.165 229.739C382.347 230.275 379.446 230.405 376.545 230.13C374.411 229.927 372.294 229.508 370.243 228.871L362.29 226.439L364.941 219.492C366.008 216.698 367.392 213.991 369.059 211.458C372.944 205.553 377.779 198.2 386.999 198.576C387.249 198.576 387.516 198.605 387.799 198.62Z" fill="#3C7886"/>
<path d="M367.609 216.321C369.56 212.602 371.477 210.054 372.744 208.39C375.228 205.118 376.512 203.468 378.646 202.252C379.68 201.659 382.814 199.879 386.532 200.284C391.801 200.848 396.586 205.495 396.569 209.678C396.536 216.437 383.948 220.794 378.479 222.69C372.527 224.745 367.242 225.411 363.808 225.657C364.941 221.836 366.359 218.695 367.609 216.321Z" fill="white" fill-opacity="0.35"/>
<path d="M394.835 336.153C393.168 335.516 383.981 332.027 384.632 327.584C385.182 323.821 392.568 320.694 395.886 322.315C398.17 323.43 397.403 326.223 400.32 332.346C401.471 334.763 402.688 336.659 403.572 337.889C401.554 337.803 398.37 337.484 394.835 336.153Z" fill="white" fill-opacity="0.35"/>
<path d="M372.478 236.542C373.329 236.962 384.683 242.708 383.199 247.166C382.348 249.743 377.313 251.639 374.179 250.495C371.595 249.554 371.411 246.949 368.377 241.116C366.643 237.758 364.926 235.182 363.825 233.633C365.909 234.053 369.06 234.849 372.478 236.542Z" fill="white" fill-opacity="0.35"/>
<path d="M366.792 406.801C375.097 406.801 381.83 400.956 381.83 393.745C381.83 386.535 375.097 380.689 366.792 380.689C358.486 380.689 351.753 386.535 351.753 393.745C351.753 400.956 358.486 406.801 366.792 406.801Z" fill="#3C7886"/>
<path d="M342.898 258.311C351.204 258.311 357.937 252.465 357.937 245.255C357.937 238.044 351.204 232.199 342.898 232.199C334.592 232.199 327.859 238.044 327.859 245.255C327.859 252.465 334.592 258.311 342.898 258.311Z" fill="#3C7886"/>
<path d="M31.4462 568.262C30.129 567.495 20.7257 562.501 12.056 565.541C3.8197 568.436 1.18543 576.874 0.801957 578.105C-1.4155 585.255 1.5022 591.334 3.08609 594.62C6.08716 600.872 8.82146 601.176 13.1397 607.415C18.5583 615.26 19.692 622.685 20.6423 628.967C22.2262 639.533 20.5256 648.406 19.7254 652.487C18.3415 659.392 16.8744 661.896 14.6902 668.814C14.2568 670.204 9.38834 685.807 9.13825 698.356C8.8048 715.03 16.3575 740.201 35.1308 746.049C35.9978 746.324 47.6019 749.754 56.0382 744.181C63.3408 739.361 65.0581 729.91 62.4738 723.252C59.3727 715.276 51.4033 714.147 45.3511 708.401C34.1305 697.719 39.6658 680.625 43.167 661.519C46.2348 644.686 57.4721 583.417 31.4462 568.262Z" fill="url(#paint13_linear_0_1)"/>
<path d="M38.8652 568.162C37.5481 569.218 43.1334 574.415 47.4349 585.531C50.3193 592.97 51.0029 598.876 51.6198 604.42C54.4708 630.372 46.1178 639.476 53.1536 656.859C55.1043 661.694 57.5218 665.341 61.3232 668.366C68.7258 674.272 78.0124 675.054 82.1139 675.169C79.1628 669.756 75.0948 661.1 72.8273 650.042C66.9252 621.282 79.8464 608.878 69.9762 590.799C61.1231 574.675 40.9493 566.483 38.8652 568.162Z" fill="#3C7886"/>
<path d="M60.2409 710.602C55.9894 710.602 51.6379 708.779 48.32 705.609C44.7021 702.149 42.9014 697.72 43.3849 693.465C43.8851 688.992 46.9862 682.942 58.9404 679.425C61.6581 678.629 64.5258 678.224 67.4602 678.224C69.6109 678.224 71.7617 678.441 73.8958 678.875L82.0987 680.54L80.348 687.704C79.6478 690.585 78.6141 693.393 77.2637 696.085C74.1459 702.323 70.2778 710.096 61.0579 710.602C60.7911 710.588 60.5077 710.602 60.2409 710.602Z" fill="#3C7886"/>
<path d="M78.0798 691.076C76.6126 694.955 75.012 697.676 73.9783 699.456C71.9276 702.945 70.8605 704.711 68.8932 706.129C67.9428 706.809 65.0585 708.879 61.3071 708.85C56.0053 708.792 50.6533 704.638 50.1365 700.47C49.3195 693.754 61.2905 688.21 66.4757 685.822C72.1277 683.202 77.2962 682.044 80.6807 681.479C80.0305 685.359 79.0134 688.601 78.0798 691.076Z" fill="white" fill-opacity="0.35"/>
<path d="M64.1917 534.364C68.4265 534.769 72.5113 536.998 75.4123 540.472C78.5634 544.25 79.7972 548.824 78.7969 553.007C77.7298 557.392 73.8785 563.124 61.5574 565.483C58.7397 566.019 55.8387 566.149 52.9377 565.874C50.8036 565.672 48.6862 565.252 46.6354 564.615L38.6826 562.183L41.3336 555.236C42.4006 552.442 43.7844 549.736 45.4517 547.203C49.3364 541.297 54.1715 533.944 63.3914 534.321C63.6415 534.321 63.9082 534.349 64.1917 534.364Z" fill="#3C7886"/>
<path d="M44.0006 552.066C45.9513 548.346 47.8686 545.798 49.1357 544.134C51.6199 540.863 52.9037 539.212 55.0378 537.997C56.0715 537.403 59.206 535.623 62.924 536.028C68.1925 536.593 72.9775 541.239 72.9609 545.422C72.9275 552.181 60.3397 556.538 54.8711 558.434C48.919 560.489 43.6338 561.155 40.1992 561.401C41.333 557.58 42.7501 554.439 44.0006 552.066Z" fill="white" fill-opacity="0.35"/>
<path d="M71.2267 671.898C69.5595 671.261 60.3729 667.773 61.0231 663.329C61.5733 659.566 68.9593 656.439 72.2771 658.06C74.5613 659.175 73.7943 661.968 76.712 668.091C77.8624 670.508 79.0796 672.404 79.9632 673.635C77.9458 673.548 74.7613 673.229 71.2267 671.898Z" fill="white" fill-opacity="0.35"/>
<path d="M48.8699 572.286C49.7202 572.706 61.0742 578.452 59.5903 582.91C58.74 585.487 53.7049 587.383 50.5705 586.239C47.9862 585.299 47.8028 582.693 44.7684 576.86C43.0344 573.502 41.3172 570.926 40.2168 569.377C42.3009 569.797 45.452 570.593 48.8699 572.286Z" fill="white" fill-opacity="0.35"/>
<path d="M43.1842 742.545C51.4899 742.545 58.2229 736.7 58.2229 729.489C58.2229 722.279 51.4899 716.434 43.1842 716.434C34.8786 716.434 28.1455 722.279 28.1455 729.489C28.1455 736.7 34.8786 742.545 43.1842 742.545Z" fill="#3C7886"/>
<path d="M19.2906 594.056C27.5962 594.056 34.3293 588.211 34.3293 581C34.3293 573.79 27.5962 567.944 19.2906 567.944C10.985 567.944 4.25195 573.79 4.25195 581C4.25195 588.211 10.985 594.056 19.2906 594.056Z" fill="#3C7886"/>
<path d="M161.12 433.308C159.802 432.541 150.399 427.547 141.729 430.587C133.493 433.482 130.859 441.92 130.475 443.15C128.258 450.301 131.176 456.38 132.759 459.665C135.76 465.918 138.495 466.222 142.813 472.461C148.232 480.306 149.365 487.731 150.316 494.013C151.9 504.579 150.199 513.452 149.399 517.533C148.015 524.437 146.548 526.942 144.364 533.86C143.93 535.25 139.062 550.853 138.812 563.402C138.478 580.076 146.031 605.247 164.804 611.094C165.671 611.369 177.275 614.8 185.712 609.227C193.014 604.407 194.731 594.956 192.147 588.298C189.046 580.322 181.077 579.193 175.024 573.447C163.804 562.765 169.339 545.671 172.84 526.565C175.908 509.732 187.145 448.462 161.12 433.308Z" fill="url(#paint14_linear_0_1)"/>
<path d="M168.538 433.207C167.221 434.263 172.806 439.459 177.108 450.576C179.992 458.015 180.676 463.921 181.293 469.464C184.144 495.417 175.791 504.521 182.826 521.904C184.777 526.739 187.195 530.386 190.996 533.411C198.399 539.317 207.685 540.098 211.787 540.214C208.836 534.801 204.768 526.145 202.5 515.087C196.598 486.327 209.519 473.923 199.649 455.844C190.796 439.72 170.622 431.528 168.538 433.207Z" fill="#3C7886"/>
<path d="M189.914 575.647C185.663 575.647 181.311 573.824 177.993 570.654C174.375 567.194 172.575 562.765 173.058 558.51C173.558 554.037 176.66 547.987 188.614 544.47C191.331 543.674 194.199 543.269 197.134 543.269C199.284 543.269 201.435 543.486 203.569 543.92L211.772 545.584L210.021 552.749C209.321 555.629 208.287 558.437 206.937 561.13C203.819 567.368 199.951 575.141 190.731 575.647C190.464 575.633 190.181 575.647 189.914 575.647Z" fill="#3C7886"/>
<path d="M207.752 556.122C206.284 560.001 204.684 562.722 203.65 564.502C201.599 567.991 200.532 569.756 198.565 571.175C197.615 571.855 194.73 573.925 190.979 573.896C185.677 573.838 180.325 569.684 179.808 565.516C178.991 558.799 190.962 553.256 196.148 550.868C201.8 548.248 206.968 547.09 210.353 546.525C209.702 550.404 208.685 553.647 207.752 556.122Z" fill="white" fill-opacity="0.35"/>
<path d="M193.865 399.41C198.1 399.815 202.185 402.044 205.086 405.518C208.237 409.296 209.471 413.87 208.47 418.053C207.403 422.438 203.552 428.17 191.231 430.529C188.413 431.065 185.512 431.195 182.611 430.92C180.477 430.717 178.359 430.298 176.309 429.661L168.356 427.229L171.007 420.282C172.074 417.488 173.458 414.781 175.125 412.248C179.01 406.343 183.845 398.99 193.065 399.366C193.315 399.366 193.582 399.395 193.865 399.41Z" fill="#3C7886"/>
<path d="M173.675 417.112C175.626 413.393 177.543 410.845 178.81 409.181C181.294 405.909 182.578 404.259 184.712 403.043C185.746 402.45 188.88 400.67 192.598 401.075C197.867 401.64 202.652 406.286 202.635 410.469C202.602 417.228 190.014 421.585 184.545 423.481C178.593 425.536 173.308 426.202 169.874 426.448C171.007 422.627 172.424 419.486 173.675 417.112Z" fill="white" fill-opacity="0.35"/>
<path d="M200.901 536.944C199.234 536.307 190.047 532.818 190.697 528.375C191.248 524.612 198.634 521.485 201.951 523.106C204.236 524.221 203.469 527.014 206.386 533.137C207.537 535.554 208.754 537.45 209.638 538.681C207.62 538.594 204.436 538.275 200.901 536.944Z" fill="white" fill-opacity="0.35"/>
<path d="M178.542 437.333C179.393 437.753 190.747 443.499 189.263 447.957C188.412 450.534 183.377 452.43 180.243 451.286C177.659 450.345 177.475 447.74 174.441 441.907C172.707 438.549 170.99 435.973 169.889 434.424C171.973 434.844 175.124 435.64 178.542 437.333Z" fill="white" fill-opacity="0.35"/>
<path d="M172.857 607.592C181.162 607.592 187.895 601.747 187.895 594.536C187.895 587.326 181.162 581.48 172.857 581.48C164.551 581.48 157.818 587.326 157.818 594.536C157.818 601.747 164.551 607.592 172.857 607.592Z" fill="#3C7886"/>
<path d="M148.964 459.102C157.27 459.102 164.003 453.256 164.003 446.046C164.003 438.836 157.27 432.99 148.964 432.99C140.658 432.99 133.925 438.836 133.925 446.046C133.925 453.256 140.658 459.102 148.964 459.102Z" fill="#3C7886"/>
<path d="M290.789 298.353C289.472 297.586 280.069 292.592 271.399 295.632C263.163 298.527 260.529 306.965 260.145 308.195C257.928 315.346 260.845 321.425 262.429 324.71C265.43 330.963 268.165 331.267 272.483 337.506C277.902 345.351 279.035 352.776 279.986 359.058C281.569 369.624 279.869 378.496 279.069 382.578C277.685 389.482 276.218 391.986 274.034 398.905C273.6 400.295 268.732 415.898 268.482 428.447C268.148 445.121 275.701 470.292 294.474 476.139C295.341 476.414 306.945 479.845 315.382 474.272C322.684 469.452 324.401 460.001 321.817 453.343C318.716 445.367 310.747 444.238 304.694 438.492C293.474 427.81 299.009 410.716 302.51 391.61C305.578 374.777 316.815 313.507 290.789 298.353Z" fill="url(#paint15_linear_0_1)"/>
<path d="M298.209 298.253C296.892 299.309 302.477 304.505 306.779 315.622C309.663 323.061 310.347 328.967 310.964 334.51C313.815 360.463 305.462 369.567 312.497 386.95C314.448 391.785 316.866 395.432 320.667 398.457C328.07 404.363 337.356 405.144 341.458 405.26C338.507 399.847 334.439 391.191 332.171 380.133C326.269 351.373 339.19 338.968 329.32 320.89C320.467 304.766 300.293 296.573 298.209 298.253Z" fill="#3C7886"/>
<path d="M319.584 440.693C315.333 440.693 310.981 438.869 307.663 435.7C304.045 432.24 302.245 427.811 302.728 423.556C303.228 419.083 306.329 413.033 318.284 409.516C321.001 408.72 323.869 408.314 326.803 408.314C328.954 408.314 331.105 408.532 333.239 408.966L341.442 410.63L339.691 417.795C338.991 420.675 337.957 423.483 336.607 426.176C333.489 432.414 329.621 440.187 320.401 440.693C320.134 440.679 319.851 440.693 319.584 440.693Z" fill="#3C7886"/>
<path d="M337.422 421.167C335.954 425.046 334.354 427.767 333.32 429.547C331.269 433.036 330.202 434.801 328.235 436.22C327.285 436.9 324.4 438.97 320.649 438.941C315.347 438.883 309.995 434.729 309.478 430.56C308.661 423.844 320.632 418.301 325.817 415.913C331.469 413.293 336.638 412.135 340.022 411.57C339.372 415.449 338.355 418.692 337.422 421.167Z" fill="white" fill-opacity="0.35"/>
<path d="M323.534 264.455C327.769 264.86 331.854 267.089 334.755 270.563C337.906 274.341 339.14 278.914 338.139 283.097C337.072 287.483 333.221 293.215 320.9 295.574C318.082 296.11 315.181 296.24 312.28 295.965C310.146 295.762 308.028 295.343 305.978 294.706L298.025 292.274L300.676 285.327C301.743 282.533 303.127 279.826 304.794 277.293C308.679 271.388 313.514 264.035 322.734 264.411C322.984 264.411 323.251 264.44 323.534 264.455Z" fill="#3C7886"/>
<path d="M303.345 282.157C305.295 278.437 307.213 275.89 308.48 274.225C310.964 270.954 312.248 269.304 314.382 268.088C315.416 267.495 318.55 265.715 322.268 266.12C327.537 266.684 332.322 271.331 332.305 275.514C332.272 282.273 319.684 286.63 314.215 288.526C308.263 290.581 302.978 291.247 299.543 291.493C300.677 287.672 302.094 284.531 303.345 282.157Z" fill="white" fill-opacity="0.35"/>
<path d="M330.57 401.989C328.903 401.352 319.716 397.863 320.366 393.42C320.917 389.656 328.303 386.53 331.62 388.151C333.905 389.266 333.138 392.059 336.055 398.182C337.206 400.599 338.423 402.495 339.306 403.725C337.289 403.639 334.105 403.32 330.57 401.989Z" fill="white" fill-opacity="0.35"/>
<path d="M308.212 302.376C309.062 302.796 320.416 308.542 318.933 313C318.082 315.577 313.047 317.473 309.913 316.329C307.328 315.388 307.145 312.783 304.111 306.95C302.377 303.592 300.659 301.016 299.559 299.467C301.643 299.887 304.794 300.683 308.212 302.376Z" fill="white" fill-opacity="0.35"/>
<path d="M302.527 472.637C310.833 472.637 317.566 466.792 317.566 459.581C317.566 452.371 310.833 446.525 302.527 446.525C294.222 446.525 287.489 452.371 287.489 459.581C287.489 466.792 294.222 472.637 302.527 472.637Z" fill="#3C7886"/>
<path d="M278.634 324.147C286.94 324.147 293.673 318.301 293.673 311.091C293.673 303.88 286.94 298.035 278.634 298.035C270.328 298.035 263.595 303.88 263.595 311.091C263.595 318.301 270.328 324.147 278.634 324.147Z" fill="#3C7886"/>
<path d="M95.7133 768.211C94.3961 767.444 84.9928 762.451 76.323 765.49C68.0868 768.385 65.4525 776.823 65.069 778.054C62.8516 785.204 65.7693 791.283 67.3532 794.569C70.3542 800.822 73.0886 801.126 77.4068 807.364C82.8253 815.209 83.9591 822.634 84.9094 828.916C86.4933 839.482 84.7927 848.355 83.9924 852.437C82.6086 859.341 81.1414 861.845 78.9573 868.763C78.5239 870.153 73.6554 885.756 73.4053 898.305C73.0719 914.98 80.6246 940.15 99.3979 945.998C100.265 946.273 111.869 949.703 120.305 944.131C127.608 939.311 129.325 929.859 126.741 923.201C123.64 915.226 115.67 914.097 109.618 908.35C98.3976 897.668 103.933 880.574 107.434 861.468C110.502 844.635 121.739 783.366 95.7133 768.211Z" fill="url(#paint16_linear_0_1)"/>
<path d="M103.132 768.109C101.815 769.166 107.4 774.362 111.702 785.478C114.586 792.918 115.27 798.823 115.887 804.367C118.738 830.319 110.385 839.423 117.421 856.807C119.371 861.641 121.789 865.289 125.59 868.314C132.993 874.219 142.28 875.001 146.381 875.117C143.43 869.703 139.362 861.048 137.094 849.989C131.192 821.229 144.114 808.825 134.243 790.747C125.39 774.622 105.216 766.43 103.132 768.109Z" fill="#3C7886"/>
<path d="M128.459 734.312C132.694 734.717 136.778 736.946 139.679 740.42C142.831 744.198 144.064 748.772 143.064 752.955C141.997 757.341 138.146 763.072 125.825 765.432C123.007 765.967 120.106 766.097 117.205 765.822C115.071 765.62 112.953 765.2 110.903 764.563L102.95 762.132L105.601 755.184C106.668 752.39 108.052 749.684 109.719 747.151C113.603 741.245 118.439 733.892 127.658 734.269C127.909 734.269 128.175 734.298 128.459 734.312Z" fill="#3C7886"/>
<path d="M108.268 752.015C110.218 748.295 112.136 745.747 113.403 744.083C115.887 740.812 117.171 739.162 119.305 737.946C120.339 737.352 123.473 735.572 127.191 735.977C132.46 736.542 137.245 741.188 137.228 745.371C137.195 752.131 124.607 756.487 119.138 758.383C113.186 760.439 107.901 761.105 104.466 761.351C105.6 757.529 107.017 754.389 108.268 752.015Z" fill="white" fill-opacity="0.35"/>
<path d="M113.136 772.235C113.986 772.654 125.34 778.401 123.856 782.859C123.006 785.435 117.971 787.331 114.837 786.188C112.252 785.247 112.069 782.641 109.034 776.808C107.301 773.45 105.583 770.874 104.483 769.325C106.567 769.745 109.718 770.541 113.136 772.235Z" fill="white" fill-opacity="0.35"/>
<path d="M83.5577 794.004C91.8633 794.004 98.5964 788.159 98.5964 780.948C98.5964 773.738 91.8633 767.893 83.5577 767.893C75.2521 767.893 68.519 773.738 68.519 780.948C68.519 788.159 75.2521 794.004 83.5577 794.004Z" fill="#3C7886"/>
<path d="M225.384 633.255C224.067 632.488 214.663 627.495 205.993 630.534C197.757 633.429 195.123 641.867 194.739 643.098C192.522 650.248 195.44 656.327 197.024 659.613C200.025 665.866 202.759 666.17 207.077 672.408C212.496 680.253 213.629 687.678 214.58 693.96C216.164 704.526 214.463 713.399 213.663 717.481C212.279 724.385 210.812 726.889 208.628 733.807C208.194 735.197 203.326 750.8 203.076 763.349C202.742 780.024 210.295 805.194 229.068 811.042C229.935 811.317 241.539 814.747 249.976 809.175C257.278 804.355 258.996 794.903 256.411 788.245C253.31 780.27 245.341 779.141 239.289 773.394C228.068 762.712 233.603 745.618 237.105 726.512C240.172 709.679 251.41 648.41 225.384 633.255Z" fill="url(#paint17_linear_0_1)"/>
<path d="M232.803 633.154C231.486 634.21 237.071 639.407 241.372 650.523C244.257 657.963 244.94 663.868 245.557 669.412C248.408 695.364 240.055 704.468 247.091 721.852C249.042 726.686 251.459 730.334 255.261 733.359C262.663 739.264 271.95 740.046 276.051 740.162C273.1 734.748 269.032 726.093 266.765 715.034C260.863 686.274 273.784 673.87 263.914 655.792C255.061 639.667 234.887 631.475 232.803 633.154Z" fill="#3C7886"/>
<path d="M254.177 775.596C249.926 775.596 245.574 773.772 242.257 770.602C238.639 767.143 236.838 762.714 237.321 758.458C237.822 753.986 240.923 747.935 252.877 744.418C255.595 743.622 258.462 743.217 261.397 743.217C263.547 743.217 265.698 743.434 267.832 743.868L276.035 745.533L274.285 752.697C273.584 755.578 272.551 758.386 271.2 761.078C268.082 767.316 264.214 775.089 254.994 775.596C254.728 775.581 254.444 775.596 254.177 775.596Z" fill="#3C7886"/>
<path d="M272.016 756.069C270.549 759.948 268.949 762.669 267.915 764.45C265.864 767.938 264.797 769.704 262.83 771.122C261.879 771.802 258.995 773.872 255.244 773.843C249.942 773.785 244.59 769.631 244.073 765.463C243.256 758.747 255.227 753.203 260.412 750.815C266.064 748.195 271.233 747.037 274.617 746.473C273.967 750.352 272.95 753.594 272.016 756.069Z" fill="white" fill-opacity="0.35"/>
<path d="M258.129 599.357C262.364 599.762 266.449 601.991 269.35 605.465C272.501 609.243 273.735 613.817 272.734 618C271.667 622.385 267.816 628.117 255.495 630.477C252.677 631.012 249.776 631.142 246.875 630.867C244.741 630.665 242.624 630.245 240.573 629.608L232.62 627.176L235.271 620.229C236.338 617.435 237.722 614.729 239.389 612.196C243.274 606.29 248.109 598.937 257.329 599.314C257.579 599.314 257.846 599.343 258.129 599.357Z" fill="#3C7886"/>
<path d="M237.938 617.059C239.889 613.339 241.806 610.791 243.073 609.127C245.557 605.856 246.841 604.206 248.975 602.99C250.009 602.396 253.143 600.616 256.861 601.021C262.13 601.586 266.915 606.232 266.898 610.415C266.865 617.174 254.277 621.531 248.809 623.427C242.856 625.483 237.571 626.148 234.137 626.395C235.27 622.573 236.688 619.432 237.938 617.059Z" fill="white" fill-opacity="0.35"/>
<path d="M265.164 736.891C263.497 736.254 254.31 732.766 254.961 728.322C255.511 724.559 262.897 721.432 266.215 723.054C268.499 724.168 267.732 726.962 270.65 733.084C271.8 735.501 273.017 737.397 273.901 738.628C271.883 738.541 268.699 738.222 265.164 736.891Z" fill="white" fill-opacity="0.35"/>
<path d="M242.807 637.279C243.658 637.699 255.012 643.445 253.528 647.903C252.678 650.48 247.642 652.376 244.508 651.233C241.924 650.292 241.74 647.686 238.706 641.853C236.972 638.495 235.255 635.919 234.154 634.37C236.238 634.79 239.389 635.586 242.807 637.279Z" fill="white" fill-opacity="0.35"/>
<path d="M237.122 807.539C245.428 807.539 252.161 801.694 252.161 794.483C252.161 787.273 245.428 781.428 237.122 781.428C228.817 781.428 222.083 787.273 222.083 794.483C222.083 801.694 228.817 807.539 237.122 807.539Z" fill="#3C7886"/>
<path d="M213.228 659.049C221.534 659.049 228.267 653.204 228.267 645.993C228.267 638.783 221.534 632.938 213.228 632.938C204.922 632.938 198.189 638.783 198.189 645.993C198.189 653.204 204.922 659.049 213.228 659.049Z" fill="#3C7886"/>
<path d="M355.054 498.3C353.736 497.533 344.333 492.539 335.663 495.579C327.427 498.474 324.793 506.912 324.409 508.143C322.192 515.293 325.11 521.372 326.694 524.658C329.695 530.911 332.429 531.215 336.747 537.453C342.166 545.298 343.299 552.723 344.25 559.005C345.834 569.571 344.133 578.444 343.333 582.525C341.949 589.43 340.482 591.934 338.298 598.852C337.864 600.242 332.996 615.845 332.746 628.394C332.412 645.068 339.965 670.239 358.738 676.087C359.605 676.362 371.209 679.792 379.646 674.219C386.948 669.4 388.666 659.948 386.081 653.29C382.98 645.315 375.011 644.186 368.959 638.439C357.738 627.757 363.273 610.663 366.774 591.557C369.842 574.724 381.08 513.455 355.054 498.3Z" fill="url(#paint18_linear_0_1)"/>
<path d="M362.473 498.199C361.156 499.255 366.741 504.452 371.042 515.568C373.927 523.008 374.61 528.913 375.227 534.457C378.078 560.409 369.725 569.513 376.761 586.897C378.712 591.731 381.129 595.378 384.931 598.404C392.333 604.309 401.62 605.091 405.721 605.206C402.77 599.793 398.702 591.138 396.435 580.079C390.533 551.319 403.454 538.915 393.584 520.836C384.731 504.712 364.557 496.52 362.473 498.199Z" fill="#3C7886"/>
<path d="M383.848 640.639C379.597 640.639 375.245 638.816 371.927 635.646C368.309 632.187 366.509 627.757 366.992 623.502C367.493 619.03 370.594 612.979 382.548 609.462C385.266 608.666 388.133 608.261 391.068 608.261C393.218 608.261 395.369 608.478 397.503 608.912L405.706 610.577L403.955 617.741C403.255 620.622 402.222 623.43 400.871 626.122C397.753 632.36 393.885 640.133 384.665 640.639C384.399 640.625 384.115 640.639 383.848 640.639Z" fill="#3C7886"/>
<path d="M401.686 621.114C400.219 624.993 398.618 627.714 397.585 629.495C395.534 632.983 394.467 634.749 392.5 636.167C391.549 636.847 388.665 638.917 384.914 638.888C379.612 638.83 374.26 634.676 373.743 630.508C372.926 623.792 384.897 618.248 390.082 615.86C395.734 613.24 400.903 612.082 404.287 611.518C403.637 615.397 402.62 618.639 401.686 621.114Z" fill="white" fill-opacity="0.35"/>
<path d="M387.799 464.402C392.034 464.807 396.119 467.036 399.02 470.51C402.171 474.288 403.405 478.862 402.404 483.045C401.337 487.43 397.486 493.162 385.165 495.522C382.347 496.057 379.446 496.187 376.545 495.912C374.411 495.71 372.294 495.29 370.243 494.653L362.29 492.221L364.941 485.274C366.008 482.48 367.392 479.774 369.059 477.241C372.944 471.335 377.779 463.982 386.999 464.359C387.249 464.359 387.516 464.388 387.799 464.402Z" fill="#3C7886"/>
<path d="M367.609 482.104C369.56 478.384 371.477 475.836 372.744 474.172C375.228 470.901 376.512 469.251 378.646 468.035C379.68 467.441 382.814 465.661 386.532 466.066C391.801 466.631 396.586 471.277 396.569 475.46C396.536 482.219 383.948 486.576 378.479 488.472C372.527 490.528 367.242 491.193 363.808 491.439C364.941 487.618 366.359 484.477 367.609 482.104Z" fill="white" fill-opacity="0.35"/>
<path d="M394.835 601.935C393.168 601.298 383.981 597.81 384.632 593.366C385.182 589.603 392.568 586.476 395.886 588.097C398.17 589.212 397.403 592.005 400.32 598.128C401.471 600.545 402.688 602.441 403.572 603.672C401.554 603.585 398.37 603.266 394.835 601.935Z" fill="white" fill-opacity="0.35"/>
<path d="M372.478 502.324C373.329 502.744 384.683 508.49 383.199 512.948C382.348 515.525 377.313 517.421 374.179 516.278C371.595 515.337 371.411 512.731 368.377 506.898C366.643 503.54 364.926 500.964 363.825 499.415C365.909 499.835 369.06 500.631 372.478 502.324Z" fill="white" fill-opacity="0.35"/>
<path d="M366.792 672.583C375.097 672.583 381.83 666.738 381.83 659.527C381.83 652.317 375.097 646.472 366.792 646.472C358.486 646.472 351.753 652.317 351.753 659.527C351.753 666.738 358.486 672.583 366.792 672.583Z" fill="#3C7886"/>
<path d="M342.898 524.093C351.204 524.093 357.937 518.248 357.937 511.037C357.937 503.827 351.204 497.981 342.898 497.981C334.592 497.981 327.859 503.827 327.859 511.037C327.859 518.248 334.592 524.093 342.898 524.093Z" fill="#3C7886"/>
<path d="M31.4462 834.044C30.129 833.277 20.7257 828.284 12.056 831.323C3.8197 834.218 1.18543 842.656 0.801957 843.887C-1.4155 851.037 1.5022 857.116 3.08609 860.402C6.08716 866.655 8.82146 866.959 13.1397 873.197C18.5583 881.042 19.692 888.467 20.6423 894.749C22.2262 905.315 20.5256 914.188 19.7254 918.27C18.3415 925.174 16.8744 927.678 14.6902 934.596C14.2568 935.986 9.38834 951.589 9.13825 964.138C8.8048 980.813 16.3575 1005.98 35.1308 1011.83C35.9978 1012.11 47.6019 1015.54 56.0382 1009.96C63.3408 1005.14 65.0581 995.692 62.4738 989.034C59.3727 981.059 51.4033 979.93 45.3511 974.183C34.1305 963.501 39.6658 946.407 43.167 927.301C46.2348 910.468 57.4721 849.199 31.4462 834.044Z" fill="url(#paint19_linear_0_1)"/>
<path d="M38.8652 833.944C37.5481 835.001 43.1334 840.197 47.4349 851.313C50.3193 858.753 51.0029 864.658 51.6198 870.202C54.4708 896.154 46.1178 905.258 53.1536 922.642C55.1043 927.476 57.5218 931.124 61.3232 934.149C68.7258 940.054 78.0124 940.836 82.1139 940.952C79.1628 935.538 75.0948 926.883 72.8273 915.824C66.9252 887.064 79.8464 874.66 69.9762 856.582C61.1231 840.457 40.9493 832.265 38.8652 833.944Z" fill="#3C7886"/>
<path d="M64.1917 800.146C68.4265 800.551 72.5113 802.78 75.4123 806.254C78.5634 810.032 79.7972 814.606 78.7969 818.789C77.7298 823.175 73.8785 828.906 61.5574 831.266C58.7397 831.801 55.8387 831.931 52.9377 831.656C50.8036 831.454 48.6862 831.034 46.6354 830.397L38.6826 827.966L41.3336 821.018C42.4006 818.224 43.7844 815.518 45.4517 812.985C49.3364 807.079 54.1715 799.726 63.3914 800.103C63.6415 800.103 63.9082 800.132 64.1917 800.146Z" fill="#3C7886"/>
<path d="M44.0006 817.848C45.9513 814.128 47.8686 811.58 49.1357 809.916C51.6199 806.645 52.9037 804.995 55.0378 803.779C56.0715 803.185 59.206 801.405 62.924 801.81C68.1925 802.375 72.9775 807.021 72.9609 811.204C72.9275 817.964 60.3397 822.32 54.8711 824.216C48.919 826.272 43.6338 826.938 40.1992 827.184C41.333 823.362 42.7501 820.222 44.0006 817.848Z" fill="white" fill-opacity="0.35"/>
<path d="M48.8699 838.069C49.7202 838.488 61.0742 844.235 59.5903 848.693C58.74 851.269 53.7049 853.165 50.5705 852.022C47.9862 851.081 47.8028 848.475 44.7684 842.642C43.0344 839.284 41.3172 836.708 40.2168 835.159C42.3009 835.579 45.452 836.375 48.8699 838.069Z" fill="white" fill-opacity="0.35"/>
<path d="M19.2906 859.838C27.5962 859.838 34.3293 853.993 34.3293 846.782C34.3293 839.572 27.5962 833.727 19.2906 833.727C10.985 833.727 4.25195 839.572 4.25195 846.782C4.25195 853.993 10.985 859.838 19.2906 859.838Z" fill="#3C7886"/>
<path d="M161.12 699.09C159.802 698.323 150.399 693.329 141.729 696.369C133.493 699.264 130.859 707.702 130.475 708.933C128.258 716.083 131.176 722.162 132.759 725.448C135.76 731.701 138.495 732.005 142.813 738.243C148.232 746.088 149.365 753.513 150.316 759.795C151.9 770.361 150.199 779.234 149.399 783.316C148.015 790.22 146.548 792.724 144.364 799.642C143.93 801.032 139.062 816.635 138.812 829.184C138.478 845.858 146.031 871.029 164.804 876.877C165.671 877.152 177.275 880.582 185.712 875.009C193.014 870.19 194.731 860.738 192.147 854.08C189.046 846.105 181.077 844.976 175.024 839.229C163.804 828.547 169.339 811.453 172.84 792.347C175.908 775.514 187.145 714.245 161.12 699.09Z" fill="url(#paint20_linear_0_1)"/>
<path d="M168.538 698.989C167.221 700.045 172.806 705.242 177.108 716.358C179.992 723.798 180.676 729.703 181.293 735.247C184.144 761.199 175.791 770.303 182.826 787.687C184.777 792.521 187.195 796.169 190.996 799.194C198.399 805.099 207.685 805.881 211.787 805.997C208.836 800.583 204.768 791.928 202.5 780.869C196.598 752.109 209.519 739.705 199.649 721.626C190.796 705.502 170.622 697.31 168.538 698.989Z" fill="#3C7886"/>
<path d="M189.914 841.43C185.663 841.43 181.311 839.606 177.993 836.436C174.375 832.977 172.575 828.548 173.058 824.292C173.558 819.82 176.66 813.769 188.614 810.252C191.331 809.456 194.199 809.051 197.134 809.051C199.284 809.051 201.435 809.268 203.569 809.702L211.772 811.367L210.021 818.531C209.321 821.412 208.287 824.22 206.937 826.912C203.819 833.15 199.951 840.923 190.731 841.43C190.464 841.415 190.181 841.43 189.914 841.43Z" fill="#3C7886"/>
<path d="M207.752 821.904C206.284 825.783 204.684 828.504 203.65 830.285C201.599 833.773 200.532 835.539 198.565 836.957C197.615 837.637 194.73 839.707 190.979 839.678C185.677 839.62 180.325 835.466 179.808 831.298C178.991 824.582 190.962 819.038 196.148 816.65C201.8 814.03 206.968 812.872 210.353 812.308C209.702 816.187 208.685 819.429 207.752 821.904Z" fill="white" fill-opacity="0.35"/>
<path d="M193.865 665.192C198.1 665.597 202.185 667.826 205.086 671.3C208.237 675.078 209.471 679.652 208.47 683.835C207.403 688.22 203.552 693.952 191.231 696.312C188.413 696.847 185.512 696.977 182.611 696.702C180.477 696.5 178.359 696.08 176.309 695.443L168.356 693.011L171.007 686.064C172.074 683.27 173.458 680.564 175.125 678.031C179.01 672.125 183.845 664.772 193.065 665.149C193.315 665.149 193.582 665.178 193.865 665.192Z" fill="#3C7886"/>
<path d="M173.675 682.895C175.626 679.175 177.543 676.627 178.81 674.963C181.294 671.692 182.578 670.042 184.712 668.826C185.746 668.232 188.88 666.452 192.598 666.857C197.867 667.422 202.652 672.068 202.635 676.251C202.602 683.01 190.014 687.367 184.545 689.263C178.593 691.319 173.308 691.984 169.874 692.23C171.007 688.409 172.424 685.268 173.675 682.895Z" fill="white" fill-opacity="0.35"/>
<path d="M200.901 802.726C199.234 802.089 190.047 798.601 190.697 794.157C191.248 790.394 198.634 787.267 201.951 788.888C204.236 790.003 203.469 792.797 206.386 798.919C207.537 801.336 208.754 803.232 209.638 804.463C207.62 804.376 204.436 804.057 200.901 802.726Z" fill="white" fill-opacity="0.35"/>
<path d="M178.542 703.115C179.393 703.535 190.747 709.281 189.263 713.739C188.412 716.316 183.377 718.212 180.243 717.069C177.659 716.128 177.475 713.522 174.441 707.689C172.707 704.331 170.99 701.755 169.889 700.206C171.973 700.626 175.124 701.422 178.542 703.115Z" fill="white" fill-opacity="0.35"/>
<path d="M172.857 873.374C181.162 873.374 187.895 867.529 187.895 860.318C187.895 853.108 181.162 847.263 172.857 847.263C164.551 847.263 157.818 853.108 157.818 860.318C157.818 867.529 164.551 873.374 172.857 873.374Z" fill="#3C7886"/>
<path d="M148.964 724.884C157.27 724.884 164.003 719.039 164.003 711.828C164.003 704.618 157.27 698.772 148.964 698.772C140.658 698.772 133.925 704.618 133.925 711.828C133.925 719.039 140.658 724.884 148.964 724.884Z" fill="#3C7886"/>
<path d="M290.789 564.135C289.472 563.368 280.069 558.374 271.399 561.414C263.163 564.309 260.529 572.747 260.145 573.978C257.928 581.128 260.845 587.207 262.429 590.493C265.43 596.745 268.165 597.049 272.483 603.288C277.902 611.133 279.035 618.558 279.986 624.84C281.569 635.406 279.869 644.279 279.069 648.36C277.685 655.265 276.218 657.769 274.034 664.687C273.6 666.077 268.732 681.68 268.482 694.229C268.148 710.903 275.701 736.074 294.474 741.922C295.341 742.197 306.945 745.627 315.382 740.054C322.684 735.235 324.401 725.783 321.817 719.125C318.716 711.149 310.747 710.02 304.694 704.274C293.474 693.592 299.009 676.498 302.51 657.392C305.578 640.559 316.815 579.29 290.789 564.135Z" fill="url(#paint21_linear_0_1)"/>
<path d="M298.209 564.035C296.892 565.091 302.477 570.288 306.779 581.404C309.663 588.843 310.347 594.749 310.964 600.293C313.815 626.245 305.462 635.349 312.497 652.733C314.448 657.567 316.866 661.214 320.667 664.24C328.07 670.145 337.356 670.927 341.458 671.042C338.507 665.629 334.439 656.973 332.171 645.915C326.269 617.155 339.19 604.751 329.32 586.672C320.467 570.548 300.293 562.356 298.209 564.035Z" fill="#3C7886"/>
<path d="M319.584 706.475C315.333 706.475 310.981 704.652 307.663 701.482C304.045 698.023 302.245 693.593 302.728 689.338C303.228 684.865 306.329 678.815 318.284 675.298C321.001 674.502 323.869 674.097 326.803 674.097C328.954 674.097 331.105 674.314 333.239 674.748L341.442 676.413L339.691 683.577C338.991 686.458 337.957 689.266 336.607 691.958C333.489 698.196 329.621 705.969 320.401 706.475C320.134 706.461 319.851 706.475 319.584 706.475Z" fill="#3C7886"/>
<path d="M337.422 686.949C335.954 690.828 334.354 693.549 333.32 695.329C331.269 698.818 330.202 700.584 328.235 702.002C327.285 702.682 324.4 704.752 320.649 704.723C315.347 704.665 309.995 700.511 309.478 696.343C308.661 689.627 320.632 684.083 325.817 681.695C331.469 679.075 336.638 677.917 340.022 677.353C339.372 681.232 338.355 684.474 337.422 686.949Z" fill="white" fill-opacity="0.35"/>
<path d="M323.534 530.237C327.769 530.642 331.854 532.871 334.755 536.345C337.906 540.123 339.14 544.697 338.139 548.88C337.072 553.265 333.221 558.997 320.9 561.356C318.082 561.892 315.181 562.022 312.28 561.747C310.146 561.545 308.028 561.125 305.978 560.488L298.025 558.056L300.676 551.109C301.743 548.315 303.127 545.609 304.794 543.076C308.679 537.17 313.514 529.817 322.734 530.194C322.984 530.194 323.251 530.223 323.534 530.237Z" fill="#3C7886"/>
<path d="M303.345 547.94C305.295 544.22 307.213 541.672 308.48 540.008C310.964 536.737 312.248 535.086 314.382 533.871C315.416 533.277 318.55 531.497 322.268 531.902C327.537 532.467 332.322 537.113 332.305 541.296C332.272 548.055 319.684 552.412 314.215 554.308C308.263 556.364 302.978 557.029 299.543 557.275C300.677 553.454 302.094 550.313 303.345 547.94Z" fill="white" fill-opacity="0.35"/>
<path d="M330.57 667.771C328.903 667.134 319.716 663.646 320.366 659.202C320.917 655.439 328.303 652.312 331.62 653.933C333.905 655.048 333.138 657.841 336.055 663.964C337.206 666.381 338.423 668.277 339.306 669.508C337.289 669.421 334.105 669.102 330.57 667.771Z" fill="white" fill-opacity="0.35"/>
<path d="M308.212 568.158C309.062 568.578 320.416 574.324 318.933 578.782C318.082 581.359 313.047 583.255 309.913 582.111C307.328 581.171 307.145 578.565 304.111 572.732C302.377 569.374 300.659 566.798 299.559 565.249C301.643 565.669 304.794 566.465 308.212 568.158Z" fill="white" fill-opacity="0.35"/>
<path d="M302.527 738.419C310.833 738.419 317.566 732.574 317.566 725.363C317.566 718.153 310.833 712.308 302.527 712.308C294.222 712.308 287.489 718.153 287.489 725.363C287.489 732.574 294.222 738.419 302.527 738.419Z" fill="#3C7886"/>
<path d="M278.634 589.929C286.94 589.929 293.673 584.084 293.673 576.873C293.673 569.663 286.94 563.817 278.634 563.817C270.328 563.817 263.595 569.663 263.595 576.873C263.595 584.084 270.328 589.929 278.634 589.929Z" fill="#3C7886"/>
<path d="M355.054 764.081C353.736 763.314 344.333 758.321 335.663 761.36C327.427 764.255 324.793 772.694 324.409 773.924C322.192 781.074 325.11 787.153 326.694 790.439C329.695 796.692 332.429 796.996 336.747 803.234C342.166 811.079 343.299 818.504 344.25 824.786C345.834 835.352 344.133 844.225 343.333 848.307C341.949 855.211 340.482 857.715 338.298 864.634C337.864 866.023 332.996 881.626 332.746 894.175C332.412 910.85 339.965 936.02 358.738 941.868C359.605 942.143 371.209 945.573 379.646 940.001C386.948 935.181 388.666 925.729 386.081 919.071C382.98 911.096 375.011 909.967 368.959 904.221C357.738 893.539 363.273 876.445 366.774 857.339C369.842 840.505 381.08 779.236 355.054 764.081Z" fill="url(#paint22_linear_0_1)"/>
<path d="M362.473 763.98C361.156 765.037 366.741 770.233 371.042 781.349C373.927 788.789 374.61 794.694 375.227 800.238C378.078 826.19 369.725 835.294 376.761 852.678C378.712 857.512 381.129 861.16 384.931 864.185C392.333 870.09 401.62 870.872 405.721 870.988C402.77 865.574 398.702 856.919 396.435 845.861C390.533 817.1 403.454 804.696 393.584 786.618C384.731 770.493 364.557 762.301 362.473 763.98Z" fill="#3C7886"/>
<path d="M387.799 730.183C392.034 730.589 396.119 732.818 399.02 736.291C402.171 740.069 403.405 744.643 402.404 748.826C401.337 753.212 397.486 758.943 385.165 761.303C382.347 761.838 379.446 761.969 376.545 761.694C374.411 761.491 372.294 761.071 370.243 760.434L362.29 758.003L364.941 751.055C366.008 748.262 367.392 745.555 369.059 743.022C372.944 737.116 377.779 729.764 386.999 730.14C387.249 730.14 387.516 730.169 387.799 730.183Z" fill="#3C7886"/>
<path d="M367.609 747.885C369.56 744.165 371.477 741.618 372.744 739.953C375.228 736.682 376.512 735.032 378.646 733.816C379.68 733.223 382.814 731.442 386.532 731.847C391.801 732.412 396.586 737.058 396.569 741.241C396.536 748.001 383.948 752.357 378.479 754.253C372.527 756.309 367.242 756.975 363.808 757.221C364.941 753.4 366.359 750.259 367.609 747.885Z" fill="white" fill-opacity="0.35"/>
<path d="M372.478 768.106C373.329 768.525 384.683 774.272 383.199 778.73C382.348 781.306 377.313 783.202 374.179 782.059C371.595 781.118 371.411 778.513 368.377 772.679C366.643 769.321 364.926 766.745 363.825 765.196C365.909 765.616 369.06 766.412 372.478 768.106Z" fill="white" fill-opacity="0.35"/>
<path d="M342.898 789.874C351.204 789.874 357.937 784.029 357.937 776.818C357.937 769.608 351.204 763.763 342.898 763.763C334.592 763.763 327.859 769.608 327.859 776.818C327.859 784.029 334.592 789.874 342.898 789.874Z" fill="#3C7886"/>
<path d="M290.789 829.916C289.472 829.149 280.069 824.156 271.399 827.195C263.163 830.09 260.529 838.529 260.145 839.759C257.928 846.909 260.845 852.988 262.429 856.274C265.43 862.527 268.165 862.831 272.483 869.069C277.902 876.914 279.035 884.339 279.986 890.621C281.569 901.187 279.869 910.06 279.069 914.142C277.685 921.046 276.218 923.55 274.034 930.469C273.6 931.858 268.732 947.461 268.482 960.01C268.148 976.685 275.701 1001.86 294.474 1007.7C295.341 1007.98 306.945 1011.41 315.382 1005.84C322.684 1001.02 324.401 991.564 321.817 984.906C318.716 976.931 310.747 975.802 304.694 970.055C293.474 959.374 299.009 942.279 302.51 923.174C305.578 906.34 316.815 845.071 290.789 829.916Z" fill="url(#paint23_linear_0_1)"/>
<path d="M298.209 829.816C296.892 830.873 302.477 836.069 306.779 847.185C309.663 854.625 310.347 860.53 310.964 866.074C313.815 892.026 305.462 901.13 312.497 918.514C314.448 923.348 316.866 926.996 320.667 930.021C328.07 935.926 337.356 936.708 341.458 936.824C338.507 931.41 334.439 922.755 332.171 911.696C326.269 882.936 339.19 870.532 329.32 852.454C320.467 836.329 300.293 828.137 298.209 829.816Z" fill="#3C7886"/>
<path d="M323.534 796.018C327.769 796.424 331.854 798.653 334.755 802.126C337.906 805.904 339.14 810.478 338.139 814.661C337.072 819.047 333.221 824.778 320.9 827.138C318.082 827.673 315.181 827.804 312.28 827.529C310.146 827.326 308.028 826.906 305.978 826.269L298.025 823.838L300.676 816.89C301.743 814.096 303.127 811.39 304.794 808.857C308.679 802.951 313.514 795.598 322.734 795.975C322.984 795.975 323.251 796.004 323.534 796.018Z" fill="#3C7886"/>
<path d="M303.345 813.721C305.295 810.001 307.213 807.453 308.48 805.789C310.964 802.518 312.248 800.868 314.382 799.652C315.416 799.058 318.55 797.278 322.268 797.683C327.537 798.248 332.322 802.894 332.305 807.077C332.272 813.837 319.684 818.193 314.215 820.089C308.263 822.145 302.978 822.811 299.543 823.057C300.677 819.235 302.094 816.095 303.345 813.721Z" fill="white" fill-opacity="0.35"/>
<path d="M308.212 833.94C309.062 834.359 320.416 840.106 318.933 844.564C318.082 847.14 313.047 849.036 309.913 847.893C307.328 846.952 307.145 844.347 304.111 838.513C302.377 835.155 300.659 832.579 299.559 831.03C301.643 831.45 304.794 832.246 308.212 833.94Z" fill="white" fill-opacity="0.35"/>
<path d="M278.634 855.71C286.94 855.71 293.673 849.865 293.673 842.654C293.673 835.444 286.94 829.599 278.634 829.599C270.328 829.599 263.595 835.444 263.595 842.654C263.595 849.865 270.328 855.71 278.634 855.71Z" fill="#3C7886"/>
</g>
<defs>
<linearGradient id="paint0_linear_0_1" x1="96.0699" y1="-32.8262" x2="96.0699" y2="149.948" gradientUnits="userSpaceOnUse">
<stop stop-color="#C2DADF"/>
<stop offset="1" stop-color="#A3C8D0"/>
</linearGradient>
<linearGradient id="paint1_linear_0_1" x1="225.74" y1="-167.782" x2="225.74" y2="14.9924" gradientUnits="userSpaceOnUse">
<stop stop-color="#C2DADF"/>
<stop offset="1" stop-color="#A3C8D0"/>
</linearGradient>
<linearGradient id="paint2_linear_0_1" x1="31.8028" y1="33.0068" x2="31.8028" y2="215.781" gradientUnits="userSpaceOnUse">
<stop stop-color="#C2DADF"/>
<stop offset="1" stop-color="#A3C8D0"/>
</linearGradient>
<linearGradient id="paint3_linear_0_1" x1="161.476" y1="-101.947" x2="161.476" y2="80.8273" gradientUnits="userSpaceOnUse">
<stop stop-color="#C2DADF"/>
<stop offset="1" stop-color="#A3C8D0"/>
</linearGradient>
<linearGradient id="paint4_linear_0_1" x1="96.0699" y1="232.955" x2="96.0699" y2="415.73" gradientUnits="userSpaceOnUse">
<stop stop-color="#C2DADF"/>
<stop offset="1" stop-color="#A3C8D0"/>
</linearGradient>
<linearGradient id="paint5_linear_0_1" x1="225.74" y1="97.999" x2="225.74" y2="280.774" gradientUnits="userSpaceOnUse">
<stop stop-color="#C2DADF"/>
<stop offset="1" stop-color="#A3C8D0"/>
</linearGradient>
<linearGradient id="paint6_linear_0_1" x1="355.41" y1="-36.9561" x2="355.41" y2="145.819" gradientUnits="userSpaceOnUse">
<stop stop-color="#C2DADF"/>
<stop offset="1" stop-color="#A3C8D0"/>
</linearGradient>
<linearGradient id="paint7_linear_0_1" x1="31.8028" y1="298.788" x2="31.8028" y2="481.563" gradientUnits="userSpaceOnUse">
<stop stop-color="#C2DADF"/>
<stop offset="1" stop-color="#A3C8D0"/>
</linearGradient>
<linearGradient id="paint8_linear_0_1" x1="161.476" y1="163.834" x2="161.476" y2="346.609" gradientUnits="userSpaceOnUse">
<stop stop-color="#C2DADF"/>
<stop offset="1" stop-color="#A3C8D0"/>
</linearGradient>
<linearGradient id="paint9_linear_0_1" x1="291.146" y1="28.8789" x2="291.146" y2="211.654" gradientUnits="userSpaceOnUse">
<stop stop-color="#C2DADF"/>
<stop offset="1" stop-color="#A3C8D0"/>
</linearGradient>
<linearGradient id="paint10_linear_0_1" x1="96.0699" y1="498.736" x2="96.0699" y2="681.511" gradientUnits="userSpaceOnUse">
<stop stop-color="#C2DADF"/>
<stop offset="1" stop-color="#A3C8D0"/>
</linearGradient>
<linearGradient id="paint11_linear_0_1" x1="225.74" y1="363.78" x2="225.74" y2="546.555" gradientUnits="userSpaceOnUse">
<stop stop-color="#C2DADF"/>
<stop offset="1" stop-color="#A3C8D0"/>
</linearGradient>
<linearGradient id="paint12_linear_0_1" x1="355.41" y1="228.825" x2="355.41" y2="411.6" gradientUnits="userSpaceOnUse">
<stop stop-color="#C2DADF"/>
<stop offset="1" stop-color="#A3C8D0"/>
</linearGradient>
<linearGradient id="paint13_linear_0_1" x1="31.8028" y1="564.569" x2="31.8028" y2="747.344" gradientUnits="userSpaceOnUse">
<stop stop-color="#C2DADF"/>
<stop offset="1" stop-color="#A3C8D0"/>
</linearGradient>
<linearGradient id="paint14_linear_0_1" x1="161.476" y1="429.615" x2="161.476" y2="612.39" gradientUnits="userSpaceOnUse">
<stop stop-color="#C2DADF"/>
<stop offset="1" stop-color="#A3C8D0"/>
</linearGradient>
<linearGradient id="paint15_linear_0_1" x1="291.146" y1="294.66" x2="291.146" y2="477.435" gradientUnits="userSpaceOnUse">
<stop stop-color="#C2DADF"/>
<stop offset="1" stop-color="#A3C8D0"/>
</linearGradient>
<linearGradient id="paint16_linear_0_1" x1="96.0699" y1="764.519" x2="96.0699" y2="947.293" gradientUnits="userSpaceOnUse">
<stop stop-color="#C2DADF"/>
<stop offset="1" stop-color="#A3C8D0"/>
</linearGradient>
<linearGradient id="paint17_linear_0_1" x1="225.74" y1="629.562" x2="225.74" y2="812.337" gradientUnits="userSpaceOnUse">
<stop stop-color="#C2DADF"/>
<stop offset="1" stop-color="#A3C8D0"/>
</linearGradient>
<linearGradient id="paint18_linear_0_1" x1="355.41" y1="494.607" x2="355.41" y2="677.382" gradientUnits="userSpaceOnUse">
<stop stop-color="#C2DADF"/>
<stop offset="1" stop-color="#A3C8D0"/>
</linearGradient>
<linearGradient id="paint19_linear_0_1" x1="31.8028" y1="830.352" x2="31.8028" y2="1013.13" gradientUnits="userSpaceOnUse">
<stop stop-color="#C2DADF"/>
<stop offset="1" stop-color="#A3C8D0"/>
</linearGradient>
<linearGradient id="paint20_linear_0_1" x1="161.476" y1="695.397" x2="161.476" y2="878.172" gradientUnits="userSpaceOnUse">
<stop stop-color="#C2DADF"/>
<stop offset="1" stop-color="#A3C8D0"/>
</linearGradient>
<linearGradient id="paint21_linear_0_1" x1="291.146" y1="560.442" x2="291.146" y2="743.217" gradientUnits="userSpaceOnUse">
<stop stop-color="#C2DADF"/>
<stop offset="1" stop-color="#A3C8D0"/>
</linearGradient>
<linearGradient id="paint22_linear_0_1" x1="355.41" y1="760.389" x2="355.41" y2="943.163" gradientUnits="userSpaceOnUse">
<stop stop-color="#C2DADF"/>
<stop offset="1" stop-color="#A3C8D0"/>
</linearGradient>
<linearGradient id="paint23_linear_0_1" x1="291.146" y1="826.224" x2="291.146" y2="1009" gradientUnits="userSpaceOnUse">
<stop stop-color="#C2DADF"/>
<stop offset="1" stop-color="#A3C8D0"/>
</linearGradient>
</defs>
</svg>
