<svg width="83" height="214" viewBox="0 0 83 214" fill="none" xmlns="http://www.w3.org/2000/svg">
<path d="M31.7133 34.8666C30.3961 34.0995 20.9928 29.1059 12.323 32.1454C4.08678 35.0403 1.45252 43.4788 1.06905 44.7091C-1.14841 51.8593 1.76929 57.9384 3.35318 61.2241C6.35425 67.4769 9.08855 67.7809 13.4068 74.0193C18.8253 81.8643 19.9591 89.2895 20.9094 95.5713C22.4933 106.137 20.7927 115.01 19.9924 119.092C18.6086 125.996 17.1414 128.5 14.9573 135.419C14.5239 136.808 9.65543 152.411 9.40534 164.961C9.07189 181.635 16.6246 206.805 35.3979 212.653C36.2649 212.928 47.869 216.358 56.3053 210.786C63.6079 205.966 65.3252 196.514 62.7409 189.856C59.6398 181.881 51.6704 180.752 45.6182 175.006C34.3976 164.324 39.9329 147.23 43.4341 128.124C46.5019 111.29 57.7392 50.0211 31.7133 34.8666Z" fill="url(#paint0_linear_85_2960)"/>
<path d="M39.1323 34.7642C37.8152 35.8208 43.4005 41.0171 47.702 52.1332C50.5864 59.573 51.27 65.4785 51.8869 71.0221C54.7379 96.9743 46.3849 106.079 53.4207 123.462C55.3714 128.296 57.7889 131.944 61.5903 134.969C68.9929 140.874 78.2795 141.656 82.381 141.772C79.4299 136.359 75.3619 127.703 73.0944 116.645C67.1923 87.8845 80.1135 75.4801 70.2433 57.4019C61.3902 41.2776 41.2164 33.0852 39.1323 34.7642Z" fill="#3C7886"/>
<path d="M60.508 177.206C56.2565 177.206 51.9049 175.382 48.5871 172.212C44.9692 168.753 43.1685 164.324 43.652 160.068C44.1522 155.596 47.2533 149.546 59.2075 146.029C61.9252 145.232 64.7929 144.827 67.7273 144.827C69.878 144.827 72.0288 145.044 74.1629 145.479L82.3658 147.143L80.6151 154.308C79.9149 157.188 78.8812 159.996 77.5307 162.688C74.413 168.927 70.5449 176.699 61.325 177.206C61.0582 177.191 60.7748 177.206 60.508 177.206Z" fill="#3C7886"/>
<path d="M78.3469 157.68C76.8797 161.559 75.2791 164.281 74.2454 166.061C72.1947 169.549 71.1276 171.315 69.1602 172.734C68.2099 173.414 65.3256 175.484 61.5742 175.455C56.2723 175.397 50.9204 171.243 50.4036 167.074C49.5866 160.358 61.5576 154.814 66.7427 152.426C72.3948 149.806 77.5632 148.648 80.9478 148.084C80.2975 151.963 79.2805 155.205 78.3469 157.68Z" fill="white" fill-opacity="0.35"/>
<path d="M64.4587 0.967455C68.6936 1.37273 72.7784 3.60176 75.6794 7.07556C78.8305 10.8533 80.0643 15.4271 79.064 19.6102C77.9969 23.9959 74.1455 29.7277 61.8245 32.087C59.0068 32.6225 56.1058 32.7528 53.2047 32.4777C51.0707 32.2751 48.9532 31.8554 46.9025 31.2185L38.9497 28.7868L41.6006 21.8392C42.6677 19.0457 44.0515 16.339 45.7188 13.8061C49.6035 7.90058 54.4386 0.547705 63.6585 0.924034C63.9086 0.924034 64.1753 0.952981 64.4587 0.967455Z" fill="#3C7886"/>
<path d="M44.2677 18.67C46.2184 14.9501 48.1357 12.4027 49.4028 10.7382C51.887 7.46702 53.1708 5.81693 55.3049 4.6011C56.3386 4.00766 59.4731 2.22735 63.1911 2.63263C68.4596 3.19713 73.2446 7.84332 73.2279 12.0264C73.1946 18.7858 60.6068 23.1425 55.1382 25.0386C49.1861 27.094 43.9009 27.7598 40.4663 28.0059C41.6 24.1847 43.0172 21.0438 44.2677 18.67Z" fill="white" fill-opacity="0.35"/>
<path d="M71.4938 138.501C69.8266 137.864 60.64 134.376 61.2902 129.932C61.8404 126.169 69.2264 123.043 72.5442 124.664C74.8284 125.778 74.0614 128.572 76.9791 134.694C78.1295 137.112 79.3467 139.008 80.2303 140.238C78.2129 140.151 75.0284 139.833 71.4938 138.501Z" fill="white" fill-opacity="0.35"/>
<path d="M49.136 38.8898C49.9863 39.3095 61.3403 45.0558 59.8565 49.5138C59.0061 52.0902 53.971 53.9864 50.8366 52.8429C48.2523 51.9021 48.0689 49.2967 45.0345 43.4636C43.3005 40.1056 41.5833 37.5292 40.4829 35.9805C42.567 36.4002 45.7181 37.1963 49.136 38.8898Z" fill="white" fill-opacity="0.35"/>
<path d="M43.4513 209.15C51.7569 209.15 58.49 203.304 58.49 196.094C58.49 188.883 51.7569 183.038 43.4513 183.038C35.1457 183.038 28.4126 188.883 28.4126 196.094C28.4126 203.304 35.1457 209.15 43.4513 209.15Z" fill="#3C7886"/>
<path d="M19.5577 60.6593C27.8633 60.6593 34.5964 54.8141 34.5964 47.6036C34.5964 40.3931 27.8633 34.5479 19.5577 34.5479C11.2521 34.5479 4.51904 40.3931 4.51904 47.6036C4.51904 54.8141 11.2521 60.6593 19.5577 60.6593Z" fill="#3C7886"/>
<defs>
<linearGradient id="paint0_linear_85_2960" x1="32.0699" y1="31.1738" x2="32.0699" y2="213.948" gradientUnits="userSpaceOnUse">
<stop stop-color="#C2DADF"/>
<stop offset="1" stop-color="#A3C8D0"/>
</linearGradient>
</defs>
</svg>
