<svg width="185" height="92" viewBox="0 0 185 92" fill="none" xmlns="http://www.w3.org/2000/svg">
<g clip-path="url(#clip0_85_1944)">
<path d="M44.9805 73.4632C44.0476 73.4632 43.1518 73.615 42.3187 73.9162C40.3972 74.4825 38.5035 76.6048 38.0185 78.7431C37.5961 80.6027 38.1229 82.0274 39.4248 82.5574C39.9516 82.7703 40.4506 82.8791 40.9031 82.8791C41.6434 82.8791 42.2537 82.5846 42.6227 82.0455C43.1565 81.2663 43.1449 80.0704 42.5925 78.7657C42.5879 78.7544 42.5856 78.7453 42.5833 78.7363C42.5763 78.7113 42.5693 78.6887 42.5624 78.6706C42.2444 77.9254 42.3094 77.1507 42.748 76.4916C43.1797 75.846 43.8991 75.4315 44.6301 75.4134C44.6765 75.4134 44.7229 75.4134 44.7693 75.4134C47.162 75.4134 50.0582 76.8608 51.8103 78.9311C52.8244 80.1293 53.9291 82.0772 53.4417 84.5484C52.9057 86.6549 51.1187 88.4987 48.8909 89.2394C48.2527 89.4183 47.5681 89.5112 46.8672 89.5112C41.9265 89.5112 36.5843 84.9788 33.0499 81.9798L33.0081 81.9436C30.5552 79.8144 28.0628 77.6762 25.6516 75.6082C24.28 74.4304 22.9062 73.2526 21.53 72.0679C21.2237 71.8029 20.9336 71.5673 20.625 71.3182C20.4207 71.1528 20.2119 70.983 19.9868 70.7972C16.0555 67.5423 12.2891 65.241 8.47619 63.7597C8.34855 63.6645 8.19538 63.5807 8.01669 63.506C7.73125 63.3882 7.32745 63.2342 6.85403 63.0643C6.61268 62.9782 6.4015 62.8355 6.22048 62.6385L6.08588 62.4324H17.0233C19.2534 62.4324 20.9823 62.3146 22.2123 62.079C23.44 61.8434 24.4982 61.4244 25.387 60.8219C26.3663 60.1446 27.1298 59.2522 27.6822 58.1401C28.2322 57.0302 28.506 55.807 28.506 54.4661C28.506 53.1252 28.2391 51.9111 27.703 50.7718C27.167 49.6325 26.4174 48.6789 25.4543 47.9133C24.8068 47.415 24.0828 47.0254 23.2845 46.7445C22.4862 46.4659 21.3629 46.2077 19.9148 45.9722C20.9707 45.6052 21.776 45.27 22.333 44.9687C22.89 44.6675 23.3889 44.2892 23.8252 43.8339C25.0459 42.5995 25.6562 41.0185 25.6562 39.0909C25.6562 37.8995 25.3893 36.8258 24.8532 35.87C24.3172 34.9141 23.5606 34.1417 22.5813 33.5528C21.4511 32.8914 20.0262 32.495 18.3089 32.3637C17.8425 32.3342 16.8539 32.3184 15.3477 32.3184H0.5V32.8257C1.35865 32.8688 2.0595 32.9888 2.60254 33.1791C3.14558 33.3693 3.619 33.6797 4.02512 34.1055C4.50782 34.5766 4.83271 35.1723 4.99748 35.8926C5.16457 36.6152 5.2458 37.7319 5.2458 39.2472V55.5058C5.2458 57.0189 5.16457 58.1378 4.99748 58.8581C4.83039 59.5806 4.50782 60.1741 4.02512 60.6452C3.619 61.0575 3.1479 61.3632 2.61414 61.5603C2.45866 61.6169 2.28693 61.669 2.10127 61.7143C1.69979 61.8117 1.22637 61.8797 0.685655 61.9137C0.625317 61.9182 0.564979 61.9227 0.502321 61.925V62.4324C7.38547 64.6317 12.5443 66.5684 18.9332 72.0906C19.1281 72.2605 19.3184 72.4145 19.5064 72.5662C19.764 72.7769 20.01 72.9762 20.2653 73.2095C21.906 74.6297 23.5722 76.1337 25.1851 77.5856C28.7659 80.8088 32.4674 84.1407 36.2501 86.9698C38.9096 88.9132 42.9035 91.4931 46.8881 91.4931C49.109 91.4931 51.1303 90.689 52.901 89.1035C55.1915 86.852 56.0223 84.3559 55.3725 81.6763C54.2749 77.1462 49.6149 73.4632 44.9829 73.4632H44.9805ZM10.1958 33.0024H12.2984C13.9112 33.0024 15.1133 33.0907 15.9047 33.2674C16.696 33.4441 17.3992 33.7748 18.0188 34.2595C18.7266 34.8167 19.2952 35.6004 19.7269 36.6084C20.1562 37.6163 20.372 38.6787 20.372 39.7976C20.372 40.8554 20.1631 41.8226 19.7501 42.6991C19.337 43.5735 18.7452 44.2892 17.9771 44.8509C17.5686 45.1295 17.1207 45.3493 16.6311 45.5123C16.1414 45.6754 15.4963 45.8136 14.6979 45.9336C13.7789 46.0514 12.8901 46.1103 12.0315 46.1103H10.2005V33.0069L10.1958 33.0024ZM10.1958 46.7898H14.2408C17.1347 46.7898 19.2604 47.3335 20.6157 48.4229C21.3537 49.0119 21.9408 49.8545 22.3794 50.9485C22.8157 52.0448 23.0362 53.2317 23.0362 54.5114C23.0362 56.747 22.3307 58.5115 20.922 59.8071C19.511 61.1005 17.5942 61.7483 15.169 61.7483C13.3009 61.7483 11.9827 61.2568 11.2146 60.2715C10.8526 59.8004 10.5927 59.2273 10.4348 58.55C10.2747 57.8728 10.1958 56.9826 10.1958 55.8818V46.7921V46.7898Z" fill="white"/>
<path d="M114.397 32.2708L114.093 32.2753L114.07 32.8733C114.07 32.8733 114.123 32.8756 114.2 32.8756C114.262 32.8756 114.344 32.8756 114.443 32.8688L118.4 32.8122H127.739V32.2731C126.764 32.1961 125.963 31.9446 125.341 31.5233C124.893 31.2108 124.538 30.8053 124.274 30.307C124.009 29.8087 123.877 29.2696 123.877 28.692C123.877 27.709 124.237 26.359 124.956 24.6421L125.555 23.1902L126.801 19.9602H137.353L139.655 25.4847L140.064 26.4677C140.512 27.5436 140.734 28.4021 140.734 29.0431C140.734 30.119 140.238 30.9616 139.247 31.5709C138.688 31.9152 137.697 32.1485 136.274 32.2731V32.8122H152.029V32.2731C151.038 32.1643 150.296 32.0352 149.799 31.8857C149.302 31.7385 148.864 31.5233 148.481 31.2425C148.349 31.1451 148.221 31.0363 148.096 30.914L135.469 1.50674C135.808 1.32327 136.191 1.21002 136.497 1.21002C137.147 1.21002 137.671 1.72419 137.671 2.35614V3.00168C137.671 3.6359 138.198 4.14781 138.845 4.14781H139.066C139.716 4.14781 140.24 3.63364 140.24 3.00168V1.49768C140.24 0.863466 139.713 0.351562 139.066 0.351562H131.463L131.343 0.655081C131.266 0.847611 123.666 20.0327 121.122 26.2367C120.113 28.7033 118.628 30.4723 116.713 31.3716C115.694 31.8495 115.288 32.2708 114.395 32.2708H114.397ZM136.97 19.0021H127.186L131.934 6.8772L136.97 19.0021ZM122.025 26.5878C124.392 20.8096 131.143 3.78766 132.129 1.30062H133.127L124.524 22.9342C123.724 24.9479 123.081 26.4564 122.594 27.4643C122.106 28.47 121.607 29.2945 121.095 29.9333C120.487 30.7283 119.862 31.657 119.224 32.0171C119.101 32.0873 118.971 32.1508 118.841 32.2074L117.695 32.2232C119.103 31.4191 120.821 29.5301 122.027 26.5878H122.025Z" fill="white"/>
<path d="M107.017 31.8992C107.017 33.6546 105.973 35.2809 104.258 36.0329C103.712 36.2708 103.123 36.4067 102.522 36.4452C102.485 36.4452 102.448 36.4475 102.41 36.4497C102.403 36.4497 102.403 36.4497 102.399 36.4497H92.2876C91.1969 36.2028 90.2153 35.6116 89.5399 34.76C88.9041 33.9559 88.6047 32.9978 88.6047 32.0057V27.7156C88.6047 26.8413 89.3311 26.1346 90.2245 26.1346H90.6144V25.7632H80.8838V26.1346H81.341C82.2367 26.1346 82.9608 26.8436 82.9608 27.7156V31.8562C82.9608 32.5312 83.0815 33.1903 83.3785 33.8087C83.7916 34.6694 84.4994 35.3987 85.3766 35.8653C85.8292 36.1077 86.3235 36.2776 86.8363 36.3704C87.145 36.4271 87.4583 36.4497 87.7739 36.4633C89.5167 36.5403 91.2642 36.5766 93.007 36.5811C93.1741 36.5811 93.3412 36.5811 93.5083 36.5811H107.437C108.286 36.5811 109.096 36.5018 109.876 36.1666C110.793 35.7702 111.566 35.102 112.055 34.2775C112.512 33.5119 112.659 32.6784 112.659 31.8177V1.12382C112.786 1.09664 112.912 1.08079 113.025 1.08079C113.364 1.08079 113.67 1.2099 113.893 1.41602C114.116 1.6244 114.253 1.9098 114.253 2.22691V2.87245C114.253 3.50667 114.803 4.01857 115.481 4.01857H115.71C116.388 4.01857 116.938 3.5044 116.938 2.87245V1.36845C116.938 0.734234 116.388 0.22233 115.71 0.22233L110.445 0.167969H106.012L107.019 1.71727V31.8992H107.017Z" fill="white"/>
<path d="M32.8782 3.73317H33.0987C33.7485 3.73317 34.273 3.219 34.273 2.58705V1.94378C34.273 1.30956 34.7998 0.797654 35.4472 0.797654C36.169 0.797654 37.2759 0.944883 37.2759 2.25862L37.4013 6.26325V30.4745C37.4013 30.9932 37.081 31.4643 36.5844 31.6546C36.5821 31.6546 36.5774 31.6546 36.5751 31.6568C36.0088 31.872 35.2593 32.0034 34.3333 32.051V32.5991H49.6568V32.051C48.7285 32.0034 47.9813 31.872 47.415 31.6568C46.8464 31.4417 46.3475 31.111 45.9158 30.6648C45.4192 30.1551 45.0804 29.5073 44.8971 28.7191C44.7137 27.9308 44.6209 26.7258 44.6209 25.1018V16.6486H49.9097C50.6292 16.6486 51.2372 16.7165 51.7315 16.8524C52.2258 16.9883 52.6899 17.2148 53.1216 17.5319C53.9686 18.1684 54.9039 19.3553 55.9273 21.0903C56.9507 22.8412 57.9648 24.8549 58.972 27.1313L60.6499 30.9275C60.7613 31.1653 61.0189 31.7225 61.418 32.5991H81.5639V32.06C80.5892 31.983 79.7885 31.7316 79.1666 31.3103C78.7187 30.9977 78.3636 30.5923 78.0991 30.094C77.8345 29.5956 77.7022 29.0566 77.7022 28.479C77.7022 27.4959 78.0619 26.146 78.7814 24.429L79.3801 22.9771L80.6263 19.7472H91.1784L93.4806 25.2716L93.889 26.2547C94.3369 27.3306 94.5597 28.189 94.5597 28.8301C94.5597 29.906 94.0631 30.7486 93.0721 31.3579C92.5128 31.7022 91.5219 31.9354 90.0993 32.06V32.5991H105.854V32.06C104.864 31.9513 104.119 31.8222 103.624 31.675C103.128 31.5277 102.689 31.3126 102.306 31.0317C102.174 30.9343 102.046 30.8256 101.921 30.7033L91.6867 6.87028L92.2715 8.19081L90.292 2.46021C90.0784 1.72859 91.3409 0.999245 92.1206 0.999245C92.7704 0.999245 93.2949 1.51341 93.2949 2.14537V2.79091C93.2949 3.42513 93.8217 3.93703 94.4692 3.93703H94.6896C95.3394 3.93703 95.8639 3.42286 95.8639 2.79091V1.28691C95.8639 0.65269 95.3371 0.140786 94.6896 0.140786H85.2886L85.1679 0.444305C85.0913 0.636835 77.4911 19.8219 74.9476 26.0259C73.9381 28.4926 72.4529 30.1981 70.5383 31.0974C69.5195 31.5753 68.6423 31.6863 68.2199 31.7089L67.9345 31.7135C67.902 31.6976 67.8625 31.6863 67.8324 31.6704C67.4564 31.4802 67.0689 31.1381 66.6697 30.6444C66.1754 30.0396 65.5628 29.0634 64.8364 27.7202C64.1077 26.3747 63.0332 24.2456 61.6106 21.3327C61.0026 20.0597 60.5478 19.1718 60.2437 18.6713C59.9397 18.1707 59.6032 17.7516 59.2366 17.4187C58.7724 16.9883 58.06 16.5761 57.1015 16.1774C58.2688 15.9237 59.1994 15.6519 59.8956 15.3665C60.5918 15.0789 61.2277 14.7142 61.8032 14.268C63.69 12.7708 64.6322 10.782 64.6322 8.29727C64.6322 6.62566 64.1959 5.1579 63.3256 3.89173C62.453 2.62556 61.2277 1.67423 59.645 1.03775C58.2387 0.480546 56.2963 0.145317 53.8178 0.0343286C53.2098 0.0184732 51.938 0.00941293 50.0049 0.00941293H42.0821L32.8759 0.00488281C32.2285 0.00488281 31.7017 0.453365 31.7017 1.08758V2.59158C31.7017 3.2258 32.2285 3.7377 32.8759 3.7377L32.8782 3.73317ZM90.8002 18.789H81.0162L85.7643 6.66416L90.8002 18.789ZM75.855 26.3747C78.2221 20.5966 84.9729 3.57462 85.9592 1.08758H86.9571L78.3544 22.7212C77.5537 24.7348 76.9109 26.2434 76.4235 27.2513C75.9362 28.257 75.4373 29.0815 74.9244 29.7202C74.3164 30.5153 73.6944 31.0928 73.0539 31.453C72.9286 31.5232 72.801 31.5866 72.6687 31.6433L71.5223 31.6591C72.9309 30.855 74.6482 29.317 75.855 26.3747ZM44.6255 0.743293H49.7218C51.4321 0.743293 52.7503 0.852016 53.6785 1.0672C54.6068 1.28238 55.4051 1.66064 56.0758 2.20199C56.9391 2.91775 57.6144 3.83057 58.1018 4.93592C58.5891 6.04354 58.8328 7.2259 58.8328 8.48301C58.8328 10.8387 57.9927 12.8138 56.3148 14.4039C55.5629 15.1038 54.76 15.5659 53.9036 15.7901C53.0496 16.0143 47.5171 16.1253 45.5329 16.1253H44.6209V0.743293H44.6255ZM38.3226 0.743293H39.3715V7.21004C39.3715 7.30518 39.3715 7.40257 39.3715 7.50224V25.1018C39.3715 25.3147 39.3715 25.5185 39.3669 25.7179V32.051H38.3226V30.3952V8.07756V0.743293Z" fill="white"/>
<path d="M39.924 46.5217C40.4949 45.2283 41.2955 44.585 42.3189 44.585C43.0708 44.585 43.7276 44.8704 44.2845 45.4435L44.9854 46.1932C45.3613 46.6055 45.8046 46.8116 46.3175 46.8116C46.7537 46.8116 47.1135 46.6802 47.3896 46.4152C47.6681 46.1502 47.8097 45.8127 47.8097 45.4005C47.8097 44.8433 47.5753 44.3721 47.1088 43.9916C46.5983 43.5658 45.851 43.3506 44.8717 43.3506C43.275 43.3506 41.8501 43.7855 40.5993 44.6507C39.9217 45.1196 39.3113 45.8195 38.7683 46.7459C38.7683 45.8036 38.6383 44.6711 38.3807 43.3506L32.5535 44.1456V44.61C33.2311 44.6553 33.751 44.7662 34.113 44.9497C34.475 45.1332 34.7837 45.4299 35.0389 45.8399C35.2942 46.2204 35.459 46.7142 35.5356 47.3212C35.6121 47.9283 35.6493 48.9861 35.6493 50.4946V55.9171C35.6493 57.206 35.6145 58.189 35.5472 58.8685C35.4799 59.5503 35.3638 60.0577 35.1967 60.3929C34.9554 60.9071 34.6398 61.2695 34.2476 61.4801C33.8554 61.6908 33.2079 61.8561 32.3052 61.9739V62.4383H42.2957V61.9739C41.1655 61.7678 40.3904 61.4665 39.9681 61.0702C39.6223 60.7621 39.3879 60.3771 39.2672 59.915C39.1465 59.4506 39.0862 58.719 39.0862 57.7224L39.063 56.0485V51.9284C39.063 49.6225 39.3484 47.8218 39.9217 46.5285L39.924 46.5217Z" fill="white"/>
<path d="M62.889 62.0561C63.5991 62.5703 64.488 62.8285 65.5601 62.8285C67.5048 62.8285 68.7487 62.0561 69.2894 60.5113L68.9042 60.2893C68.5422 60.7763 68.2312 61.1002 67.9667 61.261C67.7044 61.4241 67.3378 61.5034 66.8713 61.5034C65.892 61.5034 65.2747 60.9824 65.0171 59.936C64.8964 59.4377 64.8361 58.4954 64.8361 57.1137V48.9504C64.8361 47.9062 64.7757 47.1633 64.655 46.7216C64.4137 45.8541 63.801 45.1474 62.8217 44.6038C62.1441 44.2368 61.2993 43.9356 60.2852 43.7C59.2734 43.4667 58.301 43.3467 57.3658 43.3467C56.535 43.3467 55.6856 43.4328 54.8177 43.6004C53.9497 43.7702 53.221 43.9877 52.6339 44.2527C51.5455 44.7669 51.0048 45.3988 51.0048 46.1508C51.0048 46.6514 51.1765 47.0659 51.5246 47.3966C51.8704 47.7273 52.2997 47.8949 52.8126 47.8949C53.597 47.8949 54.1377 47.5484 54.4394 46.8575L55.0056 45.5778C55.247 45.0342 55.609 44.6083 56.0917 44.3003C56.5721 43.99 57.1221 43.8359 57.7417 43.8359C58.2523 43.8359 58.7466 43.9469 59.22 44.1666C59.6957 44.3886 60.0833 44.6808 60.385 45.0477C61.0464 45.8428 61.3782 47.0999 61.3782 48.8213C61.3782 49.6322 61.2877 50.2642 61.1067 50.7195C60.9257 51.1747 60.5938 51.5734 60.1135 51.9109C59.6911 52.2189 59.1666 52.4839 58.5424 52.7059C57.9158 52.9279 56.9481 53.1974 55.6369 53.5213C54.5229 53.7999 53.6712 54.0763 53.0841 54.3481C52.497 54.6199 51.9772 54.9823 51.5246 55.4398C50.7263 56.2621 50.3271 57.2836 50.3271 58.5045C50.3271 59.8295 50.8145 60.8805 51.7892 61.6597C52.7615 62.4389 54.0774 62.8285 55.739 62.8285C57.0362 62.8285 58.1757 62.5635 59.1573 62.0334C59.6702 61.7548 60.4337 61.1727 61.4455 60.2893C61.9445 61.1274 62.4249 61.7163 62.8936 62.0561H62.889ZM61.4247 55.2836C61.4247 57.1522 61.1903 58.5792 60.7238 59.5645C60.3943 60.3143 59.9023 60.9145 59.2478 61.363C58.5957 61.8115 57.8995 62.0357 57.1639 62.0357C56.3215 62.0357 55.6276 61.7186 55.0799 61.0866C54.5299 60.4524 54.2561 59.6529 54.2561 58.6811C54.2561 57.5486 54.6088 56.5565 55.3166 55.7049C55.6624 55.2926 56.0453 54.9393 56.4654 54.6448C56.8854 54.3503 57.6443 53.9177 58.7419 53.3447C59.719 52.8441 60.6124 52.2642 61.4247 51.6006V55.2858V55.2836Z" fill="white"/>
<path d="M78.2452 44.1644V43.6797H69.4521V44.1644C70.0996 44.298 70.5754 44.4815 70.8771 44.7171C71.4038 45.0999 71.9167 46.0172 72.4133 47.4714L72.9564 49.0796L77.4748 62.4321H78.2429L84.2001 47.6956L89.1385 62.4321H89.9299L95.3092 49.322L95.7849 48.1985C96.1934 47.1837 96.5415 46.4249 96.8362 45.9176C97.1309 45.4102 97.4419 45.0342 97.7738 44.7828C98.2843 44.3728 98.8668 44.1644 99.5143 44.1644V43.6797H92.8678V44.1644C93.6128 44.3705 94.1303 44.5902 94.4134 44.8258C94.982 45.2516 95.2651 45.8609 95.2651 46.6537C95.2651 47.2404 95.04 48.1011 94.5921 49.2314L91.0856 57.9541L88.1104 48.2619C87.825 47.3242 87.6834 46.5971 87.6834 46.0829C87.6834 45.4374 87.9225 44.9527 88.4075 44.6287C88.7092 44.4226 89.2267 44.2686 89.967 44.1644V43.6797H81.3108V44.1644C82.8796 44.2392 83.6617 44.9074 83.6617 46.169C83.6617 46.6379 83.5108 47.254 83.2092 48.0173L79.3545 57.9518L76.6161 49.7342C76.0174 47.8859 75.718 46.665 75.718 46.0784C75.718 44.8892 76.5604 44.2505 78.2499 44.1621L78.2452 44.1644Z" fill="white"/>
<path d="M103.283 58.8617C103.216 59.5412 103.097 60.0508 102.932 60.3861C102.691 60.898 102.375 61.2604 101.983 61.4733C101.591 61.6862 100.944 61.8493 100.039 61.9671V62.4314H110.029V61.9671C108.899 61.761 108.124 61.462 107.701 61.0656C107.356 60.7575 107.121 60.3725 107.001 59.9104C106.88 59.4483 106.82 58.719 106.82 57.7224L106.796 56.0507V43.3438L100.287 44.1388V44.6009C100.965 44.6439 101.484 44.7594 101.846 44.9406C102.208 45.1241 102.517 45.4208 102.772 45.8308C103.028 46.2113 103.195 46.7051 103.269 47.3121C103.343 47.9192 103.383 48.977 103.383 50.4832V55.9058C103.383 57.1946 103.348 58.1776 103.281 58.8572L103.283 58.8617Z" fill="white"/>
<path d="M117.987 65.3857C118.486 64.4457 118.778 63.2135 118.871 61.6846C118.885 61.2724 118.894 60.0991 118.894 58.1602V43.3467L111.979 44.2504V44.8008C113.244 44.8008 114.144 45.1565 114.68 45.87C115.214 46.5812 115.483 47.7681 115.483 49.4261V61.2429C115.483 62.5929 115.446 63.6733 115.369 64.4797C115.293 65.2861 115.174 65.8818 115.007 66.2646C114.796 66.7787 114.483 67.1706 114.07 67.4424C113.654 67.7142 113.183 67.8501 112.656 67.8501C111.633 67.8501 110.96 67.3495 110.644 66.3506L110.329 65.2906C110.074 64.4367 109.584 64.0108 108.86 64.0108C108.454 64.0108 108.122 64.1581 107.864 64.4525C107.609 64.747 107.479 65.1207 107.479 65.5783C107.479 66.4163 107.913 67.0845 108.781 67.5851C109.649 68.0857 110.816 68.3348 112.28 68.3348C115.028 68.3348 116.931 67.3518 117.987 65.3835V65.3857Z" fill="white"/>
<path d="M132.948 62.0334C133.461 61.7548 134.222 61.1727 135.234 60.2893C135.733 61.1274 136.216 61.7163 136.685 62.0561C137.392 62.5703 138.284 62.8285 139.356 62.8285C141.301 62.8285 142.542 62.0561 143.085 60.5113L142.7 60.2893C142.338 60.7763 142.027 61.1002 141.762 61.261C141.498 61.4241 141.133 61.5034 140.667 61.5034C139.685 61.5034 139.07 60.9824 138.813 59.936C138.692 59.4377 138.632 58.4954 138.632 57.1137V48.9504C138.632 47.9062 138.571 47.1633 138.448 46.7216C138.207 45.8541 137.594 45.1474 136.615 44.6038C135.935 44.2368 135.09 43.9356 134.079 43.7C133.067 43.4667 132.094 43.3467 131.157 43.3467C130.326 43.3467 129.479 43.4328 128.611 43.6004C127.741 43.7702 127.014 43.9877 126.425 44.2527C125.339 44.7669 124.796 45.3988 124.796 46.1508C124.796 46.6514 124.968 47.0659 125.316 47.3966C125.661 47.7273 126.091 47.8949 126.601 47.8949C127.386 47.8949 127.926 47.5484 128.23 46.8575L128.797 45.5778C129.036 45.0342 129.398 44.6083 129.88 44.3003C130.361 43.99 130.913 43.8359 131.53 43.8359C132.041 43.8359 132.535 43.9469 133.011 44.1666C133.487 44.3886 133.874 44.6808 134.174 45.0477C134.837 45.8428 135.167 47.0999 135.167 48.8213C135.167 49.6322 135.076 50.2642 134.895 50.7195C134.714 51.1747 134.383 51.5734 133.902 51.9109C133.48 52.2189 132.958 52.4839 132.331 52.7059C131.707 52.9279 130.739 53.1974 129.428 53.5213C128.312 53.7999 127.46 54.0763 126.875 54.3481C126.286 54.6199 125.768 54.9823 125.316 55.4398C124.515 56.2621 124.118 57.2836 124.118 58.5045C124.118 59.8295 124.606 60.8805 125.578 61.6597C126.55 62.4389 127.866 62.8285 129.528 62.8285C130.825 62.8285 131.964 62.5635 132.946 62.0334H132.948ZM128.876 61.0844C128.328 60.4502 128.054 59.6506 128.054 58.6789C128.054 57.5464 128.407 56.5543 129.112 55.7026C129.458 55.2903 129.841 54.937 130.261 54.6425C130.681 54.3481 131.44 53.9155 132.538 53.3424C133.515 52.8418 134.408 52.262 135.22 51.5983V55.2836C135.22 57.1522 134.986 58.5792 134.522 59.5645C134.192 60.3143 133.698 60.9145 133.046 61.363C132.391 61.8115 131.698 62.0357 130.96 62.0357C130.119 62.0357 129.426 61.7186 128.876 61.0866V61.0844Z" fill="white"/>
<path d="M151.022 44.5148C151.293 44.3676 151.737 44.2498 152.354 44.1615V43.6768H143.584V44.1615C144.111 44.2204 144.563 44.3903 144.939 44.6689C145.164 44.8455 145.392 45.1332 145.617 45.5296C145.844 45.926 146.16 46.5942 146.566 47.5342L147.241 49.1197L151.927 60.1166C152.498 61.4665 152.783 62.4156 152.783 62.9592C152.783 63.3171 152.651 63.8154 152.391 64.4564C152.391 64.4587 152.389 64.4655 152.386 64.4678C151.822 65.6184 151.117 66.1915 150.263 66.1915C150.068 66.1915 149.899 66.1688 149.755 66.1258C149.611 66.0805 149.293 65.9627 148.796 65.7724C148.286 65.5663 147.835 65.4621 147.443 65.4621C146.979 65.4621 146.601 65.5754 146.318 65.8041C146.032 66.0329 145.888 66.3387 145.888 66.7192C145.888 67.2062 146.134 67.5981 146.624 67.8993C147.114 68.2006 147.759 68.3523 148.557 68.3523C149.808 68.3523 150.841 67.888 151.653 66.9616C152.136 66.4044 152.769 65.1971 153.554 63.3443L159.205 49.9623C160.154 47.7131 160.845 46.2657 161.284 45.6179C161.569 45.2057 161.866 44.9044 162.177 44.7142C162.486 44.5239 162.964 44.3382 163.614 44.1615V43.6768H157.148V44.1615C157.872 44.2498 158.422 44.4876 158.798 44.8795C159.174 45.2668 159.365 45.7946 159.365 46.4537C159.365 47.2759 158.956 48.678 158.144 50.6599L154.844 58.6126L151.064 49.1627C150.449 47.6497 150.142 46.5987 150.142 46.012C150.142 45.337 150.437 44.8365 151.024 44.5148H151.022Z" fill="white"/>
<path d="M184.5 60.5113L184.115 60.2893C183.753 60.7763 183.442 61.1002 183.177 61.261C182.913 61.4241 182.548 61.5034 182.082 61.5034C181.1 61.5034 180.485 60.9824 180.228 59.936C180.107 59.4377 180.047 58.4954 180.047 57.1137V48.9504C180.047 47.9062 179.986 47.1633 179.863 46.7216C179.622 45.8541 179.012 45.1474 178.03 44.6038C177.35 44.2368 176.505 43.9356 175.493 43.7C174.482 43.4667 173.509 43.3467 172.572 43.3467C171.741 43.3467 170.894 43.4328 170.026 43.6004C169.156 43.7702 168.429 43.9877 167.84 44.2527C166.754 44.7669 166.211 45.3988 166.211 46.1508C166.211 46.6514 166.385 47.0659 166.731 47.3966C167.076 47.7273 167.506 47.8949 168.019 47.8949C168.801 47.8949 169.344 47.5484 169.645 46.8575L170.212 45.5778C170.451 45.0342 170.813 44.6083 171.295 44.3003C171.776 43.99 172.328 43.8359 172.945 43.8359C173.458 43.8359 173.95 43.9469 174.426 44.1666C174.902 44.3886 175.289 44.6808 175.589 45.0477C176.252 45.8428 176.582 47.0999 176.582 48.8213C176.582 49.6322 176.491 50.2642 176.31 50.7195C176.129 51.1747 175.797 51.5734 175.317 51.9109C174.895 52.2189 174.373 52.4839 173.746 52.7059C173.122 52.9279 172.154 53.1974 170.843 53.5213C169.727 53.7999 168.875 54.0763 168.29 54.3481C167.701 54.6199 167.183 54.9823 166.731 55.4398C165.93 56.2621 165.533 57.2836 165.533 58.5045C165.533 59.8295 166.02 60.8805 166.993 61.6597C167.965 62.4389 169.281 62.8285 170.943 62.8285C172.24 62.8285 173.379 62.5635 174.361 62.0334C174.874 61.7548 175.637 61.1727 176.647 60.2893C177.146 61.1274 177.628 61.7163 178.097 62.0561C178.297 62.2011 178.51 62.3234 178.738 62.4253L177.923 62.5906L177.881 62.6359C177.703 62.833 177.489 62.978 177.248 63.064C176.772 63.2339 176.371 63.3857 176.085 63.5057C175.907 63.5805 175.751 63.6643 175.623 63.7594C171.808 65.2408 168.044 67.5443 164.113 70.7992C163.888 70.985 163.679 71.1548 163.475 71.3202C163.166 71.5693 162.874 71.8072 162.567 72.0699C161.191 73.2546 159.817 74.4324 158.446 75.6102C156.035 77.6782 153.542 79.8187 151.089 81.9479L151.047 81.9818C147.513 84.9808 142.171 89.5154 137.23 89.5154C136.527 89.5154 135.845 89.4226 135.206 89.2436C132.979 88.5029 131.192 86.6592 130.656 84.5527C130.168 82.0792 131.273 80.1335 132.287 78.9353C134.039 76.8651 136.935 75.4177 139.33 75.4177C139.377 75.4177 139.423 75.4177 139.469 75.4177C140.201 75.4358 140.92 75.848 141.349 76.4959C141.788 77.155 141.853 77.9296 141.535 78.6726C141.528 78.6907 141.519 78.7156 141.514 78.7383C141.512 78.7473 141.509 78.7587 141.505 78.7677C140.952 80.0724 140.941 81.2683 141.475 82.0475C141.844 82.5843 142.454 82.8811 143.194 82.8811C143.649 82.8811 144.146 82.7723 144.675 82.5594C145.979 82.0317 146.503 80.6047 146.081 78.7451C145.596 76.6046 143.702 74.4845 141.781 73.9182C140.948 73.617 140.052 73.4629 139.119 73.4629C134.489 73.4629 129.827 77.1482 128.732 81.6783C128.082 84.3579 128.913 86.854 131.203 89.1032C132.972 90.6887 134.995 91.4928 137.216 91.4928C141.201 91.4928 145.195 88.9129 147.854 86.9695C151.637 84.1404 155.338 80.8085 158.919 77.5853C160.532 76.1334 162.201 74.6317 163.841 73.2092C164.097 72.9782 164.343 72.7789 164.6 72.566C164.788 72.4142 164.976 72.2579 165.173 72.0903C171.272 66.8195 175.64 64.7878 182.012 62.6994C182.277 62.6405 182.523 62.5612 182.75 62.4593C182.811 62.4389 182.871 62.4208 182.931 62.4004L182.943 62.3664C183.676 61.9859 184.194 61.3675 184.495 60.5091L184.5 60.5113ZM176.635 55.2813C176.635 57.15 176.401 58.577 175.937 59.5623C175.607 60.312 175.113 60.9122 174.461 61.3607C173.806 61.8092 173.112 62.0334 172.377 62.0334C171.534 62.0334 170.84 61.7163 170.29 61.0844C169.743 60.4502 169.469 59.6506 169.469 58.6789C169.469 57.5464 169.822 56.5543 170.527 55.7026C170.873 55.2903 171.256 54.937 171.676 54.6425C172.096 54.3481 172.855 53.9155 173.953 53.3424C174.93 52.8418 175.823 52.262 176.635 51.5983V55.2836V55.2813Z" fill="white"/>
</g>
<defs>
<clipPath id="clip0_85_1944">
<rect width="184" height="92" fill="white" transform="translate(0.5)"/>
</clipPath>
</defs>
</svg>
